<svg width="35" height="34" viewBox="0 0 35 34" fill="none" xmlns="http://www.w3.org/2000/svg">
<path fill-rule="evenodd" clip-rule="evenodd" d="M34.5 17C34.5 26.3888 26.8888 34 17.5 34C8.11116 34 0.5 26.3888 0.5 17C0.5 7.61116 8.11116 0 17.5 0C26.8888 0 34.5 7.61116 34.5 17ZM17.5 32C25.7843 32 32.5 25.2843 32.5 17C32.5 8.71573 25.7843 2 17.5 2C9.21573 2 2.5 8.71573 2.5 17C2.5 25.2843 9.21573 32 17.5 32Z" fill="#7AABDE"/>
<path fill-rule="evenodd" clip-rule="evenodd" d="M10.5 17C10.5 16.4477 10.9477 16 11.5 16H23.5C24.0523 16 24.5 16.4477 24.5 17C24.5 17.5523 24.0523 18 23.5 18H11.5C10.9477 18 10.5 17.5523 10.5 17Z" fill="#7AABDE"/>
<path fill-rule="evenodd" clip-rule="evenodd" d="M19.2929 12.2929C19.6834 11.9024 20.3166 11.9024 20.7071 12.2929L24.7071 16.2929C25.0976 16.6834 25.0976 17.3166 24.7071 17.7071L20.7071 21.7071C20.3166 22.0976 19.6834 22.0976 19.2929 21.7071C18.9024 21.3166 18.9024 20.6834 19.2929 20.2929L22.5858 17L19.2929 13.7071C18.9024 13.3166 18.9024 12.6834 19.2929 12.2929Z" fill="#7AABDE"/>
</svg>
