<svg width="27" height="27" viewBox="0 0 27 27" fill="none" xmlns="http://www.w3.org/2000/svg">
<path d="M13.5039 0.683804C13.5026 0.683804 13.5013 0.683594 13.5 0.683594C13.4987 0.683594 13.4974 0.683804 13.4961 0.683804C6.05375 0.686111 0 6.50766 0 13.6628C0 20.8195 6.05598 26.6417 13.5 26.6417C20.944 26.6417 27 20.8195 27 13.6628C27 6.50712 20.9457 0.685952 13.5039 0.683804H13.5039ZM13.5 25.5038C12.0187 25.5038 10.4739 23.6998 9.50386 20.6629C10.7726 20.5475 12.1169 20.4859 13.5002 20.4859C14.8834 20.4859 16.2281 20.5475 17.4964 20.6629C16.5266 23.6998 14.9813 25.5038 13.5 25.5038ZM13.5 19.3486C12.0078 19.3486 10.5549 19.4182 9.18727 19.5502C8.80369 18.0103 8.56106 16.218 8.52179 14.2317H18.4782C18.439 16.2184 18.1963 18.0105 17.8128 19.5502C16.4452 19.4182 14.9922 19.3486 13.5 19.3486ZM13.4972 1.82172H13.5005H13.5031C14.9837 1.82382 16.5274 3.62763 17.4966 6.66258C16.2278 6.77795 14.8836 6.83963 13.5004 6.83963C12.1171 6.83963 10.7726 6.77796 9.50407 6.66258C10.4728 3.62763 12.0165 1.82425 13.4971 1.82172H13.4972ZM13.5 7.97691C14.9922 7.97691 16.4452 7.90727 17.8128 7.77532C18.1963 9.31525 18.439 11.1073 18.4782 13.0938H8.52179C8.56106 11.1071 8.80369 9.31503 9.18727 7.77532C10.5549 7.90727 12.0078 7.97691 13.5 7.97691ZM7.33847 13.0938H1.19814C1.31597 10.7146 2.16843 8.51854 3.54021 6.70769C4.79721 7.11128 6.32277 7.42717 8.01355 7.64327C7.61601 9.27738 7.3769 11.1216 7.33824 13.0939L7.33847 13.0938ZM7.33847 14.2316C7.37709 16.204 7.61578 18.0483 8.01377 19.6822C6.32299 19.8983 4.79744 20.2144 3.54044 20.6178C2.16865 18.8071 1.31578 16.6108 1.19837 14.2317L7.33847 14.2316ZM19.6616 14.2316H25.8019C25.6841 16.6108 24.8316 18.8069 23.4598 20.6177C22.2026 20.2141 20.6773 19.8982 18.9865 19.6821C19.384 18.048 19.6231 16.2038 19.6618 14.2315L19.6616 14.2316ZM19.6616 13.0938C19.6229 11.1215 19.3842 9.27706 18.9863 7.64316C20.6772 7.4271 22.2026 7.11097 23.4596 6.70758C24.8314 8.51832 25.6843 10.7146 25.8017 13.0937L19.6616 13.0938ZM22.6606 5.75772C21.5188 6.09 20.1684 6.35241 18.6819 6.53553C18.1142 4.68725 17.3283 3.17756 16.394 2.15472C18.8514 2.72637 21.0233 4.00595 22.6605 5.75772H22.6606ZM10.6056 2.15494C9.67127 3.17778 8.88559 4.68747 8.31763 6.53574C6.83112 6.35261 5.48118 6.09019 4.33896 5.75794C5.97668 4.00595 8.14856 2.72637 10.6055 2.15494H10.6056ZM4.33958 21.5678C5.48157 21.2355 6.83196 20.9731 8.31825 20.79C8.88598 22.6382 9.67188 24.1479 10.6062 25.1708C8.14872 24.5991 5.97685 23.32 4.33963 21.5678H4.33958ZM16.394 25.1706C17.3283 24.1477 18.1144 22.6378 18.682 20.7895C20.168 20.9727 21.5184 21.2351 22.6606 21.5673C21.0231 23.32 18.851 24.5996 16.3941 25.1706H16.394Z" fill="white"/>
</svg>
