<svg width="20" height="18" viewBox="0 0 20 18" fill="none" xmlns="http://www.w3.org/2000/svg">
<path d="M10 17L9.68235 16.7306C2.85294 11.0741 1 9.08081 1 5.84848C1 3.15488 3.11765 1 5.76471 1C7.93529 1 9.15294 2.23906 10 3.20875C10.8471 2.23906 12.0647 1 14.2353 1C16.8824 1 19 3.15488 19 5.84848C19 9.08081 17.1471 11.0741 10.3176 16.7306L10 17ZM5.76471 2.07744C3.7 2.07744 2.05882 3.74747 2.05882 5.84848C2.05882 8.59596 3.75294 10.4276 10 15.5993C16.2471 10.4276 17.9412 8.59596 17.9412 5.84848C17.9412 3.74747 16.3 2.07744 14.2353 2.07744C12.3824 2.07744 11.3765 3.20875 10.5824 4.12458L10 4.82492L9.41765 4.12458C8.62353 3.20875 7.61765 2.07744 5.76471 2.07744Z" fill="white" stroke="white" stroke-width="0.8"/>
</svg>
