<svg width="50" height="59" viewBox="0 0 50 59" fill="none" xmlns="http://www.w3.org/2000/svg">
<path fill-rule="evenodd" clip-rule="evenodd" d="M9.37332 34.4008C4.61265 36.4132 1.75515 39.4015 1.75515 42.5206C1.75515 48.0765 10.5199 52.8001 21.4409 53.1067L17.9832 50.9825C17.5646 50.7416 17.42 50.2051 17.6589 49.7846C17.8999 49.3619 18.4389 49.2174 18.8575 49.4583L25.3215 53.1571C25.5998 53.317 25.7685 53.617 25.7641 53.9367C25.7553 54.2586 25.5735 54.5521 25.2886 54.6988L18.8728 58.0187C18.4455 58.2399 17.9152 58.0757 17.6895 57.6421C17.466 57.2129 17.6348 56.6829 18.0664 56.4595L21.4409 54.8477C9.43749 54.4054 0 49.1517 0 42.5206C0 38.4517 3.47305 34.7923 9.40024 32.4907V32.4911C9.54505 32.4286 9.69039 32.3687 9.83563 32.3131C11.6622 31.6144 13.6809 31.0366 15.8617 30.6661L15.9327 30.4371L15.7434 30.2865C14.1607 29.1 13.3045 27.1961 13.4673 25.2059L13.5906 19.3572C11.5589 19.9615 9.6945 20.3666 8.36277 20.3666C5.92605 20.3666 3.72706 18.1241 3.28022 16.8069C3.26922 16.7759 2.39754 12.7756 2.39754 12.7756C2.14661 11.9853 2.27868 11.1197 2.75194 10.4512C3.18337 9.84462 3.83052 9.48599 4.5393 9.455L16.5402 6.92687C16.5402 6.92687 17.5946 0.912072 17.6056 0.878865C17.7729 0.365271 18.2197 0.00885507 18.7436 0H18.7656C19.2521 0 19.6901 0.301072 19.8816 0.757108L22.7234 6.22954L22.7256 6.23175C22.7256 6.23175 26.8528 13.3999 26.8682 13.5128V13.515L40.8083 32.0575C39.6813 28.4801 38.409 23.9507 38.409 21.748C38.409 21.2654 38.7965 20.878 39.2741 20.878C39.754 20.878 40.1392 21.2654 40.1392 21.748C40.1392 24.1536 41.9323 29.9851 43.1132 33.563C47.4702 35.83 50 38.9981 50 42.4709C50 48.2827 42.9692 53.036 33.1878 54.3934V52.606C41.787 51.2988 48.2624 47.1849 48.2624 42.4709C48.2624 40.1508 46.6961 37.9197 43.9755 36.107C44.044 36.3035 44.0912 36.4368 44.1123 36.4962C44.1145 36.5072 44.1189 36.5116 44.1211 36.5183C44.9246 38.0856 44.2752 41.0233 43.2142 43.1175C42.6441 44.2421 41.3608 46.1039 40.0577 46.1039H25.1623C23.4035 46.1039 21.9749 44.6672 21.9749 42.9006C21.9749 41.1141 23.3287 39.7083 25.0566 39.653L27.5748 39.5689L22.5296 35.6106L20.6168 41.3288C19.7804 43.8392 17.2732 45.5239 14.3852 45.5239H10.3174C8.31875 45.5239 6.69427 44.0274 6.69427 42.19V41.9C6.69427 40.0603 8.31875 38.5638 10.3174 38.5638H12.0256C12.8422 38.5638 13.5576 38.1011 13.7645 37.4326L15.2685 32.5801C13.1232 33.014 11.1575 33.6416 9.40024 34.3894C9.39129 34.3932 9.38232 34.397 9.37332 34.4007L9.37332 34.4008ZM24.026 24.3506C24.026 25.2453 23.2972 25.974 22.4026 25.974C21.508 25.974 20.7792 25.2453 20.7792 24.3506C20.7792 23.456 21.508 22.7273 22.4026 22.7273C23.2972 22.7273 24.026 23.456 24.026 24.3506ZM38.961 42.5325C38.961 43.4271 38.2323 44.1558 37.3377 44.1558C36.4409 44.1558 35.7143 43.4271 35.7143 42.5325C35.7143 41.6378 36.4409 40.9091 37.3377 40.9091C38.2323 40.9091 38.961 41.6378 38.961 42.5325ZM17.5325 41.2359C17.5325 42.1284 16.8037 42.8571 15.9091 42.8571C15.0144 42.8571 14.2857 42.1284 14.2857 41.2359C14.2857 40.3391 15.0144 39.6104 15.9091 39.6104C16.8037 39.6104 17.5325 40.3391 17.5325 41.2359ZM17.5325 11.6873C17.5325 12.5834 16.8037 13.3117 15.9091 13.3117C15.0144 13.3117 14.2857 12.5834 14.2857 11.6873C14.2857 10.7932 15.0144 10.0649 15.9091 10.0649C16.8037 10.0649 17.5325 10.7932 17.5325 11.6873ZM42.6926 39.166C42.8224 38.307 42.7872 37.6141 42.5847 37.3064L25.6333 14.7503C23.9054 15.5207 19.4986 17.4312 15.3317 18.8104L15.1931 25.2967C15.0874 26.6006 15.5673 27.8138 16.4874 28.6506L18.3298 22.7022C18.8691 20.9688 20.7291 19.8132 22.7256 20.0434L22.7938 20.0501C24.0485 20.1984 25.1381 20.8625 25.772 21.8698C26.3333 22.7575 26.4654 23.829 26.1374 24.8141L23.113 33.864L29.2477 38.6767L26.5556 35.2542C24.8871 33.1357 24.8959 29.908 26.9739 28.1945C27.5858 27.6898 28.8118 26.9548 29.8904 26.9548C31.0351 26.9548 32.1334 27.4418 32.9017 28.2941C32.9017 28.2941 42.6948 39.1814 42.6926 39.166ZM41.4247 41.1893C41.5634 40.8086 41.4819 40.3835 41.209 40.0825L31.6228 29.4652C31.1737 28.9671 30.5596 28.6926 29.8904 28.6926C29.2719 28.6926 28.5499 29.1332 28.1933 29.4276C26.7978 30.5854 26.7912 32.7505 27.9116 34.1761L31.7482 39.0486C31.7482 39.0508 31.7504 39.0508 31.7526 39.0531C31.7725 39.0708 31.7945 39.0907 31.8143 39.1084L34.6956 42.0106C35.0346 42.3493 35.0346 42.9006 34.6956 43.2393C34.5283 43.4097 34.306 43.4939 34.0859 43.4939C33.8636 43.4939 33.6413 43.4097 33.4718 43.2393L31.374 41.1273H31.3718C31.2552 41.1672 25.1138 41.3908 25.1138 41.3908C24.3236 41.4151 23.7051 42.0616 23.7051 42.8541C23.7051 43.7086 24.3588 44.3639 25.1623 44.3639H40.0577C40.1788 44.3639 40.2845 44.2886 40.3263 44.1757L41.4247 41.1893ZM18.9769 40.7754L24.4975 24.2584C24.6604 23.7692 24.612 23.2401 24.3126 22.8018C23.6985 21.9052 22.5979 21.7503 22.2105 21.7525C20.969 21.7613 20.2492 22.3546 19.9829 23.2202L15.4176 37.9506C14.9862 39.3364 13.5928 40.3038 12.0256 40.3038H10.3174C9.27187 40.3038 8.42441 41.0211 8.42441 41.9V42.19C8.42441 43.0688 9.27187 43.7861 10.3174 43.7861H14.3852C16.4962 43.7861 18.3848 42.5464 18.9769 40.7754ZM8.36277 18.6266C10.3064 18.6266 13.6632 17.6083 16.9034 16.4239C20.0423 15.2794 24.7242 13.2516 24.7793 13.2295L21.5413 7.64856L7.74424 10.5575C7.69141 10.6615 4.64716 14.6618 4.58773 14.7083L4.93112 16.2845C5.18425 16.9375 6.7537 18.6266 8.36277 18.6266ZM4.09026 12.4259C4.09026 12.4259 4.61194 11.6156 4.94432 11.1485C4.73741 11.1441 4.37862 11.1552 4.1607 11.4629C3.88115 11.8547 4.04844 12.2156 4.09026 12.4259ZM19.0121 2.84026L18.365 6.54168L20.6806 6.05244L19.0121 2.84026ZM32.1429 32.4686C32.1429 33.3626 31.4141 34.0909 30.5195 34.0909C29.6248 34.0909 28.8961 33.3626 28.8961 32.4686C28.8961 31.5724 29.6248 30.8442 30.5195 30.8442C31.4141 30.8442 32.1429 31.5724 32.1429 32.4686Z" fill="#0059E3"/>
</svg>
