<svg width="50" height="55" viewBox="0 0 50 55" fill="none" xmlns="http://www.w3.org/2000/svg">
<path fill-rule="evenodd" clip-rule="evenodd" d="M45.712 14.3654C43.9984 14.3654 42.4538 15.3862 41.7698 16.9641C41.7597 16.9945 41.7446 17.0249 41.732 17.0553C41.2171 16.9793 40.7023 16.8856 40.1925 16.7767C40.2126 16.108 40.2505 15.4368 40.3085 14.7681L40.6972 10.2775C41.5048 10.1939 42.2822 9.91531 42.9712 9.46447C45.3183 7.92706 46.0275 4.74587 44.4627 2.33464C42.8955 -0.0664507 39.7129 -0.704716 37.3557 0.837758C34.9858 2.39036 34.317 5.59182 35.8666 7.97012C35.9247 8.0613 35.9878 8.15248 36.0534 8.2386C34.4987 9.99129 32.7775 11.5768 30.9225 12.9749C30.183 12.5038 28.8025 11.3818 28.8151 11.3463C29.7514 9.16813 28.7495 6.62774 26.5765 5.68807C24.4514 4.76106 21.8948 5.7134 20.9383 7.93213C20.0019 10.1103 21.0064 12.6507 23.1769 13.5904C23.7927 13.8589 24.4514 13.9729 25.1227 13.9374L25.7941 16.1865C24.1662 17.0249 22.4702 17.7315 20.7187 18.3039C20.6632 18.2052 20.6051 18.1089 20.542 18.0152C19.5905 16.5538 17.9829 15.68 16.2389 15.68C13.8691 15.68 11.7289 17.3339 11.2216 19.773C10.5502 22.9643 12.9756 25.9834 16.249 25.9834C18.1469 25.9834 19.8934 24.9272 20.7818 23.2429L24.1284 24.2535C25.1101 24.5523 26.0742 24.8917 27.0207 25.2691C27.008 25.6592 26.8768 27.5588 26.8768 27.5588C25.5745 27.8678 24.4691 28.7771 23.9265 30.0435C22.9876 32.2217 23.9921 34.7595 26.16 35.6992C28.3255 36.6389 30.8569 35.646 31.8008 33.4577C32.356 32.1659 32.2475 30.7248 31.556 29.5572L32.8431 28.2705C33.729 28.8404 34.5921 29.4482 35.43 30.0966L36.702 31.0819C36.0685 32.6345 36.2174 34.4227 37.1538 35.8588C38.711 38.2497 41.891 38.9057 44.2608 37.3556C46.6282 35.8005 47.297 32.6016 45.7499 30.2233C44.8085 28.7796 43.2261 27.9108 41.5074 27.8906L40.884 24.8183C40.7376 24.0914 40.6114 23.3619 40.5105 22.63L42.5118 21.5383C43.3169 22.44 44.4678 22.9744 45.707 22.9744C48.2182 22.9744 50.1413 20.8418 49.9899 18.4103C49.8486 16.108 47.9431 14.3654 45.712 14.3654ZM29.1129 14.2515C28.6309 14.5706 28.1387 14.8796 27.639 15.1734L26.8566 12.5545C27.3917 12.9851 28.068 13.5397 29.1129 14.2515ZM25.5417 11.7794C25.0319 11.9365 24.4817 11.9086 23.9921 11.6959C22.8639 11.207 22.3415 9.88491 22.8286 8.75275C23.3132 7.62566 24.618 7.0887 25.7613 7.5826C27.1317 8.17527 27.5279 9.91531 26.6194 11.0399C26.4503 11.2526 26.372 11.5262 26.3998 11.7997C26.4023 11.8352 26.4099 11.8706 26.4175 11.9086C26.3897 11.8858 26.3594 11.8706 26.3291 11.8529C26.0818 11.7212 25.7941 11.7009 25.5417 11.7794ZM29.4688 28.734C29.07 29.1342 29.0675 29.78 29.4587 30.1853C30.0947 30.8362 30.2739 31.7987 29.9104 32.637C29.4259 33.7641 28.121 34.2986 26.9778 33.8047C25.8496 33.3133 25.3272 31.9937 25.8143 30.8615C26.1651 30.046 26.9651 29.5141 27.8485 29.5065C28.386 29.504 28.8302 29.0886 28.8681 28.5516C29.0347 26.2671 29.0296 26.3785 29.0397 26.1581C29.711 26.4747 30.3698 26.8167 31.0184 27.1789L29.4688 28.734ZM40.8739 30.0131C42.0828 29.7775 43.3497 30.317 44.0261 31.3554C44.9524 32.7789 44.5536 34.6962 43.1327 35.6257C41.7093 36.5578 39.8038 36.1576 38.8775 34.7317C38.2087 33.7059 38.2087 32.3812 38.875 31.3529C39.1678 30.9021 39.0643 30.2993 38.6403 29.9725L36.6894 28.463C33.0955 25.6794 29.07 23.5975 24.724 22.2779L20.484 20.9938C19.9439 20.8342 19.3609 21.1356 19.1968 21.6928C18.8183 23.0099 17.6119 23.9191 16.249 23.9191C14.3006 23.9191 12.8318 22.1285 13.2356 20.1985C13.5435 18.7142 14.8483 17.7442 16.2389 17.7442C17.2863 17.7442 18.2504 18.2685 18.8208 19.1423C18.9722 19.3804 19.0934 19.6311 19.1766 19.8869C19.3457 20.4188 19.9136 20.7304 20.4714 20.5531L21.1276 20.3403C27.9494 18.1596 33.469 14.3376 38.2062 8.90979C38.5772 8.48174 38.5394 7.83841 38.1179 7.45849C37.916 7.27866 37.7393 7.07097 37.5879 6.84049C36.6591 5.41452 37.0604 3.4972 38.4813 2.56766C39.9073 1.63559 41.8102 2.0383 42.739 3.46427C43.6627 4.88264 43.274 6.79743 41.8456 7.7371C41.255 8.12209 40.5534 8.29432 39.8543 8.2234C39.294 8.16768 38.7791 8.57799 38.7261 9.16307L38.2592 14.5909C37.9513 18.1469 38.1583 21.7283 38.87 25.2311L39.6725 29.2026C39.7861 29.7572 40.3186 30.1144 40.8739 30.0131ZM40.2783 20.4087C40.2379 19.9021 40.2101 19.393 40.195 18.8814C41.1439 19.0714 42.2796 19.2259 42.4412 19.236C42.368 19.2613 40.3515 20.3682 40.2783 20.4087ZM45.707 20.9102C44.8539 20.9102 44.1069 20.4214 43.7334 19.7122C43.6046 19.469 43.3851 19.2841 43.1226 19.2056C43.0393 19.1803 42.951 19.1651 42.8626 19.1626C43.1907 19.0283 43.4431 18.7294 43.4986 18.3546C43.6602 17.2402 44.6041 16.4297 45.712 16.4297C46.8578 16.4297 47.8522 17.3187 47.9355 18.5192C48.0238 19.8008 47.0093 20.9102 45.707 20.9102Z" fill="#0059E3"/>
<path fill-rule="evenodd" clip-rule="evenodd" d="M23.0694 43.6433C22.0434 43.1927 20.8401 43.2455 19.8749 43.7465C19.8749 43.7465 18.1397 41.9667 17.8838 41.6822L18.3297 40.8742C18.6767 40.9321 19.0364 40.9346 19.386 40.8742C21.1314 40.5847 22.2461 38.9458 21.9598 37.2919C21.6786 35.6153 20.1232 34.4372 18.3474 34.7342C16.7286 35.0086 15.6064 36.4813 15.7508 38.0975C15.6317 38.1478 15.5076 38.2007 15.3835 38.251C15.0364 37.6569 15.044 37.6619 13.6963 35.137C14.0408 34.8072 14.322 34.412 14.5146 33.974C15.5988 31.5724 13.8179 28.8359 11.158 28.8359C8.57913 28.8359 6.80838 31.4062 7.72036 33.7927C8.06488 34.6839 8.72606 35.3913 9.60004 35.8016C9.38218 37.0678 9.05792 38.3165 8.62727 39.5248C8.24728 39.5223 7.86729 39.5072 7.49236 39.477C7.11998 37.9212 5.62535 36.8539 3.92553 37.1383C2.22825 37.4253 1.07562 39.0339 1.35681 40.7281C1.64813 42.4022 3.24662 43.5703 4.9667 43.2783C5.35429 43.2153 5.72162 43.0794 6.05094 42.8856L6.75265 43.4771C6.25613 44.3054 5.70895 45.0984 5.11617 45.8435C4.66018 45.6497 4.17633 45.5515 3.68487 45.5515C2.23585 45.5515 0.913487 46.4024 0.315638 47.7265C-0.515272 49.5944 0.358703 51.7393 2.18265 52.5423C4.04966 53.3781 6.22827 52.5247 7.04144 50.692C7.25424 50.2162 7.36063 49.7052 7.3581 49.1916C7.3581 49.1916 10.3195 48.3659 10.8743 48.2552C10.9553 48.3886 11.0313 48.5271 11.1073 48.6655L11.3328 49.0658C10.7805 49.748 10.5323 50.6442 10.6843 51.5303C10.9604 53.1817 12.5057 54.3725 14.2967 54.088C15.994 53.801 17.1466 52.1949 16.8654 50.4982C16.7109 49.5995 16.1764 48.8342 15.424 48.371L15.5481 47.792C16.0979 47.797 18.0231 47.9279 18.0231 47.9279C18.3069 48.9802 19.0542 49.8713 20.0801 50.3194C21.9395 51.1527 24.1207 50.3094 24.9389 48.4666C25.7572 46.6264 24.9187 44.464 23.0694 43.6433ZM4.44992 41.2895C3.847 41.2895 3.36062 40.8037 3.36062 40.207C3.36062 39.6104 3.847 39.1271 4.44992 39.1271C5.0503 39.1271 5.53669 39.6104 5.53669 40.207C5.53669 40.8037 5.0503 41.2895 4.44992 41.2895ZM3.67981 50.8355C2.7729 50.8355 2.03825 50.1055 2.03825 49.2042C2.03825 48.303 2.7729 47.573 3.67981 47.573C4.58671 47.573 5.32136 48.303 5.32136 49.2042C5.32136 50.1055 4.58671 50.8355 3.67981 50.8355ZM18.8667 36.723C19.4696 36.723 19.956 37.2088 19.956 37.8054C19.956 38.4021 19.4696 38.8854 18.8667 38.8854C18.2663 38.8854 17.7799 38.4021 17.7799 37.8054C17.7799 37.2088 18.2663 36.723 18.8667 36.723ZM9.51391 32.4912C9.51391 31.59 10.2486 30.8599 11.1555 30.8599C12.0624 30.8599 12.797 31.59 12.797 32.4912C12.797 33.3924 12.0624 34.1225 11.1555 34.1225C10.2486 34.1225 9.51391 33.3924 9.51391 32.4912ZM13.7749 52.1043C13.1745 52.1043 12.6881 51.6209 12.6881 51.0243C12.6881 50.4277 13.1745 49.9444 13.7749 49.9444C14.3752 49.9444 14.8616 50.4277 14.8616 51.0243C14.8616 51.6209 14.3752 52.1043 13.7749 52.1043ZM14.6767 45.7529C14.1928 45.7705 13.785 46.1179 13.6963 46.5912C13.6913 46.6315 13.3113 48.381 13.3113 48.381C13.3113 48.381 12.4753 46.9033 12.2473 46.5584C12.0244 46.211 11.6165 46.0373 11.2061 46.1053C10.3423 46.2513 6.61332 47.2709 6.61332 47.2709C7.49236 46.1783 8.28781 44.9951 8.97432 43.749C9.18965 43.3563 9.12378 42.8679 8.80713 42.5457C8.69566 42.4299 7.65449 41.5463 7.65449 41.5463C8.22701 41.579 8.80459 41.5866 9.37964 41.5715C9.7951 41.5564 10.1624 41.2996 10.3119 40.9169C10.9579 39.263 11.424 37.5336 11.695 35.7689C11.695 35.7689 13.7217 39.5072 14.0839 40.0661C14.3448 40.4689 14.849 40.64 15.3024 40.4789C15.69 40.3405 16.07 40.1919 16.4373 40.0384L15.7305 41.3197C15.5253 41.6923 15.5709 42.148 15.8445 42.4727C16.265 42.9737 18.8312 45.7529 18.8312 45.7529C18.8312 45.7529 14.9326 45.7453 14.6767 45.7529ZM21.5874 48.6177C20.6805 48.6177 19.9459 47.8876 19.9459 46.9864C19.9459 46.0852 20.6805 45.3551 21.5874 45.3551C22.4943 45.3551 23.229 46.0852 23.229 46.9864C23.229 47.8876 22.4943 48.6177 21.5874 48.6177Z" fill="#0059E3"/>
</svg>
