<svg width="50" height="47" viewBox="0 0 50 47" fill="none" xmlns="http://www.w3.org/2000/svg">
<path fill-rule="evenodd" clip-rule="evenodd" d="M16.4577 46.2164C16.2342 46.2164 16.0107 46.1407 15.8289 45.9917L6.45782 38.3222C2.35321 34.9613 0 30.086 0 24.947V2.37567C0 1.87984 0.370913 1.45973 0.864645 1.39866L6.93927 0.634156C13.2497 -0.162105 19.6559 -0.208513 25.9787 0.494932L34.097 1.39622C34.6399 1.45728 35.0304 1.94335 34.969 2.48314C34.9101 3.02294 34.4188 3.41374 33.8759 3.35268L25.7576 2.45139C19.5921 1.76504 13.3431 1.81145 7.18737 2.58573L1.97984 3.24277V24.947C1.97984 29.495 4.07022 33.8158 7.71549 36.8005L16.4946 43.9864L26.4675 36.7834C26.9096 36.4635 27.5286 36.5612 27.8504 37.0008C28.1698 37.4405 28.074 38.056 27.6318 38.376L17.0399 46.0284C16.8655 46.1529 16.6616 46.2164 16.4577 46.2164Z" fill="#0059E3"/>
<path fill-rule="evenodd" clip-rule="evenodd" d="M43.4445 11.2469C43.0892 11.2469 42.6488 11.0641 42.4636 10.7546L40.8797 8.25685V10.1844C40.8797 10.7254 40.4568 11.2469 39.8988 11.2469C39.3433 11.2469 38.918 10.7254 38.918 10.1844V4.58693C38.918 3.96553 39.1031 3.62681 39.7137 3.47329C40.1566 3.36363 40.607 3.37094 41.1049 4.09713L42.8414 6.59491V4.29207C42.8414 3.74865 43.1567 3.47329 43.7122 3.47329C44.2702 3.47329 44.583 3.74865 44.583 4.29207V10.2648C44.583 10.7083 44.1151 11.1616 43.4445 11.2469Z" fill="#0059E3"/>
<path fill-rule="evenodd" clip-rule="evenodd" d="M43.9753 23.9656C43.6225 23.9656 43.1596 23.7829 42.9744 23.4734L41.368 20.9756V22.9032C41.368 23.4441 40.9451 23.9656 40.3871 23.9656C39.8316 23.9656 39.4062 23.4441 39.4062 22.9032V17.3057C39.6264 16.6843 39.634 16.3456 40.247 16.192C40.6874 16.0824 41.1178 16.0897 41.6157 16.8159L43.3297 19.3137V17.0108C43.3297 16.4674 43.645 16.192 44.2005 16.192C44.7585 16.192 45.0713 16.4674 45.0713 17.0108V22.9836C45.0713 23.4271 44.6484 23.8803 43.9753 23.9656Z" fill="#0059E3"/>
<path fill-rule="evenodd" clip-rule="evenodd" d="M47.4316 11.4922H47.3996C45.9808 11.4922 44.8281 10.2374 44.8281 8.69395V5.73183C44.8281 4.1884 45.9808 2.93359 47.3996 2.93359C48.8478 2.93359 50.0005 4.1884 50.0005 5.73183V8.69395C50.0005 10.2374 48.8478 11.4922 47.4316 11.4922ZM47.4316 4.90508C47.0867 4.90508 46.8133 5.29155 46.8133 5.73183V8.69395C46.8133 9.13424 47.0867 9.52071 47.3996 9.52071H47.4316C47.7419 9.52071 48.0153 9.13424 48.0153 8.69395V5.73183C48.0153 5.29155 47.7419 4.90508 47.4316 4.90508Z" fill="#0059E3"/>
<path fill-rule="evenodd" clip-rule="evenodd" d="M12.8089 29.1216V34.4566C12.8089 35.0102 12.4169 35.457 11.8739 35.457C11.3333 35.457 10.9412 35.0102 10.9412 34.4566V32.7064H9.75293V34.4566C9.75293 35.0102 9.35845 35.457 8.81787 35.457C8.27486 35.457 7.88281 35.0102 7.88281 34.4566V29.1216C7.88281 28.568 8.27486 28.1211 8.81787 28.1211C9.35845 28.1211 9.75293 28.568 9.75293 29.1216V30.2834H10.9412V29.1216C10.9412 28.568 11.3333 28.1211 11.8739 28.1211C12.4169 28.1211 12.8089 28.568 12.8089 29.1216Z" fill="#0059E3"/>
<path fill-rule="evenodd" clip-rule="evenodd" d="M29.7265 21.3204L26.1024 27.4189L29.6136 33.726H37.3108C37.858 33.7309 38.2947 34.3 38.2898 34.8446C38.2849 35.3892 37.8432 35.9461 37.301 35.9461H29.0223C28.6689 35.9412 28.345 35.4947 28.1708 35.1832L24.4707 28.5351H17.1145L15.3283 31.5133C15.0534 31.9769 14.4376 32.1192 13.9738 31.8469C13.5052 31.5721 13.3457 30.9662 13.6229 30.4952L14.4768 29.0429L10.7669 23.6975C10.4552 23.251 10.5657 22.6328 11.0147 22.3237C11.4637 22.0122 12.0796 22.1226 12.3912 22.5715L15.581 27.1613L15.6988 26.9602C15.8435 26.7124 16.0742 26.5382 16.3588 26.4867L13.2328 21.9852C12.9236 21.5363 13.0341 20.9205 13.4831 20.609C13.9297 20.2999 14.5455 20.4103 14.8571 20.8592C14.8571 20.8592 18.707 26.445 18.734 26.5162H24.3333L27.9696 20.3416L25.2902 15.5849H18.783C18.2359 15.5849 17.7942 15.1899 17.7942 14.6429C17.7942 14.0983 18.2359 13.7033 18.783 13.7033H24.2302L24.1026 13.4752C23.9284 13.1685 23.9333 12.7981 24.11 12.4939L24.4044 11.991H18.783C18.2359 11.991 17.7942 11.596 17.7942 11.0514C17.7942 10.5044 18.2359 10.1143 18.783 10.1143C18.783 10.1143 25.462 10.1094 25.5037 10.1143L28.3107 5.34049C28.4898 5.0363 28.8358 4.87684 29.1744 4.89156H37.4408C37.988 4.89647 38.4272 5.44107 38.4223 5.98812C38.4174 6.53272 37.9757 6.98656 37.4335 6.98656H29.7265L26.1024 13.0385L29.6136 19.3235H37.3108C37.3869 19.3235 37.458 19.3309 37.5292 19.348C38.0346 19.3971 38.4272 19.8239 38.4223 20.3391C38.4174 20.8862 37.9708 21.3179 37.4237 21.3204H29.7265Z" fill="#0059E3"/>
</svg>
