<svg width="50" height="50" viewBox="0 0 50 50" fill="none" xmlns="http://www.w3.org/2000/svg">
<path fill-rule="evenodd" clip-rule="evenodd" d="M48.9587 17.0513C49.5005 17.0513 50 17.5492 50 18.0943V49.0142C50 49.5569 49.5005 50 48.9587 50H5.61389C5.07214 50 4.55524 49.5569 4.55524 49.0142V34.9072L0.594012 33.1796C0.233675 33.0253 7.69813e-05 32.6668 7.69813e-05 32.2735C7.69813e-05 32.2735 0.00256207 9.02323 7.69813e-05 8.90125C-0.00489319 8.50047 0.23119 8.13703 0.596497 7.97522L18.4046 0.0840609C18.6407 -0.0204908 18.9091 -0.0279587 19.1526 0.0641463L40.1392 8.05986C40.5169 8.20424 40.7629 8.5627 40.7729 8.96348C40.7729 9.00082 40.7729 17.0513 40.7729 17.0513H48.9587ZM18.8321 2.05312L3.55375 8.93112L21.4861 15.7394L37.162 8.93112L18.8321 2.05312ZM38.8072 10.477L23.4916 17.0513H38.8072V10.477ZM4.55524 18.0943C4.55524 17.5492 5.07214 17.0513 5.61389 17.0513H19.1501L2.013 10.3451V31.706L4.55524 32.8261V18.0943ZM6.50355 48.0484H48.0542V19.0029H6.50355V48.0484ZM12.1335 28.3377L19.8358 24.8666C20.0712 24.7613 20.3414 24.7538 20.5817 24.8465L25.7389 26.8114V24.8189C25.7389 23.0922 27.2556 21.6912 29.1217 21.6912H39.6319C41.4955 21.6912 43.0147 23.0922 43.0147 24.8189V30.9341C43.0147 32.6609 41.4955 34.0644 39.6319 34.0644H33.0398L30.6458 35.1245V39.726C30.6458 40.1069 30.4005 40.4553 30.0536 40.6157L21.8333 44.4226C21.7044 44.5003 21.1443 44.5078 21.0204 44.4327L15.3973 41.9991L14.4531 43.9114C14.287 44.2472 13.9475 44.4853 13.5758 44.4853H8.33432C7.79159 44.4853 7.35294 44.0517 7.35294 43.5029C7.35294 42.9565 7.79159 42.5204 8.33432 42.5204H12.9661L13.6055 41.2247L12.2251 40.6282C11.8633 40.4703 11.6552 40.1169 11.6552 39.726V28.8038C11.7543 28.6008 11.9203 28.4329 12.1335 28.3377ZM20.0712 41.8688V33.2699L13.5981 30.7286V39.0819L14.4729 39.4603L16.624 35.0819C16.8669 34.5907 17.4567 34.3727 17.9424 34.6158C18.4282 34.8614 18.6239 35.4478 18.3836 35.9391L16.2696 40.2322L20.0712 41.8688ZM21.3624 31.6434L25.7389 29.7337V28.9392L20.267 26.849L15.0875 29.1823L21.3624 31.6434ZM28.7029 39.0994V35.9867L27.3448 36.5907C27.1838 36.6609 27.0128 36.6985 26.8343 36.6985C26.4081 36.6985 26.0041 36.4754 25.7761 36.117C25.558 35.7686 25.5308 35.3401 25.7043 34.9641L26.5964 33.0218C26.2643 32.6785 26.0215 32.275 25.8802 31.8339L22.0142 33.5206V42.1946L28.7029 39.0994ZM41.0495 30.9341V24.8189C41.0495 24.1899 40.4126 23.6786 39.6319 23.6786H29.1217C28.3386 23.6786 27.7042 24.1899 27.7042 24.8189V30.9341C27.7042 31.3 27.9297 31.6459 28.3039 31.8639C28.7475 32.1196 28.9235 32.676 28.7079 33.1446L28.3188 33.9892L32.4376 32.1622C32.5615 32.1045 32.6953 32.077 32.8316 32.077H39.6319C40.4126 32.077 41.0495 31.5657 41.0495 30.9341Z" fill="#0059E3"/>
</svg>
