<svg width="50" height="50" viewBox="0 0 50 50" fill="none" xmlns="http://www.w3.org/2000/svg">
<path fill-rule="evenodd" clip-rule="evenodd" d="M49.3409 22.4706C50.5127 20.7711 50.0803 18.4398 48.3754 17.2742C47.749 16.8432 47.0145 16.6155 46.2529 16.6155C45.8083 16.6155 45.3734 16.6938 44.9681 16.8408L43.5187 13.8385C44.0444 13.5594 44.5038 13.1602 44.8526 12.6558C46.022 10.9563 45.5896 8.62503 43.8872 7.45695C42.2953 6.36478 40.1605 6.66844 38.9248 8.09364C38.5907 7.42756 38.092 6.85454 37.4607 6.41866C36.8612 6.00971 36.1832 5.75503 35.4708 5.66932C35.9326 4.15107 35.3873 2.4467 34.0116 1.50146C32.2968 0.328485 29.9631 0.769269 28.7962 2.46384C28.5284 2.85075 28.3441 3.27439 28.241 3.70783H28.2385L24.6543 3.38459C24.5536 2.32181 24.0008 1.31045 23.0501 0.659073C21.3379 -0.516352 19.0041 -0.0731191 17.8372 1.619C17.2697 2.43935 17.0781 3.40908 17.2279 4.32493C15.8866 4.34207 14.6288 4.95672 13.7985 5.99257C13.5627 5.68646 13.2777 5.4122 12.9411 5.18201C12.3123 4.75102 11.5802 4.52328 10.8186 4.52328C9.58295 4.52328 8.42588 5.13059 7.7282 6.14194C6.65712 7.69693 6.92735 9.78331 8.28586 11.0175L6.01103 14.316C5.54181 14.1079 5.03084 14.0026 4.50758 14.0026C3.27435 14.0026 2.11729 14.6075 1.41715 15.6213C0.245343 17.3183 0.677707 19.652 2.3826 20.8176C2.65283 21.0062 2.94517 21.1531 3.24979 21.2609C3.21048 21.3147 3.17118 21.3661 3.13433 21.42C2.45876 22.402 2.20572 23.5872 2.42191 24.7553C2.44402 24.8753 2.47104 24.9928 2.50298 25.1079C1.76353 25.3675 1.11253 25.8548 0.658055 26.5135C-0.511296 28.2106 -0.0813878 30.5443 1.62351 31.7123C2.2524 32.1433 2.98693 32.3686 3.74357 32.3686C4.02117 32.3686 4.29385 32.3392 4.55671 32.2829L6.30582 35.961C6.06262 36.1692 5.84398 36.4091 5.65973 36.6785C4.48792 38.3755 4.92029 40.7068 6.62273 41.8749C7.25162 42.3059 7.98615 42.5336 8.74524 42.5336C9.35694 42.5336 9.94899 42.3842 10.4747 42.11C10.8039 42.6854 11.2584 43.185 11.8234 43.5719C12.5432 44.0617 13.3784 44.3335 14.2481 44.3531C13.9631 45.7758 14.5257 47.2941 15.7982 48.1658C16.4246 48.5968 17.1592 48.8246 17.9183 48.8246C19.1564 48.8246 20.311 48.2197 21.0111 47.2059C21.2052 46.9243 21.3575 46.6231 21.4632 46.317L24.6371 46.5349C24.7157 47.6271 25.2734 48.6752 26.2487 49.3413C26.8751 49.7723 27.6096 50 28.3687 50C29.6068 50 30.7615 49.3976 31.4616 48.3813C31.9603 47.6589 32.1666 46.8215 32.1101 46.0084C32.2477 46.0207 32.3853 46.0256 32.5229 46.0256C33.9968 46.0256 35.3725 45.3056 36.2078 44.0984C36.2471 44.0421 36.2815 43.9882 36.3159 43.9319C36.5222 44.1718 36.7654 44.3922 37.0406 44.5832C37.6695 45.0142 38.4015 45.2395 39.1631 45.2395C40.3988 45.2395 41.5558 44.6347 42.256 43.6184C43.3615 42.0218 43.0372 39.8571 41.5706 38.64L43.644 35.6353C44.2041 35.9488 44.8281 36.1104 45.4742 36.1104C46.7098 36.1104 47.8644 35.508 48.567 34.4917C49.1345 33.6714 49.3433 32.6772 49.164 31.6927C48.9797 30.7108 48.427 29.861 47.6016 29.2929C47.3264 29.1068 47.0341 28.9574 46.727 28.8497C47.7097 27.3584 47.6753 25.4826 46.7835 24.05C47.8129 23.9031 48.7439 23.3374 49.3409 22.4706ZM41.7597 8.71319C42.767 8.71319 43.5826 9.52619 43.5826 10.5302C43.5826 11.5318 42.767 12.3472 41.7597 12.3472C40.755 12.3472 39.9394 11.5318 39.9394 10.5302C39.9394 9.52619 40.755 8.71319 41.7597 8.71319ZM38.6079 12.6141C38.6153 12.6043 38.6202 12.5945 38.6276 12.5847C39.254 13.5447 40.3374 14.2132 41.5853 14.2695L43.3688 17.9672C42.4623 18.9982 42.2216 20.6193 42.8628 21.9539C42.396 21.9661 41.9391 22.0518 41.5092 22.2061L37.4951 13.7332C37.925 13.4345 38.3033 13.0574 38.6079 12.6141ZM34.9279 7.5549C36.3331 7.5549 37.4705 8.6887 37.4705 10.0894C37.4705 11.4901 36.3331 12.6239 34.9279 12.6239C33.5227 12.6239 32.3853 11.4901 32.3853 10.0894C32.3853 8.6887 33.5227 7.5549 34.9279 7.5549ZM31.8841 2.75525C32.8913 2.75525 33.7069 3.56825 33.7069 4.57226C33.7069 5.57627 32.8913 6.38927 31.8841 6.38927C30.8769 6.38927 30.0613 5.57627 30.0613 4.57226C30.0613 3.56825 30.8769 2.75525 31.8841 2.75525ZM24.3374 5.28976L28.2926 5.64483C28.6758 6.92801 29.6904 7.85855 30.8892 8.18424C30.7394 8.49279 30.6313 8.81604 30.5625 9.14173L21.7383 8.4781C21.7137 8.12057 21.6449 7.7655 21.5369 7.42511C22.7701 7.22186 23.8166 6.42111 24.3374 5.28976ZM20.9252 1.91286C21.9324 1.91286 22.748 2.72586 22.748 3.72987C22.748 4.73143 21.9324 5.54688 20.9252 5.54688C19.9179 5.54688 19.1023 4.73143 19.1023 3.72987C19.1023 2.72586 19.9179 1.91286 20.9252 1.91286ZM17.282 6.24234C18.6872 6.24234 19.8246 7.37859 19.8246 8.77685C19.8246 10.1776 18.6872 11.3114 17.282 11.3114C15.8768 11.3114 14.7394 10.1776 14.7394 8.77685C14.7394 7.37859 15.8768 6.24234 17.282 6.24234ZM15.5845 12.8957C16.7686 13.3855 18.159 13.3488 19.3603 12.7194C20.3036 12.2272 21.0529 11.4044 21.4484 10.3857L30.5723 11.0738C30.8106 12.1268 31.4321 13.099 32.3951 13.7577C33.4023 14.4483 34.6085 14.676 35.7115 14.4728L39.8583 23.2272C39.1582 23.9154 38.6742 24.8434 38.5539 25.8915C38.4212 27.0572 38.7528 28.2497 39.4997 29.1827L33.8814 37.3274C32.8938 37.0116 31.7711 37.0458 30.7516 37.4866C29.5847 37.9886 28.7249 38.9486 28.3294 40.0456L18.7879 39.3281C18.6135 38.0351 17.9207 36.9405 16.8889 36.2304C15.8547 35.5227 14.6092 35.2998 13.4546 35.5398L9.60506 27.422C10.6344 26.609 11.2854 25.3406 11.2829 23.9447C11.2805 22.8305 10.8604 21.7286 10.0694 20.8911L15.5845 12.8957ZM10.8162 6.4358C11.8234 6.4358 12.639 7.2488 12.639 8.25281C12.639 9.25437 11.8234 10.0698 10.8162 10.0698C9.80896 10.0698 8.99336 9.25437 8.99336 8.25281C8.99336 7.2488 9.80896 6.4358 10.8162 6.4358ZM10.0129 11.9138C11.1798 12.1709 12.467 11.8526 13.3956 10.971C13.5627 11.2673 13.7617 11.5464 14 11.7987L8.47256 19.8087C8.24164 19.7157 8.0058 19.6446 7.7626 19.5932C8.51186 18.2905 8.38658 16.6889 7.52185 15.5209L10.0129 11.9138ZM9.3594 23.9447C9.3594 25.3455 8.21953 26.4792 6.8168 26.4792C5.41161 26.4792 4.2742 25.3455 4.2742 23.9447C4.2742 22.5465 5.41161 21.4102 6.8168 21.4102C8.21953 21.4102 9.3594 22.5465 9.3594 23.9447ZM2.68476 17.7321C2.68476 16.7281 3.50036 15.9151 4.50758 15.9151C5.51233 15.9151 6.33039 16.7281 6.33039 17.7321C6.33039 18.7337 5.51233 19.5491 4.50758 19.5491C3.50036 19.5491 2.68476 18.7337 2.68476 17.7321ZM3.74848 30.4537C2.74127 30.4537 1.92567 29.6407 1.92567 28.6391C1.92567 27.7453 2.57422 27.0033 3.42421 26.8515C3.97203 27.4857 4.69428 27.9632 5.51725 28.213C5.55164 28.3501 5.56884 28.4922 5.56884 28.6391C5.56884 29.6407 4.75324 30.4537 3.74848 30.4537ZM9.95881 39.0416C9.87774 39.453 9.86055 39.8326 9.88757 40.2097C9.57558 40.457 9.18252 40.6039 8.75261 40.6039C7.7454 40.6039 6.9298 39.7909 6.9298 38.7894C6.9298 37.7854 7.7454 36.9724 8.75261 36.9724C9.43801 36.9724 10.035 37.3495 10.3445 37.9078C10.1701 38.2629 10.0374 38.6425 9.95881 39.0416ZM11.6146 36.3871C10.767 35.3806 9.41099 34.8664 8.04511 35.126L6.27143 31.394C7.11896 30.6275 7.57589 29.5109 7.48254 28.3477C7.61274 28.3281 7.74294 28.3036 7.87314 28.2718H7.8756L11.6907 36.3283C11.6907 36.3283 11.7251 36.5169 11.6146 36.3871ZM14.3562 42.4356C12.9534 42.4356 11.8136 41.2994 11.8136 39.9011C11.8136 38.5004 12.9534 37.3666 14.3562 37.3666C15.7613 37.3666 16.8988 38.5004 16.8988 39.9011C16.8988 41.2994 15.7613 42.4356 14.3562 42.4356ZM17.9232 46.8949C16.916 46.8949 16.1004 46.0819 16.1004 45.0804C16.1004 44.0763 16.916 43.2633 17.9232 43.2633C18.9304 43.2633 19.7435 44.0763 19.7435 45.0804C19.7435 46.0819 18.9304 46.8949 17.9232 46.8949ZM25.0007 44.6298L21.6032 44.3947C21.3035 42.7981 20.0359 41.652 18.5644 41.4047C18.584 41.3533 18.6012 41.2994 18.6184 41.2431L28.0764 41.9557C28.0887 42.0977 28.1525 42.4822 28.1648 42.5336C26.7768 42.6095 25.578 43.4372 25.0007 44.6298ZM28.3736 48.0728C27.3664 48.0728 26.5508 47.2598 26.5508 46.2558C26.5508 45.2518 27.3664 44.4388 28.3736 44.4388C29.3784 44.4388 30.194 45.2518 30.194 46.2558C30.194 47.2598 29.3784 48.0728 28.3736 48.0728ZM32.5253 44.1131C31.1201 44.1131 29.9827 42.9768 29.9827 41.5786C29.9827 40.1779 31.1201 39.0441 32.5253 39.0441C33.9305 39.0441 35.0679 40.1779 35.0679 41.5786C35.0679 42.9768 33.9305 44.1131 32.5253 44.1131ZM39.1656 43.3099C38.1608 43.3099 37.3427 42.4969 37.3427 41.4953C37.3427 40.4913 38.1608 39.6783 39.1656 39.6783C40.1728 39.6783 40.9884 40.4913 40.9884 41.4953C40.9884 42.4969 40.1728 43.3099 39.1656 43.3099ZM39.7944 37.8172C38.4826 37.5944 37.1266 38.0841 36.2667 39.1371C36.0678 38.8335 35.8319 38.5518 35.5568 38.2996L41.008 30.3973C41.3544 30.5663 41.7155 30.6912 42.0914 30.7671C41.546 31.9033 41.6271 33.2184 42.2462 34.2689L39.7944 37.8172ZM42.993 28.9378C41.5878 28.9378 40.4479 27.8041 40.4479 26.4033C40.4479 25.0051 41.5878 23.8688 42.993 23.8688C44.3957 23.8688 45.5356 25.0051 45.5356 26.4033C45.5356 27.8041 44.3957 28.9378 42.993 28.9378ZM47.2994 32.3662C47.2994 33.3677 46.4838 34.1807 45.4766 34.1807C44.4694 34.1807 43.6538 33.3677 43.6538 32.3662C43.6538 31.3622 44.4694 30.5492 45.4766 30.5492C46.4838 30.5492 47.2994 31.3622 47.2994 32.3662ZM46.2504 22.1596C45.2457 22.1596 44.4276 21.3466 44.4276 20.3426C44.4276 19.341 45.2457 18.528 46.2504 18.528C47.2577 18.528 48.0733 19.341 48.0733 20.3426C48.0733 21.3466 47.2577 22.1596 46.2504 22.1596Z" fill="#0059E3"/>
</svg>
