<svg width="50" height="48" viewBox="0 0 50 48" fill="none" xmlns="http://www.w3.org/2000/svg">
<path fill-rule="evenodd" clip-rule="evenodd" d="M45.4219 4.85453C45.4219 5.88486 44.5798 6.72277 43.5417 6.72277C42.5056 6.72277 41.6615 5.88486 41.6615 4.85453C41.6615 3.82419 42.5056 2.98628 43.5417 2.98628C44.5798 2.98628 45.4219 3.82419 45.4219 4.85453ZM41.9496 39.9567C41.9307 41.5107 40.2318 45.3081 40.2318 45.3349V46.5211C40.2318 47.0424 39.807 47.4638 39.2812 47.4638C38.7581 47.4638 38.3326 47.0424 38.3326 46.5211V45.3349C38.3326 45.0353 38.3969 44.7406 38.5274 44.4653C39.0443 43.357 40.0419 40.7288 40.0505 39.9299C40.0679 38.7607 40.0505 31.1075 40.0505 31.1075C40.0505 30.1672 39.2567 30.2574 39.2567 30.2574V33.7211C39.2545 34.2399 38.8005 34.6588 38.2797 34.6588C38.277 34.6588 38.2748 34.6588 38.2748 34.6588C37.7492 34.6564 37.3264 34.2326 37.3286 33.7113V27.807C37.1935 27.2881 36.5275 27.3831 36.3139 27.4781V32.7443C36.3139 33.2656 35.8886 33.687 35.3628 33.687C34.8395 33.687 34.4143 33.2656 34.4143 32.7443C34.4143 32.7443 34.4228 26.5184 34.4076 26.4892C34.2553 26.1847 33.8524 25.9899 33.2712 26.2773V32.6444C33.2712 33.1657 32.846 33.5871 32.3226 33.5871C31.7976 33.5871 31.3743 33.1657 31.3743 32.6444V21.0476C31.3694 20.0977 30.3477 20.0124 30.3411 21.0915C30.3384 21.5835 30.3325 32.8831 30.3411 34.0377C30.3477 34.4226 30.3571 34.6588 30.3571 34.6759C30.3571 34.9511 30.2357 35.2118 30.026 35.392C29.819 35.5698 29.4813 35.7013 29.2098 35.6356C28.9862 35.582 28.612 35.392 28.4641 35.163C28.4641 35.163 27.6823 33.9427 27.6801 33.9378C26.9537 32.7808 25.8558 31.0319 25.0906 30.9857C24.9133 30.9735 24.7875 31.0539 24.7831 31.0587C24.6337 31.1586 24.7105 31.5118 24.8216 31.8114C24.8983 31.977 28.4067 37.8765 28.6544 38.4903C28.8253 38.9117 29.3874 40.5218 29.5878 40.9115C30.1756 42.0393 31.9852 44.0634 32.327 44.3947C32.537 44.5725 32.6647 44.8356 32.6647 45.1157V46.5211C32.6647 47.0424 32.2395 47.4638 31.7137 47.4638C31.1904 47.4638 30.7651 47.0424 30.7651 46.5211V45.4957C29.9196 44.6236 28.4192 42.7749 27.9005 41.7762C27.6354 41.2671 27.0501 39.5816 26.8919 39.1918C26.6807 38.6633 23.1209 32.6858 23.0375 32.4593C22.4009 30.7275 23.1552 29.8822 23.6783 29.5242C23.8495 29.4048 24.388 29.0663 25.1912 29.1052C26.5135 29.1807 27.5371 30.3231 28.4366 31.6311C28.4236 27.8532 28.4359 20.9648 28.4366 20.6701C28.4452 17.8689 33.2923 17.8836 33.2712 21.0476V24.2872C34.3843 24.0826 35.5338 24.5795 36.0725 25.5806C37.7909 25.225 39.2537 26.4039 39.2537 27.7168V28.3745C40.8458 28.4183 41.967 29.283 41.9496 31.1148C41.9496 31.1148 41.9648 38.7777 41.9496 39.9567ZM1.89936 8.60808H48.1009V1.88774H1.89936V8.60808ZM48.1671 0C49.1794 0 50 0.818425 50 1.82197V35.8962C50 36.9022 49.1794 37.7182 48.1671 37.7182H44.5391V35.8353H48.1009V10.5177H1.89936V35.8353H21.8927V37.7182H1.83314C0.822277 37.7182 0 36.9022 0 35.8962V1.82197C0 0.818425 0.822277 0 1.83314 0H48.1671ZM37.5008 4.85453C37.5008 5.88486 36.6564 6.72277 35.6206 6.72277C34.584 6.72277 33.7403 5.88486 33.7403 4.85453C33.7403 3.82419 34.584 2.98628 35.6206 2.98628C36.6564 2.98628 37.5008 3.82419 37.5008 4.85453ZM29.5892 4.85453C29.5892 5.88486 28.7456 6.72277 27.709 6.72277C26.6726 6.72277 25.8288 5.88486 25.8288 4.85453C25.8288 3.82419 26.6726 2.98628 27.709 2.98628C28.7456 2.98628 29.5892 3.82419 29.5892 4.85453ZM44.5391 14.7609V28.5547H42.6162V16.6705H7.1506V30.4644H5.4413V14.7609H44.5391Z" fill="#0059E3"/>
</svg>
