<svg width="25" height="27" viewBox="0 0 25 27" fill="none" xmlns="http://www.w3.org/2000/svg">
<path d="M19.2842 26.9195C19.244 26.9195 19.2104 26.9168 19.1836 26.9113C13.9446 25.6534 9.9369 23.201 6.17016 18.9553C2.76551 15.1183 0.748653 10.8149 0.00477773 5.79972C-0.108143 4.97817 1.79342 0.668754 4.34532 0.0761831C6.5727 -0.442695 8.53468 1.69103 10.1726 6.41374C10.6968 7.57969 9.82238 8.49911 9.11872 9.23857C8.07689 10.3335 7.5829 10.9607 8.6464 12.1595L13.2387 17.3353C14.298 18.5292 14.9904 18.137 16.2229 17.2792C17.0591 16.6972 18.0986 15.9741 19.1995 16.6489C23.7054 18.8838 25.6012 21.1162 24.8341 23.2835C24.0075 25.62 20.1552 26.9192 19.2839 26.9192L19.2842 26.9195ZM1.15117 5.67114C1.86483 10.4447 3.7911 14.5479 7.03891 18.2079C10.6217 22.2462 14.4265 24.5857 19.3653 25.7859C20.0803 25.6964 23.4462 24.4611 23.8095 22.6793C24.1097 21.2075 22.3277 19.4688 18.6559 17.6516L18.6028 17.6218C18.1893 17.3592 17.7627 17.5988 16.8881 18.2076C15.8027 18.9625 14.1627 20.1037 12.3702 18.0831L7.77785 12.9073C5.97794 10.8783 7.36168 9.42435 8.27718 8.46181C9.01534 7.68589 9.31748 7.29983 9.11208 6.86036L9.08996 6.8059C7.76275 2.9691 6.22802 0.963847 4.77087 1.15261C2.8642 1.40252 1.222 4.96764 1.15145 5.67127L1.15117 5.67114Z" fill="white"/>
</svg>
