<svg width="34" height="37" viewBox="0 0 34 37" fill="none" xmlns="http://www.w3.org/2000/svg">
<path d="M4.0172 8.668C6.23584 8.668 8.0344 6.7276 8.0344 4.334C8.0344 1.9404 6.23584 0 4.0172 0C1.79856 0 0 1.9404 0 4.334C0 6.7276 1.79856 8.668 4.0172 8.668Z" fill="white"/>
<path d="M11.8276 12.9536V36.9986H18.7475V25.1078C18.7475 21.9702 19.2947 18.9317 22.9006 18.9317C26.4569 18.9317 26.501 22.5189 26.501 25.3059V37.0006H33.4246V23.8144C33.4246 17.3371 32.1321 12.3594 25.1148 12.3594C21.7457 12.3594 19.4874 14.354 18.5639 16.2418H18.4703V12.9536H11.8276ZM0.550781 12.9536H7.48174V36.9986H0.550781V12.9536Z" fill="white"/>
</svg>
