<svg width="42" height="36" viewBox="0 0 42 36" fill="none" xmlns="http://www.w3.org/2000/svg">
<path d="M37.2169 8.97181C37.2443 9.3665 37.2443 9.75893 37.2443 10.1514C37.2443 22.1611 28.6899 36 13.0564 36C8.23993 36 3.76538 34.5092 0 31.9201C0.683847 32.0035 1.34237 32.0328 2.05365 32.0328C5.88022 32.0427 9.59843 30.6754 12.609 28.1514C10.8348 28.117 9.11495 27.4916 7.68956 26.3623C6.26416 25.233 5.20438 23.6562 4.65818 21.8521C5.18373 21.9356 5.71139 21.992 6.26437 21.992C7.02631 21.992 7.79248 21.8792 8.50376 21.683C6.57835 21.2676 4.84702 20.1524 3.60417 18.527C2.36131 16.9017 1.68364 14.8665 1.6864 12.7676V12.6548C2.81981 13.3292 4.13474 13.7509 5.52776 13.8073C4.36077 12.9786 3.40387 11.8542 2.74244 10.5343C2.081 9.21439 1.73561 7.74006 1.73706 6.24283C1.73706 4.55582 2.15707 3.00865 2.89369 1.65994C5.02994 4.46791 7.69434 6.76508 10.7143 8.40269C13.7343 10.0403 17.0425 10.9818 20.4246 11.1663C20.2938 10.4897 20.2136 9.78825 20.2136 9.08458C20.213 7.89141 20.4325 6.70982 20.8596 5.60736C21.2867 4.5049 21.9129 3.50319 22.7024 2.65949C23.492 1.81579 24.4294 1.14665 25.4611 0.690316C26.4929 0.233983 27.5986 -0.000591759 28.7152 1.12105e-06C31.1636 1.12105e-06 33.3734 1.0961 34.9268 2.86881C36.8302 2.47552 38.6554 1.73307 40.3216 0.674352C39.6872 2.77367 38.3582 4.5538 36.5837 5.68124C38.2718 5.47551 39.9215 5.00115 41.4783 4.2739C40.3156 6.08517 38.8748 7.6735 37.2169 8.97181Z" fill="white"/>
</svg>
