<svg width="60" height="60" viewBox="0 0 60 60" fill="none" xmlns="http://www.w3.org/2000/svg">
<path d="M53.9823 18.0075C53.6976 16.951 53.1411 15.9875 52.3683 15.2129C51.5954 14.4383 50.6332 13.8797 49.5773 13.5925C45.6623 12.5175 29.9998 12.5 29.9998 12.5C29.9998 12.5 14.3398 12.4825 10.4223 13.51C9.36716 13.8104 8.4069 14.377 7.63376 15.1554C6.86062 15.9337 6.30056 16.8978 6.00735 17.955C4.97485 21.87 4.96485 29.99 4.96485 29.99C4.96485 29.99 4.95485 38.15 5.97985 42.025C6.55485 44.1675 8.24235 45.86 10.3873 46.4375C14.3423 47.5125 29.9623 47.53 29.9623 47.53C29.9623 47.53 45.6248 47.5475 49.5398 46.5225C50.5961 46.2359 51.5592 45.6785 52.334 44.9055C53.1087 44.1325 53.6683 43.1706 53.9573 42.115C54.9923 38.2025 54.9998 30.085 54.9998 30.085C54.9998 30.085 55.0499 21.9225 53.9823 18.0075ZM24.9898 37.5125L25.0023 22.5125L38.0198 30.025L24.9898 37.5125Z" fill="white"/>
</svg>
