<svg width="266" height="42" viewBox="0 0 266 42" fill="none" xmlns="http://www.w3.org/2000/svg">
<path d="M86.9525 0.558608V27.691H84.5185L66.8027 5.66588V27.691H63.9697V0.558608H66.3239L84.1195 22.8231V0.558608H86.9525ZM112.386 19.7907H98.1416L94.6303 27.691H91.5979L103.927 0.359105H106.601L118.93 27.691H115.897L112.386 19.7907ZM111.229 17.1972L105.244 3.75066L99.2987 17.1972H111.229ZM146.518 0.558608V27.691H144.084L126.368 5.66588V27.691H123.535V0.558608H125.889L143.685 22.8231V0.558608H146.518ZM166.353 0C174.173 0 180.477 6.30429 180.477 14.1248C180.477 21.9453 174.173 28.2496 166.353 28.2496C158.532 28.2496 152.228 21.9453 152.228 14.1248C152.228 6.30429 158.532 0 166.353 0ZM166.313 25.6162C172.657 25.6162 177.605 20.4291 177.605 14.1248C177.605 7.82052 172.657 2.63344 166.313 2.63344C160.008 2.63344 155.061 7.82052 155.061 14.1248C155.061 20.4291 160.008 25.6162 166.313 25.6162ZM201.669 13.646C205.778 14.3642 207.813 16.8779 207.813 20.3094C207.813 24.7384 203.903 27.691 197.878 27.691H186.147V0.558608H197.639C203.025 0.558608 206.417 3.23195 206.417 7.38161C206.417 10.4141 204.701 12.7682 201.669 13.646ZM188.98 3.07235V12.6884H196.881C201.27 12.6884 203.704 10.8131 203.704 7.70081C203.704 4.86787 201.27 3.07235 197.359 3.07235H188.98ZM188.98 25.1773H197.798C202.307 25.1773 205.02 23.0226 205.02 19.9902C205.02 16.9179 202.347 15.2021 197.878 15.2021H188.98V25.1773ZM226.736 0C234.556 0 240.86 6.30429 240.86 14.1248C240.86 21.9453 234.556 28.2496 226.736 28.2496C218.915 28.2496 212.611 21.9453 212.611 14.1248C212.611 6.30429 218.915 0 226.736 0ZM226.696 25.6162C233.04 25.6162 237.988 20.4291 237.988 14.1248C237.988 7.82052 233.04 2.63344 226.696 2.63344C220.391 2.63344 215.444 7.82052 215.444 14.1248C215.444 20.4291 220.391 25.6162 226.696 25.6162ZM265.15 3.15215H255.055V27.691H252.222V3.15215H242.127V0.558608H265.15V3.15215Z" fill="white"/>
<path d="M66.7977 40.5392H66.8137L68.4916 36.1719H69.728V41.8558H68.9332V37.1031H68.9171L67.0305 41.8558H66.5247L64.6461 37.1031H64.6301V41.8558H63.8594V36.1719H65.0957L66.7977 40.5392ZM76.3021 41.1493H79.2725V41.8558H75.5073V36.1719H79.152V36.8703H76.3021V38.5723H78.9835V39.2547H76.3021V41.1493ZM85.0628 36.1719H87.0137C87.3776 36.1719 87.7415 36.2254 88.1055 36.3324C88.4694 36.4395 88.7986 36.608 89.0929 36.8382C89.3873 37.0683 89.6255 37.3627 89.8075 37.7213C89.9894 38.0799 90.0804 38.5107 90.0804 39.0138C90.0804 39.5009 89.9894 39.9223 89.8075 40.2783C89.6255 40.6342 89.3873 40.9285 89.0929 41.1613C88.7986 41.3942 88.4694 41.5681 88.1055 41.6832C87.7415 41.7982 87.3776 41.8558 87.0137 41.8558H85.0628V36.1719ZM85.8576 41.1573H86.8531C87.1956 41.1573 87.5127 41.1092 87.8044 41.0128C88.0961 40.9165 88.3477 40.7773 88.5591 40.5954C88.7705 40.4134 88.9351 40.1886 89.0528 39.921C89.1706 39.6534 89.2294 39.351 89.2294 39.0138C89.2294 38.6606 89.1706 38.3502 89.0528 38.0826C88.9351 37.8149 88.7705 37.5915 88.5591 37.4122C88.3477 37.2329 88.0961 37.0964 87.8044 37.0028C87.5127 36.9091 87.1956 36.8623 86.8531 36.8623H85.8576V41.1573ZM96.6977 41.8558H95.9029V36.1719H96.6977V41.8558ZM107.516 40.9727C107.291 41.2778 107 41.5253 106.641 41.7153C106.282 41.9053 105.852 42.0003 105.349 42.0003C104.915 42.0003 104.515 41.9267 104.148 41.7795C103.782 41.6323 103.466 41.4263 103.201 41.1613C102.936 40.8964 102.729 40.5806 102.579 40.214C102.429 39.8474 102.354 39.4447 102.354 39.0058C102.354 38.5616 102.43 38.1561 102.583 37.7895C102.735 37.4229 102.947 37.1098 103.217 36.8502C103.487 36.5907 103.807 36.3886 104.176 36.2441C104.546 36.0996 104.947 36.0273 105.381 36.0273C105.573 36.0273 105.769 36.0461 105.967 36.0835C106.165 36.121 106.355 36.1772 106.537 36.2521C106.719 36.3271 106.885 36.4194 107.034 36.5291C107.184 36.6388 107.313 36.7659 107.42 36.9104L106.794 37.3921C106.654 37.1995 106.458 37.0402 106.204 36.9145C105.949 36.7887 105.675 36.7258 105.381 36.7258C105.049 36.7258 104.75 36.786 104.486 36.9064C104.221 37.0268 103.994 37.1914 103.807 37.4002C103.62 37.6089 103.475 37.8511 103.374 38.1267C103.272 38.4023 103.221 38.6954 103.221 39.0058C103.221 39.3269 103.271 39.6266 103.37 39.9049C103.469 40.1833 103.61 40.4254 103.795 40.6315C103.98 40.8375 104.205 40.9994 104.469 41.1172C104.734 41.2349 105.03 41.2938 105.357 41.2938C105.678 41.2938 105.969 41.2296 106.232 41.1011C106.494 40.9727 106.711 40.7854 106.882 40.5392L107.516 40.9727ZM113.028 41.8558H112.145L114.61 36.1719H115.332L117.773 41.8558H116.873L116.295 40.4589H113.598L113.028 41.8558ZM113.879 39.7604H116.006L114.947 37.0951L113.879 39.7604ZM123.696 41.1493H126.233V41.8558H122.902V36.1719H123.696V41.1493ZM141.492 40.9727C141.267 41.2778 140.976 41.5253 140.617 41.7153C140.258 41.9053 139.827 42.0003 139.324 42.0003C138.891 42.0003 138.491 41.9267 138.124 41.7795C137.758 41.6323 137.442 41.4263 137.177 41.1613C136.912 40.8964 136.705 40.5806 136.555 40.214C136.405 39.8474 136.33 39.4447 136.33 39.0058C136.33 38.5616 136.406 38.1561 136.559 37.7895C136.711 37.4229 136.923 37.1098 137.193 36.8502C137.463 36.5907 137.783 36.3886 138.152 36.2441C138.522 36.0996 138.923 36.0273 139.356 36.0273C139.549 36.0273 139.745 36.0461 139.943 36.0835C140.141 36.121 140.331 36.1772 140.513 36.2521C140.695 36.3271 140.86 36.4194 141.01 36.5291C141.16 36.6388 141.289 36.7659 141.396 36.9104L140.769 37.3921C140.63 37.1995 140.434 37.0402 140.179 36.9145C139.925 36.7887 139.651 36.7258 139.356 36.7258C139.025 36.7258 138.726 36.786 138.461 36.9064C138.196 37.0268 137.97 37.1914 137.783 37.4002C137.596 37.6089 137.451 37.8511 137.349 38.1267C137.248 38.4023 137.197 38.6954 137.197 39.0058C137.197 39.3269 137.246 39.6266 137.345 39.9049C137.444 40.1833 137.586 40.4254 137.771 40.6315C137.956 40.8375 138.18 40.9994 138.445 41.1172C138.71 41.2349 139.006 41.2938 139.332 41.2938C139.654 41.2938 139.945 41.2296 140.207 41.1011C140.47 40.9727 140.686 40.7854 140.858 40.5392L141.492 40.9727ZM152.503 39.0058C152.503 39.4447 152.427 39.8474 152.274 40.214C152.122 40.5806 151.912 40.8964 151.644 41.1613C151.377 41.4263 151.058 41.6323 150.689 41.7795C150.319 41.9267 149.918 42.0003 149.485 42.0003C149.051 42.0003 148.651 41.9267 148.284 41.7795C147.918 41.6323 147.601 41.4263 147.333 41.1613C147.065 40.8964 146.857 40.5806 146.707 40.214C146.557 39.8474 146.482 39.4447 146.482 39.0058C146.482 38.5616 146.557 38.1561 146.707 37.7895C146.857 37.4229 147.065 37.1098 147.333 36.8502C147.601 36.5907 147.918 36.3886 148.284 36.2441C148.651 36.0996 149.051 36.0273 149.485 36.0273C149.918 36.0273 150.319 36.0996 150.689 36.2441C151.058 36.3886 151.377 36.5907 151.644 36.8502C151.912 37.1098 152.122 37.4229 152.274 37.7895C152.427 38.1561 152.503 38.5616 152.503 39.0058ZM151.644 39.0058C151.644 38.6954 151.593 38.4023 151.492 38.1267C151.39 37.8511 151.245 37.6089 151.058 37.4002C150.871 37.1914 150.645 37.0268 150.38 36.9064C150.115 36.786 149.816 36.7258 149.485 36.7258C149.158 36.7258 148.862 36.786 148.597 36.9064C148.332 37.0268 148.108 37.1914 147.923 37.4002C147.738 37.6089 147.595 37.8511 147.494 38.1267C147.392 38.4023 147.341 38.6954 147.341 39.0058C147.341 39.3216 147.392 39.6186 147.494 39.8969C147.595 40.1752 147.74 40.4174 147.927 40.6235C148.114 40.8295 148.339 40.9914 148.601 41.1092C148.864 41.2269 149.158 41.2858 149.485 41.2858C149.811 41.2858 150.108 41.2269 150.376 41.1092C150.643 40.9914 150.871 40.8295 151.058 40.6235C151.245 40.4174 151.39 40.1752 151.492 39.8969C151.593 39.6186 151.644 39.3216 151.644 39.0058ZM160.924 40.5392H160.94L162.618 36.1719H163.854V41.8558H163.059V37.1031H163.043L161.157 41.8558H160.651L158.772 37.1031H158.756V41.8558H157.985V36.1719H159.222L160.924 40.5392ZM172.572 40.5392H172.588L174.266 36.1719H175.502V41.8558H174.707V37.1031H174.691L172.804 41.8558H172.299L170.42 37.1031H170.404V41.8558H169.633V36.1719H170.87L172.572 40.5392ZM183.615 42.0003C183.24 42.0003 182.914 41.9374 182.635 41.8116C182.357 41.6859 182.127 41.5186 181.945 41.3099C181.763 41.1011 181.628 40.8616 181.54 40.5913C181.451 40.3211 181.407 40.0414 181.407 39.7524V36.1719H182.202V39.7042C182.202 39.8969 182.226 40.0883 182.274 40.2783C182.322 40.4683 182.401 40.6382 182.511 40.788C182.621 40.9379 182.765 41.0583 182.945 41.1493C183.124 41.2403 183.347 41.2858 183.615 41.2858C183.877 41.2858 184.099 41.2403 184.281 41.1493C184.463 41.0583 184.609 40.9379 184.719 40.788C184.828 40.6382 184.907 40.4683 184.956 40.2783C185.004 40.0883 185.028 39.8969 185.028 39.7042V36.1719H185.823V39.7524C185.823 40.0414 185.778 40.3211 185.69 40.5913C185.602 40.8616 185.467 41.1011 185.285 41.3099C185.103 41.5186 184.873 41.6859 184.594 41.8116C184.316 41.9374 183.99 42.0003 183.615 42.0003ZM195.734 40.7158H195.75V36.1719H196.545V41.8558H195.541L192.539 37.2155H192.523V41.8558H191.728V36.1719H192.763L195.734 40.7158ZM203.119 41.8558H202.324V36.1719H203.119V41.8558ZM214.103 40.9727C213.879 41.2778 213.587 41.5253 213.228 41.7153C212.87 41.9053 212.439 42.0003 211.936 42.0003C211.502 42.0003 211.102 41.9267 210.736 41.7795C210.369 41.6323 210.053 41.4263 209.788 41.1613C209.523 40.8964 209.316 40.5806 209.166 40.214C209.016 39.8474 208.941 39.4447 208.941 39.0058C208.941 38.5616 209.018 38.1561 209.17 37.7895C209.323 37.4229 209.534 37.1098 209.804 36.8502C210.075 36.5907 210.394 36.3886 210.764 36.2441C211.133 36.0996 211.534 36.0273 211.968 36.0273C212.161 36.0273 212.356 36.0461 212.554 36.0835C212.752 36.121 212.942 36.1772 213.124 36.2521C213.306 36.3271 213.472 36.4194 213.622 36.5291C213.772 36.6388 213.9 36.7659 214.007 36.9104L213.381 37.3921C213.242 37.1995 213.045 37.0402 212.791 36.9145C212.537 36.7887 212.262 36.7258 211.968 36.7258C211.636 36.7258 211.338 36.786 211.073 36.9064C210.808 37.0268 210.582 37.1914 210.394 37.4002C210.207 37.6089 210.063 37.8511 209.961 38.1267C209.859 38.4023 209.808 38.6954 209.808 39.0058C209.808 39.3269 209.858 39.6266 209.957 39.9049C210.056 40.1833 210.198 40.4254 210.382 40.6315C210.567 40.8375 210.792 40.9994 211.057 41.1172C211.322 41.2349 211.617 41.2938 211.944 41.2938C212.265 41.2938 212.557 41.2296 212.819 41.1011C213.081 40.9727 213.298 40.7854 213.469 40.5392L214.103 40.9727ZM219.615 41.8558H218.732L221.197 36.1719H221.919L224.36 41.8558H223.461L222.883 40.4589H220.185L219.615 41.8558ZM220.466 39.7604H222.594L221.534 37.0951L220.466 39.7604ZM231.496 41.8558H230.702V36.8703H228.879V36.1719H233.319V36.8703H231.496V41.8558ZM239.599 41.8558H238.804V36.1719H239.599V41.8558ZM251.11 39.0058C251.11 39.4447 251.034 39.8474 250.882 40.214C250.729 40.5806 250.519 40.8964 250.251 41.1613C249.984 41.4263 249.665 41.6323 249.296 41.7795C248.927 41.9267 248.525 42.0003 248.092 42.0003C247.658 42.0003 247.258 41.9267 246.892 41.7795C246.525 41.6323 246.208 41.4263 245.94 41.1613C245.673 40.8964 245.464 40.5806 245.314 40.214C245.164 39.8474 245.089 39.4447 245.089 39.0058C245.089 38.5616 245.164 38.1561 245.314 37.7895C245.464 37.4229 245.673 37.1098 245.94 36.8502C246.208 36.5907 246.525 36.3886 246.892 36.2441C247.258 36.0996 247.658 36.0273 248.092 36.0273C248.525 36.0273 248.927 36.0996 249.296 36.2441C249.665 36.3886 249.984 36.5907 250.251 36.8502C250.519 37.1098 250.729 37.4229 250.882 37.7895C251.034 38.1561 251.11 38.5616 251.11 39.0058ZM250.251 39.0058C250.251 38.6954 250.201 38.4023 250.099 38.1267C249.997 37.8511 249.853 37.6089 249.665 37.4002C249.478 37.1914 249.252 37.0268 248.987 36.9064C248.722 36.786 248.424 36.7258 248.092 36.7258C247.765 36.7258 247.47 36.786 247.205 36.9064C246.94 37.0268 246.715 37.1914 246.53 37.4002C246.346 37.6089 246.202 37.8511 246.101 38.1267C245.999 38.4023 245.948 38.6954 245.948 39.0058C245.948 39.3216 245.999 39.6186 246.101 39.8969C246.202 40.1752 246.347 40.4174 246.534 40.6235C246.722 40.8295 246.946 40.9914 247.209 41.1092C247.471 41.2269 247.765 41.2858 248.092 41.2858C248.418 41.2858 248.715 41.2269 248.983 41.1092C249.251 40.9914 249.478 40.8295 249.665 40.6235C249.853 40.4174 249.997 40.1752 250.099 39.8969C250.201 39.6186 250.251 39.3216 250.251 39.0058ZM260.599 40.7158H260.615V36.1719H261.41V41.8558H260.406L257.403 37.2155H257.387V41.8558H256.593V36.1719H257.628L260.599 40.7158Z" fill="white"/>
<path d="M43.3646 0.501953C46.3816 0.501953 48.8273 2.94983 48.8273 5.96944C48.8273 7.78516 48.1189 9.05127 46.0856 11.2011L45.6957 11.6097L45.2153 12.1198C43.3301 14.1366 41.418 16.8519 40.9881 19.7986C40.7435 21.4753 40.9407 22.7778 41.1796 23.8717C41.4185 24.9656 42.212 26.4163 42.8673 28.3752C43.219 29.4264 43.3691 30.1276 43.4305 31.387C43.7043 37.0097 39.1254 41.856 33.2996 41.856C27.486 41.8726 23.0035 37.3163 23.0035 31.7163C23.0039 31.6611 23.0042 31.6199 23.0044 31.5929C23.0123 30.4924 23.0192 29.861 23.0249 29.6987C23.1695 25.6122 21.7442 22.6338 19.6431 20.6884C15.3473 17.216 12.857 17.216 10.9075 16.2833C8.00209 14.9776 5.97852 12.2467 5.97852 8.66183C5.97852 4.2147 9.66201 0.501953 14.2957 0.501953C18.9294 0.501953 22.4413 4.06714 22.6388 8.85229C22.6872 11.0387 22.7606 12.7592 23.1892 14.4509C24.0767 17.4732 27.1059 19.986 31.3226 19.8105C34.1205 19.694 37.516 17.4399 38.0515 13.7121C38.4294 10.7961 37.7937 8.27155 37.9084 6.15399C37.9647 2.65157 40.3476 0.501953 43.3646 0.501953Z" fill="white"/>
<path d="M5.81283 41.8073C9.02316 41.8073 11.6257 39.2048 11.6257 35.9945C11.6257 32.7841 9.02316 30.1816 5.81283 30.1816C2.60249 30.1816 0 32.7841 0 35.9945C0 39.2048 2.60249 41.8073 5.81283 41.8073Z" fill="white"/>
</svg>
