<svg width="131" height="23" viewBox="0 0 131 23" fill="none" xmlns="http://www.w3.org/2000/svg">
<path fill-rule="evenodd" clip-rule="evenodd" d="M26.9671 22.9988L13.4835 0.21875L0 22.9988H26.9671ZM4.62081 20.3633L13.4847 5.38806L22.349 20.3633H4.62081Z" fill="#7E838D"/>
<path fill-rule="evenodd" clip-rule="evenodd" d="M111.712 3.72844C111.712 4.51475 111.075 5.15219 110.289 5.15219C109.503 5.15219 108.866 4.51475 108.866 3.72844C108.866 2.94212 109.503 2.30469 110.289 2.30469C111.075 2.30469 111.712 2.94212 111.712 3.72844ZM48.1713 8.099C47.3934 7.66871 46.5112 7.45357 45.5247 7.45357C44.8291 7.45357 44.1935 7.57379 43.618 7.81425C43.0425 8.05471 42.5588 8.41538 42.1667 8.8963V7.49967H39.909V22.9467H42.2805V16.4706C43.0773 17.3819 44.1587 17.8374 45.5247 17.8374C46.5112 17.8374 47.3934 17.6223 48.1713 17.192C48.9491 16.7617 49.5594 16.1511 50.002 15.3601C50.4447 14.5691 50.6661 13.6611 50.6661 12.636C50.6661 11.6109 50.4447 10.706 50.002 9.9214C49.5594 9.13675 48.9491 8.52929 48.1713 8.099ZM31.4016 17.509C32.1858 17.7282 32.989 17.8378 33.8111 17.8378C35.2276 17.8378 36.347 17.5477 37.1691 16.9674C37.9912 16.3872 38.4022 15.6135 38.4022 14.6463C38.4022 13.9113 38.2157 13.344 37.8426 12.9442C37.4695 12.5445 37.0236 12.2608 36.5051 12.0932C35.9865 11.9255 35.3225 11.7772 34.513 11.6483C33.7036 11.5064 33.2274 11.3798 32.8557 11.1937C32.484 11.0076 32.2834 10.8087 32.2771 10.3717C32.2771 10.0423 32.5956 9.80955 32.8557 9.67317C33.1158 9.53679 33.6565 9.39052 34.2854 9.39052C35.3604 9.39052 36.309 9.67627 37.1691 10.1921L38.0797 8.35455C37.637 8.08375 37.0679 7.86777 36.3723 7.70658C35.6766 7.54539 34.981 7.4648 34.2854 7.4648C32.9194 7.4648 31.9704 7.75816 31.1672 8.34488C30.3641 8.9316 29.9625 9.50772 29.9625 10.4877C29.9625 11.2356 30.1554 11.8191 30.5411 12.2382C30.9269 12.6573 31.3822 12.9507 31.9071 13.1183C32.432 13.2859 32.9763 13.4342 33.8111 13.5632C34.6079 13.6921 35.2367 13.8288 35.547 13.9694C35.8573 14.1099 36.0877 14.3839 36.0877 14.7237C36.0877 15.4292 35.3794 15.8649 33.9628 15.8649C33.3431 15.8649 32.7139 15.7714 32.0751 15.5844C31.4364 15.3975 30.8894 15.1492 30.4341 14.8398L29.5234 16.6773C29.9914 17.0126 30.6175 17.2898 31.4016 17.509ZM45.2584 15.8062C46.1311 15.8062 46.8489 15.5151 47.4117 14.9329C47.9746 14.3508 48.256 13.5851 48.256 12.6359C48.256 11.6868 47.9746 10.9211 47.4117 10.339C46.8489 9.7568 46.1311 9.46572 45.2584 9.46572C44.6893 9.46572 44.177 9.59544 43.7217 9.85488C43.2664 10.1143 42.9059 10.4845 42.6403 10.9654C42.3747 11.4463 42.2419 12.0032 42.2419 12.6359C42.2419 13.2687 42.3747 13.8256 42.6403 14.3065C42.9059 14.7874 43.2664 15.1576 43.7217 15.417C44.177 15.6764 44.6893 15.8062 45.2584 15.8062ZM60.2315 17.7724H62.4892V7.49967H60.1177V8.80138C59.713 8.35844 59.2355 8.02307 58.6853 7.79527C58.1352 7.56746 57.5312 7.45357 56.8735 7.45357C55.887 7.45357 55.0048 7.66871 54.227 8.099C53.4491 8.52929 52.842 9.13359 52.4057 9.91191C51.9693 10.6902 51.7511 11.5983 51.7511 12.636C51.7511 13.6738 51.9693 14.585 52.4057 15.3696C52.842 16.1543 53.4491 16.7617 54.227 17.192C55.0048 17.6223 55.887 17.8374 56.8735 17.8374C57.5692 17.8374 58.2047 17.7172 58.7802 17.4768C59.3557 17.2363 59.8395 16.8756 60.2315 16.3947V17.7724ZM57.1388 15.8062C58.0115 15.8062 58.7324 15.5151 59.3016 14.9329C59.8707 14.3508 60.1553 13.5851 60.1553 12.6359C60.1553 11.6868 59.8707 10.9211 59.3016 10.339C58.7324 9.7568 58.0115 9.46572 57.1388 9.46572C56.2661 9.46572 55.5483 9.7568 54.9855 10.339C54.4226 10.9211 54.1412 11.6868 54.1412 12.6359C54.1412 13.5851 54.4226 14.3508 54.9855 14.9329C55.5483 15.5151 56.2661 15.8062 57.1388 15.8062ZM66.8805 17.173C67.7153 17.616 68.6576 17.8374 69.7073 17.8374C70.6939 17.8374 71.5634 17.6318 72.316 17.2205C73.0685 16.8092 73.6408 16.2239 74.0329 15.4645L72.2116 14.4015C71.9207 14.8697 71.5571 15.2209 71.1207 15.455C70.6844 15.6892 70.2069 15.8062 69.6884 15.8062C68.7904 15.8062 68.0536 15.5183 67.4781 14.9425C66.9027 14.3667 66.6149 13.5978 66.6149 12.636C66.6149 11.6742 66.9058 10.9054 67.4876 10.3295C68.0694 9.75371 68.803 9.4658 69.6884 9.4658C70.2069 9.4658 70.6844 9.58286 71.1207 9.81699C71.5571 10.0511 71.9207 10.4023 72.2116 10.8706L74.0329 9.8075C73.6535 9.04816 73.0875 8.46601 72.3349 8.06103C71.5824 7.65605 70.7065 7.45357 69.7073 7.45357C68.6449 7.45357 67.6995 7.67503 66.8711 8.11798C66.0426 8.56093 65.3944 9.17472 64.9264 9.95937C64.4585 10.744 64.2245 11.6362 64.2245 12.636C64.2245 13.6358 64.4585 14.5312 64.9264 15.3222C65.3944 16.1131 66.0458 16.7301 66.8805 17.173ZM85.318 12.693C85.318 12.8575 85.3054 13.0916 85.2801 13.3953H77.3309C77.47 14.142 77.8336 14.7337 78.4218 15.1703C79.0099 15.6069 79.7403 15.8252 80.613 15.8252C81.726 15.8252 82.643 15.4582 83.3639 14.7242L84.635 16.1859C84.1797 16.7301 83.6042 17.1414 82.9086 17.4198C82.2129 17.6982 81.4288 17.8374 80.5561 17.8374C79.4431 17.8374 78.4629 17.616 77.6154 17.173C76.768 16.7301 76.1135 16.1131 75.6519 15.3222C75.1902 14.5312 74.9594 13.6358 74.9594 12.636C74.9594 11.6489 75.1839 10.7598 75.6329 9.96886C76.0819 9.17788 76.7048 8.56093 77.5016 8.11798C78.2984 7.67503 79.1964 7.45357 80.1956 7.45357C81.1822 7.45357 82.0643 7.67187 82.8422 8.10849C83.62 8.54511 84.2271 9.1589 84.6635 9.94987C85.0998 10.7408 85.318 11.6552 85.318 12.693ZM78.1319 10.0273C78.6568 9.578 79.2986 9.35337 80.0575 9.35337C80.829 9.35337 81.4741 9.58117 81.9926 10.0368C82.5112 10.4924 82.8211 11.0872 82.9223 11.8212H77.1738C77.2876 11.0745 77.607 10.4766 78.1319 10.0273ZM90.462 17.8389C89.6399 17.8389 88.8368 17.7292 88.0526 17.51C87.2684 17.2908 86.6423 17.0136 86.1744 16.6783L87.085 14.8408C87.5403 15.1503 88.0874 15.3985 88.7261 15.5855C89.3648 15.7724 89.994 15.8659 90.6138 15.8659C92.0303 15.8659 92.7386 15.4302 92.7386 14.7247C92.7386 14.385 92.5082 14.1109 92.1979 13.9704C91.8876 13.8298 91.2588 13.6931 90.462 13.5642C89.6272 13.4352 89.0829 13.287 88.558 13.1193C88.0332 12.9517 87.4403 12.5012 87.2312 12.2359C86.8667 11.7904 86.6134 11.1948 86.6134 10.4888C86.6134 9.78276 87.015 8.93262 87.8181 8.3459C88.6213 7.75918 89.5703 7.46582 90.9363 7.46582C91.6319 7.46582 92.043 7.51782 92.7386 7.67901C93.4343 7.84019 93.9373 8.0822 94.4596 8.35557L93.6167 10.0575C92.9176 9.67419 91.9242 9.39155 90.9363 9.39155C90.3074 9.39155 89.7667 9.53781 89.5066 9.67419C89.2466 9.81057 88.928 10.0433 88.928 10.3727C88.9343 10.8097 89.1349 11.0087 89.5066 11.1948C89.8783 11.3809 90.3545 11.5075 91.164 11.6493C91.9734 11.7782 92.6374 11.9265 93.156 12.0942C93.6746 12.2618 94.1204 12.5455 94.4935 12.9452C94.8666 13.345 95.0532 13.9124 95.0532 14.6474C95.0532 15.6145 94.6421 16.3882 93.82 16.9684C92.9979 17.5487 91.8786 17.8389 90.462 17.8389ZM104.81 8.099C104.032 7.66871 103.15 7.45357 102.163 7.45357C101.468 7.45357 100.832 7.57379 100.257 7.81425C99.6812 8.05471 99.1974 8.41538 98.8054 8.8963V7.49967H96.5477V22.9467H98.9192V16.4706C99.716 17.3819 100.797 17.8374 102.163 17.8374C103.15 17.8374 104.032 17.6223 104.81 17.192C105.588 16.7617 106.198 16.1511 106.641 15.3601C107.083 14.5691 107.305 13.6611 107.305 12.636C107.305 11.6109 107.083 10.706 106.641 9.9214C106.198 9.13675 105.588 8.52929 104.81 8.099ZM101.834 15.8062C102.706 15.8062 103.424 15.5151 103.987 14.9329C104.55 14.3508 104.831 13.5851 104.831 12.6359C104.831 11.6868 104.55 10.9211 103.987 10.339C103.424 9.7568 102.706 9.46572 101.834 9.46572C101.265 9.46572 100.752 9.59544 100.297 9.85488C99.8417 10.1143 99.4813 10.4845 99.2157 10.9654C98.9501 11.4463 98.8173 12.0032 98.8173 12.6359C98.8173 13.2687 98.9501 13.8256 99.2157 14.3065C99.4813 14.7874 99.8417 15.1576 100.297 15.417C100.752 15.6764 101.265 15.8062 101.834 15.8062ZM111.507 7.52506H109.135V17.7978H111.507V7.52506ZM119.892 7.45357C118.172 7.45357 116.971 7.98509 116.288 9.04817V7.49967H114.03V17.7724H116.401V12.7879C116.401 11.7754 116.661 11.0003 117.179 10.4624C117.698 9.92456 118.419 9.65563 119.342 9.65563C119.507 9.65563 119.69 9.67461 119.892 9.71258V7.45357ZM130.983 12.693C130.983 12.8575 130.97 13.0916 130.945 13.3953H122.996C123.135 14.142 123.498 14.7337 124.087 15.1703C124.675 15.6069 125.405 15.8252 126.278 15.8252C127.391 15.8252 128.308 15.4582 129.029 14.7242L130.3 16.1859C129.844 16.7301 129.269 17.1414 128.573 17.4198C127.878 17.6982 127.094 17.8374 126.221 17.8374C125.108 17.8374 124.128 17.616 123.28 17.173C122.433 16.7301 121.778 16.1131 121.317 15.3222C120.855 14.5312 120.624 13.6358 120.624 12.636C120.624 11.6489 120.849 10.7598 121.298 9.96886C121.747 9.17788 122.37 8.56093 123.166 8.11798C123.963 7.67503 124.861 7.45357 125.86 7.45357C126.847 7.45357 127.729 7.67187 128.507 8.10849C129.285 8.54511 129.892 9.1589 130.328 9.94987C130.765 10.7408 130.983 11.6552 130.983 12.693ZM124.138 10.0273C124.663 9.578 125.305 9.35337 126.063 9.35337C126.835 9.35337 127.48 9.58117 127.999 10.0368C128.517 10.4924 128.827 11.0872 128.928 11.8212H123.18C123.294 11.0745 123.613 10.4766 124.138 10.0273Z" fill="#7E838D"/>
<ellipse cx="2.57475" cy="4.89272" rx="2.57475" ry="2.57631" fill="#7E838D"/>
</svg>
