<svg width="49" height="42" viewBox="0 0 49 42" fill="none" xmlns="http://www.w3.org/2000/svg">
<path d="M42.8566 0C45.8382 0 48.2553 2.48611 48.2553 5.55288C48.2553 7.39697 47.5552 8.68285 45.5457 10.8662L45.1604 11.2812L44.6857 11.7993C42.8225 13.8476 40.9329 16.6053 40.508 19.598C40.2662 21.3009 40.4611 22.6238 40.6972 23.7348C40.9333 24.8457 41.7175 26.3191 42.3652 28.3086C42.7127 29.3762 42.8611 30.0883 42.9217 31.3675C43.1923 37.0779 38.6671 42 32.9096 42C27.1641 42.0168 22.7342 37.3894 22.7342 31.7019C22.7346 31.6458 22.7349 31.604 22.7351 31.5766C22.7429 30.4588 22.7497 29.8176 22.7554 29.6528C22.8983 25.5025 21.4896 22.4775 19.4132 20.5017C15.1678 16.9751 12.7067 16.9751 10.78 16.0278C7.90867 14.7017 5.90881 11.9282 5.90881 8.28733C5.90881 3.77074 9.54913 0 14.1285 0C18.7078 0 22.1786 3.62087 22.3738 8.48076C22.4217 10.7014 22.4941 12.4487 22.9177 14.1668C23.7949 17.2363 26.7885 19.7884 30.9558 19.6101C33.7209 19.4918 37.0766 17.2025 37.6058 13.4164C37.9792 10.4549 37.3511 7.89095 37.4644 5.74031C37.5201 2.18319 39.875 0 42.8566 0ZM5.74468 41.9505C2.57198 41.9505 0 39.3073 0 36.0468C0 32.7864 2.57198 30.1432 5.74468 30.1432C8.91738 30.1432 11.4894 32.7864 11.4894 36.0468C11.4894 39.3073 8.91738 41.9505 5.74468 41.9505Z" fill="url(#paint0_linear_925_9712)"/>
<path d="M42.8566 0C45.8382 0 48.2553 2.48611 48.2553 5.55288C48.2553 7.39697 47.5552 8.68285 45.5457 10.8662L45.1604 11.2812L44.6857 11.7993C42.8225 13.8476 40.9329 16.6053 40.508 19.598C40.2662 21.3009 40.4611 22.6238 40.6972 23.7348C40.9333 24.8457 41.7175 26.3191 42.3652 28.3086C42.7127 29.3762 42.8611 30.0883 42.9217 31.3675C43.1923 37.0779 38.6671 42 32.9096 42C27.1641 42.0168 22.7342 37.3894 22.7342 31.7019C22.7346 31.6458 22.7349 31.604 22.7351 31.5766C22.7429 30.4588 22.7497 29.8176 22.7554 29.6528C22.8983 25.5025 21.4896 22.4775 19.4132 20.5017C15.1678 16.9751 12.7067 16.9751 10.78 16.0278C7.90867 14.7017 5.90881 11.9282 5.90881 8.28733C5.90881 3.77074 9.54913 0 14.1285 0C18.7078 0 22.1786 3.62087 22.3738 8.48076C22.4217 10.7014 22.4941 12.4487 22.9177 14.1668C23.7949 17.2363 26.7885 19.7884 30.9558 19.6101C33.7209 19.4918 37.0766 17.2025 37.6058 13.4164C37.9792 10.4549 37.3511 7.89095 37.4644 5.74031C37.5201 2.18319 39.875 0 42.8566 0ZM5.74468 41.9505C2.57198 41.9505 0 39.3073 0 36.0468C0 32.7864 2.57198 30.1432 5.74468 30.1432C8.91738 30.1432 11.4894 32.7864 11.4894 36.0468C11.4894 39.3073 8.91738 41.9505 5.74468 41.9505Z" fill="white"/>
<defs>
<linearGradient id="paint0_linear_925_9712" x1="14.0876" y1="11.9469" x2="31.3675" y2="33.5394" gradientUnits="userSpaceOnUse">
<stop stop-color="#1E7FF9"/>
<stop offset="1" stop-color="#26DED4"/>
</linearGradient>
</defs>
</svg>
