<svg width="77" height="90" viewBox="0 0 77 90" fill="none" xmlns="http://www.w3.org/2000/svg">
<path d="M1.32683 31.4622L5.67116 31.8835C6.1578 33.6814 6.88375 35.4067 7.8296 37.0112L5.06244 40.3449C4.56982 40.9382 4.61048 41.8094 5.15577 42.3547L10.3034 47.4929C10.8487 48.0368 11.7179 48.0775 12.3113 47.5862L15.6551 44.8138V44.8131C17.263 45.7537 18.9868 46.481 20.7834 46.9777L21.204 51.3046V51.3039C21.28 52.0659 21.9246 52.6432 22.6899 52.6358H29.9833C30.7493 52.6432 31.3939 52.0652 31.4699 51.3033L31.8905 46.969C33.6911 46.4844 35.4189 45.7604 37.0268 44.8159L40.3626 47.5837V47.583C40.9552 48.075 41.8251 48.0357 42.3705 47.4917L47.5188 42.3547V42.354C48.0647 41.8094 48.1054 40.9381 47.6135 40.3449L44.8443 37.0052V37.0045C45.7835 35.398 46.5115 33.6761 47.0095 31.8829L51.2985 31.4623C52.0612 31.3863 52.6405 30.743 52.6364 29.9764V22.6929C52.6411 21.9256 52.0598 21.2816 51.2965 21.207L46.9455 20.7857C46.4582 18.9872 45.731 17.2625 44.7844 15.658L47.5495 12.3243C48.0401 11.733 48.0021 10.8664 47.4622 10.3205L42.3772 5.18297C41.8326 4.633 40.958 4.58967 40.3626 5.08364L37.0188 7.85608C35.4103 6.91616 33.6865 6.18888 31.8905 5.69288L31.4699 1.34922C31.3959 0.583943 30.7526 0 29.9833 0H22.6899C21.9213 0 21.278 0.58396 21.2041 1.34922L20.7827 5.69288C18.9815 6.17885 17.2536 6.90412 15.6457 7.85079L12.3099 5.08501H12.3106C11.7173 4.59305 10.8474 4.63371 10.3027 5.17833L5.15442 10.3147C4.6078 10.8593 4.56713 11.7306 5.05976 12.3245L7.82896 15.6648V15.6642C6.8897 17.2707 6.16242 18.9919 5.66438 20.7852L1.3267 21.2071C0.566101 21.2831 -0.0105203 21.9284 0.000145583 22.693V29.9765C-0.00985371 30.7411 0.566101 31.3857 1.3267 31.4624L1.32683 31.4622ZM2.98671 24.0488L7.02438 23.6569C7.665 23.5935 8.19162 23.1242 8.32695 22.4943C8.81492 20.3072 9.69284 18.2259 10.9194 16.3507C11.2753 15.8021 11.2333 15.0855 10.8147 14.5829L8.22963 11.4658L11.4514 8.24998L14.5698 10.8357H14.5691C15.0757 11.2557 15.7977 11.2944 16.3463 10.9317C18.2115 9.69581 20.292 8.82056 22.4804 8.35194C23.1157 8.21595 23.5904 7.68332 23.653 7.03671L24.045 2.98641H28.6274L29.0194 7.03671C29.082 7.68467 29.5573 8.2173 30.1939 8.35327C32.3838 8.83723 34.4669 9.71451 36.3428 10.9424C36.8901 11.2944 37.6027 11.2511 38.1032 10.8358L41.2149 8.25532L44.3881 11.4604L41.7989 14.5828C41.3783 15.0908 41.3403 15.8141 41.7056 16.3627C42.9435 18.2253 43.8213 20.3025 44.2941 22.4884C44.428 23.121 44.9567 23.5943 45.6006 23.6569L49.6509 24.0489V28.6219L45.6612 29.0139C45.0199 29.0772 44.4926 29.5465 44.3546 30.1765C43.8667 32.3629 42.9874 34.4442 41.7602 36.3193C41.4036 36.8673 41.4455 37.5839 41.8635 38.0871L44.4481 41.2043L41.2256 44.4201L38.1073 41.8344V41.835C37.6006 41.4151 36.8794 41.3764 36.3301 41.739C34.4648 42.9749 32.3837 43.8495 30.1959 44.3181C29.5626 44.4474 29.0867 44.9741 29.0233 45.6174L28.6314 49.6511H24.049L23.657 45.6174C23.5937 44.9714 23.117 44.4415 22.4811 44.3095C20.2919 43.8268 18.2088 42.9509 16.3323 41.7237C15.7843 41.3731 15.0723 41.4171 14.5725 41.833L11.4541 44.4201L8.22773 41.2025L10.8116 38.086V38.0867C11.2322 37.5787 11.2702 36.8554 10.9049 36.3067C9.66702 34.4449 8.78967 32.367 8.31713 30.1818C8.18914 29.5512 7.66519 29.0772 7.02457 29.0132L2.9869 28.6206L2.98671 24.0488Z" fill="#0071FF"/>
<path d="M26.3168 41.945C30.4559 41.9396 34.4229 40.2904 37.346 37.3614C40.2691 34.4316 41.909 30.4605 41.9057 26.3221C41.9017 22.1831 40.2545 18.2154 37.3261 15.2909C34.3976 12.3664 30.4279 10.7245 26.2895 10.7266C22.1505 10.7286 18.1821 12.3738 15.2564 15.3009C12.3307 18.2281 10.6875 22.1977 10.6875 26.3361C10.6948 30.4772 12.3447 34.4461 15.2745 37.3726C18.205 40.299 22.1759 41.9429 26.317 41.945H26.3168ZM26.3168 13.7137C29.6632 13.7197 32.871 15.0536 35.2342 17.4234C37.5974 19.7926 38.9225 23.0036 38.9193 26.3506C38.9153 29.697 37.5827 32.9047 35.2149 35.2693C32.8464 37.6337 29.6361 38.9611 26.2895 38.959C22.9432 38.9577 19.734 37.6271 17.3683 35.2599C15.0025 32.8928 13.6739 29.683 13.6739 26.3366C13.6799 22.9875 15.0152 19.777 17.385 17.4106C19.7555 15.0441 22.9679 13.7149 26.317 13.7135L26.3168 13.7137Z" fill="#0071FF"/>
<path d="M51.0373 44.4286C48.8694 44.4286 46.8388 45.4919 45.6043 47.2737C44.3704 49.0562 44.0884 51.3307 44.851 53.3599L37.9722 59.1608V59.1615C37.0496 57.7849 35.6436 56.8063 34.0331 56.4177C32.4226 56.0297 30.7247 56.261 29.2768 57.0657C27.8289 57.8702 26.7356 59.1901 26.2151 60.7627L20.4622 58.4295C20.1216 56.2817 18.7456 54.4384 16.7838 53.5005C14.8213 52.5626 12.5227 52.6499 10.6375 53.7338C8.75162 54.8178 7.51967 56.7595 7.34236 58.9275C7.16503 61.0953 8.06564 63.2113 9.75011 64.5871C11.4346 65.9629 13.6878 66.4223 15.7769 65.815C17.8654 65.2084 19.5219 63.6132 20.2073 61.5486L25.9602 63.8818C26.3248 66.1723 27.8633 68.1041 30.0146 68.9714C32.1652 69.8393 34.6135 69.5154 36.4655 68.1188C38.3174 66.7229 39.3012 64.4578 39.0585 62.1512L46.5219 55.857C47.9538 57.1989 49.9077 57.8349 51.8555 57.5922C53.8027 57.3502 55.5413 56.2543 56.6006 54.6023C57.6598 52.9504 57.9298 50.9133 57.3378 49.0428L64.6959 43.8278C66.1625 45.4423 68.331 46.2289 70.4915 45.9302C72.652 45.6309 74.5259 44.2857 75.4998 42.3339C76.4731 40.3819 76.4204 38.0755 75.3592 36.1697C74.2979 34.2645 72.3647 33.0052 70.193 32.8052C68.0211 32.6052 65.8906 33.4898 64.4988 35.1691C63.1069 36.8484 62.6342 39.1068 63.2342 41.2033L55.8062 46.4683C54.5622 45.1651 52.839 44.4278 51.0372 44.4285L51.0373 44.4286ZM13.9354 63.0913C12.9748 63.0913 12.0536 62.71 11.3736 62.0307C10.6943 61.3514 10.313 60.4302 10.313 59.4695C10.313 58.5083 10.6943 57.5871 11.3736 56.9077C12.0535 56.2284 12.9748 55.8471 13.9354 55.8471C14.896 55.8471 15.8172 56.2284 16.4966 56.9077C17.1759 57.587 17.5578 58.5082 17.5578 59.4695C17.5565 60.4295 17.1745 61.3502 16.4953 62.0294C15.8166 62.7086 14.8954 63.0906 13.9355 63.0913L13.9354 63.0913ZM32.4855 66.4644C31.5242 66.4644 30.603 66.0825 29.9236 65.4032C29.2443 64.7239 28.8631 63.8026 28.8631 62.842C28.8631 61.8814 29.245 60.9602 29.9243 60.2808C30.6036 59.6015 31.5249 59.2196 32.4855 59.2196C33.4461 59.2196 34.3673 59.6015 35.0473 60.2808C35.7266 60.9601 36.1079 61.8814 36.1079 62.842C36.1066 63.8026 35.7246 64.7231 35.0453 65.4025C34.3667 66.0818 33.4455 66.4638 32.4855 66.4644L32.4855 66.4644ZM69.5873 35.7672C70.5479 35.7672 71.4691 36.1485 72.1492 36.8278C72.8285 37.5071 73.2098 38.4284 73.2098 39.389C73.2098 40.3502 72.8285 41.2715 72.1492 41.9508C71.4699 42.6301 70.5486 43.0114 69.5873 43.0121C68.6267 43.0121 67.7055 42.6301 67.0262 41.9508C66.3469 41.2716 65.9649 40.3503 65.9649 39.3897C65.9662 38.4291 66.3482 37.5086 67.0275 36.8292C67.7061 36.1499 68.6267 35.7679 69.5873 35.7673L69.5873 35.7672ZM51.0373 54.6603C50.0767 54.6603 49.1555 54.279 48.4761 53.5997C47.7967 52.9205 47.4148 51.9985 47.4148 51.0379C47.4148 50.0772 47.7968 49.1561 48.4761 48.4767C49.1554 47.7974 50.0766 47.4155 51.0373 47.4155C51.9979 47.4155 52.9191 47.7974 53.5984 48.4767C54.2777 49.156 54.6597 50.0773 54.6597 51.0379C54.6584 51.9985 54.2764 52.919 53.5978 53.5984C52.9185 54.2777 51.9979 54.6596 51.0373 54.6603L51.0373 54.6603Z" fill="#0071FF"/>
<path d="M75.7809 53.1963C75.7809 52.8004 75.6236 52.4204 75.3436 52.1404C75.0636 51.8605 74.6836 51.7031 74.2877 51.7031H65.1417C64.3171 51.7031 63.6484 52.3717 63.6484 53.1963V87.7265C63.6484 88.1224 63.8058 88.5024 64.0857 88.7824C64.3657 89.0623 64.7457 89.2197 65.1417 89.2197H74.2877C74.6836 89.2197 75.0636 89.0624 75.3436 88.7824C75.6236 88.5024 75.7809 88.1224 75.7809 87.7265V53.1963ZM72.6078 86.2332H66.6349V54.6896H72.6078V86.2332Z" fill="#0071FF"/>
<path d="M57.1168 64.7628C57.1168 64.3668 56.9595 63.9868 56.6795 63.7068C56.3996 63.4269 56.0196 63.2695 55.6236 63.2695H46.4776C45.653 63.2695 44.9844 63.9382 44.9844 64.7628V87.7208C44.9844 88.1168 45.1417 88.4968 45.4217 88.7767C45.7017 89.0567 46.0816 89.214 46.4776 89.214H55.6236C56.0196 89.214 56.3996 89.0567 56.6795 88.7767C56.9595 88.4968 57.1168 88.1168 57.1168 87.7208V64.7628ZM54.1304 86.2276H47.9708V66.256H54.1304V86.2276Z" fill="#0071FF"/>
<path d="M38.6325 76.712C38.6325 76.316 38.4751 75.936 38.1952 75.6561C37.9152 75.3761 37.5352 75.2188 37.1392 75.2188H27.9932C27.1686 75.2188 26.5 75.8874 26.5 76.712V87.7244C26.5 88.1204 26.6573 88.5004 26.9373 88.7804C27.2173 89.0603 27.5973 89.2177 27.9932 89.2177H37.1392C37.5352 89.2177 37.9152 89.0603 38.1952 88.7804C38.4751 88.5004 38.6325 88.1204 38.6325 87.7244V76.712ZM35.4593 86.2312H29.4864V78.2052H35.4593V86.2312Z" fill="#0071FF"/>
<path d="M19.9684 73.3565C19.9684 72.9605 19.8111 72.5806 19.5311 72.3006C19.2511 72.0206 18.8712 71.8633 18.4752 71.8633H9.32916C8.50456 71.8633 7.83594 72.5319 7.83594 73.3565V87.7288C7.83594 88.1248 7.99326 88.5047 8.27324 88.7847C8.55322 89.0647 8.93319 89.222 9.32916 89.222H18.4752C18.8712 89.222 19.2511 89.0647 19.5311 88.7847C19.8111 88.5047 19.9684 88.1248 19.9684 87.7288V73.3565ZM16.982 86.2356H10.8224V74.8497H16.982V86.2356Z" fill="#0071FF"/>
</svg>
