<svg width="79" height="92" viewBox="0 0 79 92" fill="none" xmlns="http://www.w3.org/2000/svg">
<path d="M2.87008 20.359L5.87922 25.5179L10.8069 33.9572V33.9579C8.99502 35.0392 7.73303 36.845 7.34053 38.9181C6.94722 40.9907 7.46052 43.1331 8.75042 44.803C7.96514 44.8263 7.33319 45.4543 7.30386 46.2395C7.23919 48.1741 7.35452 50.1106 7.64849 52.0238C8.94372 60.3779 11.0437 68.5873 13.92 76.5366L16.0912 82.3961V89.595C16.0912 89.991 16.2486 90.3709 16.5285 90.6509C16.8085 90.9309 17.1885 91.0882 17.5845 91.0882H47.4489C47.8449 91.0882 48.2248 90.9309 48.5048 90.6509C48.7848 90.3709 48.9421 89.991 48.9421 89.595V83.6221H60.8879C61.2839 83.6221 61.6638 83.4648 61.9438 83.1848C62.2238 82.9048 62.3811 82.5249 62.3811 82.1289V64.2102H71.3404C71.7937 64.2102 72.223 64.0043 72.5063 63.6503C72.7897 63.2963 72.897 62.8323 72.7977 62.3897L69.1045 45.9643H69.1052C68.9519 45.2837 68.3486 44.7997 67.6506 44.7984H65.3975C66.0788 43.9144 66.5521 42.8879 66.7801 41.7952L78.7153 18.1921V18.1927C78.8946 17.8388 78.9252 17.4288 78.8013 17.0522C78.6773 16.6762 78.4093 16.3642 78.0553 16.1856L69.5573 11.8878C69.204 11.7092 68.794 11.6785 68.4173 11.8025C68.0407 11.9258 67.7294 12.1945 67.5507 12.5478L61.0166 25.4734C59.7214 24.4562 58.1235 23.9002 56.4768 23.8936C55.9842 23.8996 55.4943 23.9569 55.0136 24.0635L58.5794 16.9853L59.9127 17.6573L61.2566 14.9901L60.5606 14.6395L64.9329 10.775V10.7757C65.3809 10.3797 65.5502 9.75577 65.3629 9.18782L62.7139 1.16777C62.4559 0.385169 61.6113 -0.0401346 60.828 0.218508L52.8065 2.86433C52.2393 3.05165 51.8379 3.55894 51.7866 4.15423L51.2846 9.96704L50.5874 9.6164L49.2435 12.2835L50.5767 12.9555L47.3164 19.4284C46.9104 19.4371 46.5064 19.4797 46.1078 19.5571C45.0219 18.0212 43.3893 16.9592 41.5448 16.5885V13.6482C41.5409 13.5102 41.5995 13.3775 41.7048 13.2869C43.4894 11.877 44.5307 9.72787 44.5307 7.45323C44.5307 5.17807 43.4894 3.02885 41.7048 1.61891C39.8969 0.189687 37.5332 -0.330296 35.2927 0.20769C33.4756 0.646988 31.8897 1.75358 30.8504 3.30813C29.8118 4.86268 29.3958 6.75124 29.6852 8.5984C29.9751 10.4456 30.9491 12.1161 32.4136 13.2781C32.5276 13.3787 32.5896 13.5247 32.5842 13.6767V17.9203C32.5862 18.1557 32.6169 18.3896 32.6749 18.6176C31.189 17.8983 29.4965 17.7284 27.8966 18.1383L27.7386 17.1904C28.7925 11.8901 27.2273 6.40712 23.5335 2.4628L21.673 0.473655C21.2971 0.0743587 20.7325 -0.086295 20.2025 0.0543579C19.6732 0.19568 19.2626 0.615655 19.1346 1.14828L18.4733 3.91202V3.91269C18.1893 5.09993 17.762 6.24792 17.2007 7.33174C17.1694 7.39173 17.1427 7.45306 17.1201 7.51705L16.7541 8.53698H16.7548C16.1295 10.2915 16.0028 12.1854 16.3895 14.008C16.7754 15.8306 17.6594 17.5103 18.9419 18.861L19.5392 22.4221C19.4106 22.4221 19.2826 22.3994 19.1526 22.3994V22.4001C17.7247 22.4014 16.3274 22.8167 15.1296 23.5946L13.6217 21.0082L10.6052 15.8466L8.35072 11.9775C7.54477 10.5943 6.06225 9.7471 4.46169 9.75376C2.86114 9.76043 1.38531 10.6204 0.590577 12.0103C-0.203355 13.3995 -0.196701 15.1073 0.609908 16.49L2.87008 20.359ZM66.4557 47.7848L69.4782 61.2238H60.8902C60.0656 61.2238 59.3969 61.8924 59.3969 62.717V80.6357H47.4512C46.6266 80.6357 45.958 81.3043 45.958 82.1289V88.1018H19.08V82.1289C19.08 81.9516 19.0486 81.7756 18.988 81.6089L16.7255 75.5074V75.508C13.9131 67.7453 11.8584 59.7285 10.5899 51.5704C10.3953 50.3179 10.2873 49.0533 10.266 47.7853L66.4557 47.7848ZM69.5422 15.2326L75.3744 18.1817L74.0305 20.8468L72.1953 19.9182L70.8514 22.5833L72.6853 23.5105L71.3414 26.1756L68.6088 24.7891L67.2649 27.4542L69.9874 28.8307L68.6435 31.4958L66.8083 30.5686L65.4644 33.2337L67.2982 34.1609L66.005 36.7187C65.9197 36.5694 65.817 36.4201 65.7197 36.2707C65.6463 36.1601 65.5824 36.0421 65.503 35.9347C65.3924 35.7854 65.2671 35.6468 65.1464 35.5048C65.0657 35.4108 64.9971 35.3108 64.9091 35.2208C64.7598 35.0568 64.5838 34.9075 64.4131 34.7562C64.3491 34.6995 64.2925 34.6368 64.2265 34.5815V34.5829C63.9832 34.3829 63.7278 34.1989 63.4619 34.0302C63.9618 32.7477 64.0851 31.3491 63.8185 29.9985C63.8038 29.9225 63.7932 29.8492 63.7765 29.7699V29.7705C63.6872 29.3546 63.5605 28.9479 63.3992 28.5546C63.3679 28.4773 63.3319 28.4053 63.2959 28.3233C63.2392 28.1967 63.1912 28.0667 63.1272 27.9413L69.5422 15.2326ZM54.6847 5.39201L58.3478 4.18278L56.6032 7.63186L59.2703 8.97576L61.0069 5.52668L62.2161 9.18976L57.6858 13.1928L54.1573 11.4142L54.6847 5.39201ZM53.2515 14.2993L55.92 15.6432L52.8528 21.7133C52.8442 21.7027 52.8302 21.6967 52.8215 21.6867L52.8208 21.686C52.4942 21.3554 52.1382 21.0554 51.7562 20.7901L51.6356 20.7068C51.2363 20.4361 50.8116 20.2041 50.3677 20.0155L53.2515 14.2993ZM32.7252 6.32396C32.9259 5.54601 33.3338 4.83741 33.9051 4.2727C34.4764 3.70807 35.1897 3.30877 35.9697 3.11679C36.3317 3.03146 36.7017 2.9888 37.073 2.98813C38.0816 2.9848 39.0607 3.32678 39.8474 3.95739C40.9187 4.80066 41.544 6.08852 41.544 7.45187C41.544 8.81577 40.9187 10.1037 39.8474 10.9469C39.4295 11.2802 39.0968 11.7081 38.8769 12.1954L35.5005 13.0394L35.5011 13.0387C35.3605 12.2168 34.9252 11.4735 34.2765 10.9482C33.5933 10.4149 33.0813 9.69162 32.8053 8.86963C32.53 8.04703 32.502 7.16173 32.7253 6.32382L32.7252 6.32396ZM38.5575 15.3532V16.5765C38.5215 16.5838 38.4875 16.5958 38.4515 16.6052C38.3022 16.6398 38.1409 16.6845 37.9889 16.7292C37.8842 16.7591 37.7795 16.7891 37.6769 16.8245C37.4976 16.8845 37.3243 16.9545 37.1529 17.0291C37.0809 17.0591 37.0036 17.0891 36.941 17.1218C36.7436 17.2131 36.5543 17.3144 36.3663 17.4204L36.247 17.4904H36.2457C36.037 17.6151 35.835 17.7511 35.6397 17.8964L35.6144 17.9204L35.5964 16.0939L38.5575 15.3532ZM19.562 9.54368L19.8953 8.61642H19.8946C20.5453 7.34252 21.0419 5.99603 21.3745 4.60537L21.3892 4.53937H21.3899C24.2364 7.59322 25.5456 11.7722 24.9509 15.9046L24.5116 15.9779L23.7743 11.5595L20.8278 12.0508L21.5658 16.4692L20.8698 16.5859V16.5852C20.0485 15.6326 19.4946 14.4786 19.2646 13.2414C19.0346 12.0042 19.1373 10.7282 19.5619 9.54367L19.562 9.54368ZM25.0869 19.4423C24.2977 20.0529 23.6384 20.8142 23.1457 21.6821C23.1071 21.7481 23.0651 21.8121 23.0277 21.8794C22.9158 22.0888 22.8204 22.3067 22.7291 22.5287C22.6944 22.608 22.6498 22.678 22.6184 22.766L22.0585 19.4135L25.003 18.9222L25.0869 19.4423ZM13.3565 36.0631C13.5885 35.9925 13.8258 35.9385 14.0658 35.9005C14.1631 35.8871 14.2598 35.8765 14.3644 35.8705C14.5491 35.8511 14.7357 35.8511 14.9211 35.8705L15.1557 35.9005C15.8083 35.9718 16.431 35.6085 16.6903 35.0045C16.9489 34.4012 16.7829 33.6993 16.2816 33.2753C15.2657 32.4334 14.6744 31.1855 14.6657 29.8661C14.6677 29.5855 14.6957 29.3055 14.7511 29.0302C14.7944 28.8209 14.8537 28.6149 14.9284 28.4149C14.9451 28.3643 14.9571 28.3116 14.9744 28.2656H14.9751C15.1757 27.7556 15.4677 27.2863 15.835 26.8797C15.8423 26.871 15.8457 26.8604 15.8517 26.853C16.6936 25.9218 17.8894 25.3892 19.1455 25.3865C19.7014 25.3931 20.2514 25.5071 20.764 25.7225C20.7773 25.7225 20.7867 25.7371 20.8 25.7418C20.9953 25.8344 21.1853 25.9391 21.3673 26.0558C19.9461 27.4543 19.1454 29.3649 19.1454 31.3593H22.1318C22.1318 30.1714 22.6038 29.0314 23.4437 28.1917C24.2837 27.3519 25.4236 26.8798 26.6114 26.8798V23.8933C26.1921 23.9 25.7735 23.942 25.3615 24.02C25.4528 23.7287 25.5735 23.4473 25.7228 23.1814C25.7361 23.1574 25.7481 23.132 25.7628 23.1067H25.7635C26.1741 22.4287 26.7554 21.8701 27.4493 21.4862C27.46 21.4862 27.466 21.4715 27.476 21.4668C28.4273 20.9349 29.5425 20.7749 30.6058 21.0182C31.6684 21.2615 32.603 21.8908 33.2276 22.7841C33.5522 23.2354 34.1008 23.4694 34.6515 23.3914C35.2021 23.3127 35.6634 22.9348 35.8487 22.4108C36.1073 21.6869 36.5466 21.0423 37.1253 20.5364C37.2833 20.397 37.4512 20.2684 37.6266 20.1517L37.6532 20.135H37.6539C37.8332 20.0191 38.0212 19.9157 38.2152 19.8257C38.2792 19.7957 38.3465 19.7704 38.4125 19.7451C38.5825 19.6757 38.7578 19.6178 38.9365 19.5718C39.0231 19.5491 39.1098 19.5258 39.1978 19.5078C39.4784 19.4484 39.7637 19.4164 40.0504 19.4138C40.8916 19.4131 41.7156 19.6511 42.4269 20.1004C43.1382 20.5497 43.7068 21.1923 44.0674 21.9523C44.4041 22.6496 45.2174 22.9736 45.9412 22.6989C46.5705 22.4603 47.2458 22.3656 47.9164 22.4209C47.9564 22.4209 47.9937 22.4449 48.0344 22.4496C49.0989 22.5849 50.0762 23.1069 50.7809 23.9162C50.6869 23.9162 50.5989 23.8875 50.5029 23.8875C48.7824 23.8895 47.1151 24.4848 45.7826 25.5727C44.4494 26.6606 43.5327 28.1752 43.1861 29.8604C41.1816 29.8291 39.2484 30.6017 37.8178 32.0055C36.3866 33.4094 35.5773 35.328 35.5707 37.3325H38.5571C38.5571 36.1446 39.0291 35.0046 39.869 34.1648C40.709 33.325 41.8489 32.8529 43.0367 32.8529C43.42 32.8596 43.8013 32.9162 44.1699 33.0216C44.6286 33.1429 45.1165 33.0396 45.4865 32.7429C45.8565 32.4463 46.0631 31.9916 46.0438 31.5177C46.0458 31.4643 46.0391 31.411 46.0231 31.3597C46.0231 30.1718 46.4951 29.0318 47.335 28.192C48.175 27.3522 49.315 26.8801 50.5027 26.8801C51.154 26.8834 51.7959 27.0294 52.3838 27.3087C52.4931 27.4207 52.6198 27.5147 52.7591 27.5867C52.8544 27.6327 52.9544 27.6687 53.0578 27.6927C54.2597 28.5273 54.9783 29.8965 54.9822 31.3597H57.9687C57.964 29.7392 57.4274 28.1659 56.4408 26.88H56.4755C57.96 26.8814 59.3472 27.618 60.1798 28.8465C60.1992 28.8732 60.2112 28.9032 60.2292 28.9318C60.3552 29.1238 60.4645 29.3265 60.5578 29.5364C60.5925 29.6111 60.6191 29.6858 60.6491 29.7678C60.7185 29.9458 60.7751 30.1284 60.8191 30.3144C60.8385 30.3937 60.8578 30.471 60.8731 30.5517C60.9251 30.8177 60.9531 31.0883 60.9551 31.3596C60.9564 32.2536 60.6891 33.1268 60.1878 33.8667C59.9305 34.2507 59.8659 34.7313 60.0119 35.1699C60.1579 35.6079 60.4985 35.9539 60.9344 36.1066C61.1564 36.1845 61.3724 36.2792 61.5811 36.3905C62.2924 36.7705 62.8876 37.3371 63.3037 38.0284C63.7196 38.7204 63.9396 39.5116 63.9416 40.3189C63.9369 40.5789 63.9096 40.8376 63.8596 41.0922C63.8603 41.1035 63.8603 41.1142 63.8596 41.1255C63.671 42.1548 63.1283 43.086 62.3251 43.7567C61.5218 44.428 60.5085 44.7966 59.462 44.7986H14.6654C13.2295 44.8013 11.8796 44.1127 11.0383 42.9494C10.197 41.7855 9.96638 40.2882 10.419 38.9257C10.871 37.5625 11.9516 36.5006 13.3215 36.0707C13.3288 36.066 13.3421 36.068 13.3561 36.0633L13.3565 36.0631ZM11.786 23.8008L12.9239 25.7553C12.8466 25.8719 12.7939 26.0033 12.7239 26.1239C12.6013 26.3312 12.4819 26.5392 12.3806 26.7559C12.3033 26.9232 12.2313 27.0945 12.1733 27.2678H12.172C12.0706 27.5378 11.9846 27.8125 11.9153 28.0924C11.8853 28.2178 11.8453 28.3371 11.8213 28.4657C11.7467 28.829 11.6993 29.197 11.6793 29.5677L9.19888 25.3119L11.786 23.8008ZM8.77684 18.6419L10.2807 21.2203L7.70232 22.7255L6.19776 20.1458L8.77684 18.6419ZM3.72651 12.9436C4.06848 12.7443 4.47578 12.6883 4.85909 12.789C5.24239 12.8903 5.5697 13.1389 5.76901 13.4809L7.2729 16.0614L4.69244 17.5653L3.18856 14.9862C2.98923 14.6442 2.93324 14.2369 3.03457 13.8536C3.13523 13.4703 3.38388 13.143 3.72652 12.9437L3.72651 12.9436Z" fill="#0071FF"/>
</svg>
