<svg width="63" height="87" viewBox="0 0 63 87" fill="none" xmlns="http://www.w3.org/2000/svg">
<path d="M62.3686 18.4559L47.4364 0.537286C47.1531 0.196644 46.7332 0 46.2899 0H1.49322C0.668622 0 0 0.668621 0 1.49322V85.1136C0 85.5096 0.157322 85.8896 0.4373 86.1695C0.717279 86.4495 1.09725 86.6068 1.49322 86.6068H61.2221C61.618 86.6068 61.998 86.4495 62.278 86.1695C62.558 85.8895 62.7153 85.5096 62.7153 85.1136V19.4119C62.7153 19.0626 62.5926 18.7246 62.3686 18.4559ZM47.783 5.61765L58.0342 17.9187H47.783V5.61765ZM59.7288 83.6201H2.98641V2.98617H44.7966V19.4116C44.7966 19.8076 44.9539 20.1875 45.2339 20.4675C45.5139 20.7475 45.8939 20.9048 46.2898 20.9048H59.7288V83.6201ZM11.9457 11.9455C11.9457 11.1209 12.6144 10.4523 13.439 10.4523H29.8644C30.689 10.4523 31.3576 11.1209 31.3576 11.9455C31.3576 12.7701 30.689 13.4387 29.8644 13.4387H13.439C12.6144 13.4387 11.9457 12.7701 11.9457 11.9455ZM13.439 29.8642H49.2763C50.1009 29.8642 50.7695 30.5328 50.7695 31.3574C50.7695 32.182 50.1009 32.8506 49.2763 32.8506H13.439C12.6144 32.8506 11.9457 32.182 11.9457 31.3574C11.9457 30.5328 12.6144 29.8642 13.439 29.8642ZM50.7695 38.8235C50.7695 39.2194 50.6122 39.5994 50.3322 39.8794C50.0522 40.1594 49.6722 40.3167 49.2763 40.3167H13.439C12.6144 40.3167 11.9457 39.6481 11.9457 38.8235C11.9457 37.9989 12.6144 37.3303 13.439 37.3303H49.2763C49.6722 37.3303 50.0522 37.4876 50.3322 37.7676C50.6122 38.0475 50.7695 38.4275 50.7695 38.8235ZM50.7695 46.2896C50.7695 46.6856 50.6122 47.0655 50.3322 47.3455C50.0522 47.6255 49.6722 47.7828 49.2763 47.7828H13.439C12.6144 47.7828 11.9457 47.1142 11.9457 46.2896C11.9457 45.465 12.6144 44.7964 13.439 44.7964H49.2763C49.6722 44.7964 50.0522 44.9537 50.3322 45.2337C50.6122 45.5136 50.7695 45.8936 50.7695 46.2896ZM25.3847 52.2625H13.439C12.6144 52.2625 11.9457 52.9311 11.9457 53.7557V65.7015C11.9457 66.0974 12.1031 66.4774 12.383 66.7574C12.663 67.0374 13.043 67.1947 13.439 67.1947H25.3847C25.7807 67.1947 26.1607 67.0374 26.4406 66.7574C26.7206 66.4774 26.8779 66.0974 26.8779 65.7015V53.7557C26.8779 53.3597 26.7206 52.9797 26.4406 52.6998C26.1607 52.4198 25.7807 52.2625 25.3847 52.2625ZM23.8915 64.2082H14.9322V55.2489H23.8915V64.2082ZM26.8779 73.1676C26.8779 73.5635 26.7206 73.9435 26.4406 74.2235C26.1607 74.5035 25.7807 74.6608 25.3847 74.6608H13.439C12.6144 74.6608 11.9457 73.9922 11.9457 73.1676C11.9457 72.343 12.6144 71.6743 13.439 71.6743H25.3847C25.7807 71.6743 26.1607 71.8317 26.4406 72.1116C26.7206 72.3916 26.8779 72.7716 26.8779 73.1676Z" fill="#0071FF"/>
</svg>
