<svg width="92" height="89" viewBox="0 0 92 89" fill="none" xmlns="http://www.w3.org/2000/svg">
<path d="M74.8402 13.4C69.9501 8.50985 63.4488 5.81702 56.5325 5.81702C49.6162 5.81702 43.1149 8.50902 38.2248 13.4C33.3347 18.2901 30.6418 24.7931 30.6418 31.7077C30.6418 38.6223 33.3355 45.1253 38.2248 50.0154C43.1149 54.9055 49.6179 57.5984 56.5325 57.5984C63.4471 57.5984 69.9501 54.9064 74.8402 50.0154C79.7303 45.1253 82.4232 38.624 82.4232 31.7077C82.424 24.7914 79.7312 18.2892 74.8402 13.4ZM39.7143 14.8885C44.2072 10.3964 50.1799 7.92299 56.5327 7.92299C62.8855 7.92299 68.8582 10.3972 73.3503 14.8885C76.2822 17.8204 78.3479 21.3857 79.4342 25.2725L74.2447 28.2834C73.4536 27.4899 72.359 26.9974 71.1522 26.9974C68.7419 26.9974 66.7812 28.9574 66.7812 31.3685C66.7812 31.739 66.8328 32.0982 66.9208 32.4429L60.112 36.3725C59.3209 35.2448 58.0141 34.5054 56.5345 34.5054C54.9088 34.5054 53.4906 35.399 52.7365 36.7196L46.1714 33.2938C46.2432 32.9782 46.286 32.6512 46.286 32.3146C46.286 29.9043 44.3261 27.9445 41.9158 27.9445C39.5055 27.9445 37.5448 29.9044 37.5448 32.3146C37.5448 32.6335 37.5811 32.9427 37.6465 33.2413L33.1147 35.8558C32.8774 34.4981 32.7491 33.1113 32.7491 31.7043C32.7474 25.3546 35.2216 19.3821 39.7145 14.8883L39.7143 14.8885ZM68.8867 31.3703C68.8867 30.1223 69.9022 29.1052 71.1518 29.1052C72.3997 29.1052 73.4168 30.1207 73.4168 31.3703C73.4168 32.6198 72.4014 33.6353 71.1518 33.6353C69.9022 33.6345 68.8867 32.619 68.8867 31.3703ZM58.7974 38.879C58.7974 40.127 57.7819 41.1441 56.5323 41.1441C55.2843 41.1441 54.2672 40.1286 54.2672 38.879C54.2672 37.6294 55.2827 36.6139 56.5323 36.6139C57.7819 36.6139 58.7974 37.6294 58.7974 38.879ZM39.6502 32.3179C39.6502 31.07 40.6657 30.0529 41.9153 30.0529C43.1633 30.0529 44.1787 31.0684 44.1787 32.3179C44.1787 33.5659 43.1632 34.583 41.9153 34.583C40.6657 34.583 39.6502 33.5659 39.6502 32.3179ZM73.3503 48.5261C68.8582 53.0182 62.8855 55.4916 56.5327 55.4916C50.1799 55.4916 44.2072 53.0174 39.7143 48.5261C36.7501 45.562 34.6725 41.9514 33.5948 38.0146L38.5802 35.1376C39.3834 36.0845 40.5781 36.6891 41.9149 36.6891C43.2331 36.6891 44.4132 36.0998 45.2156 35.174L52.1658 38.8C52.1658 38.8259 52.1626 38.8517 52.1626 38.8783C52.1626 41.2887 54.1225 43.2493 56.5336 43.2493C58.9447 43.2493 60.9046 41.2894 60.9046 38.8783C60.9046 38.7048 60.8917 38.5344 60.8715 38.3673L67.9178 34.3005C68.7186 35.1828 69.8696 35.7414 71.1522 35.7414C73.5626 35.7414 75.5233 33.7815 75.5233 31.3704C75.5233 30.9256 75.4563 30.4954 75.3311 30.0902L79.9282 27.4223C80.1825 28.8228 80.3181 30.254 80.3181 31.7078C80.3165 38.0622 77.8416 44.0333 73.3501 48.5262L73.3503 48.5261ZM91.8453 19.2917C91.5538 18.7888 90.9089 18.6177 90.406 18.9091L86.4594 21.1983C84.908 16.7676 82.3701 12.7047 78.9515 9.28695C72.9635 3.29748 65.0012 0 56.5303 0C48.061 0 40.0985 3.2983 34.1111 9.28695C25.8815 17.5148 22.9724 29.2598 25.9113 40.0134L17.877 44.6485C17.3742 44.9391 17.2006 45.584 17.4912 46.0877C17.6857 46.4251 18.0401 46.614 18.405 46.614C18.5834 46.614 18.7642 46.568 18.9305 46.4736L26.5554 42.0751C27.2036 43.9349 28.0253 45.7567 29.0384 47.5141L26.5111 50.0414C25.6054 50.9471 25.1058 52.1562 25.1058 53.4446C25.1058 54.2454 25.2995 55.0155 25.6627 55.7016L19.05 62.3144H19.042C17.1967 62.3144 15.4659 63.0288 14.1696 64.3251L0.981369 77.5117C-0.327123 78.8202 -0.327123 80.9506 0.981369 82.2591L5.97976 87.2574C6.63361 87.9113 7.49329 88.239 8.3529 88.239C9.21251 88.239 10.0723 87.9121 10.726 87.2574L23.9126 74.0708C25.2106 72.7729 25.925 71.0431 25.925 69.1977V69.188L32.5378 62.5753C33.2239 62.9393 33.994 63.1323 34.7948 63.1323C36.0831 63.1323 37.2906 62.6326 38.1964 61.7269L40.7237 59.1996C45.671 62.0524 51.1222 63.4456 56.5378 63.4456C64.7173 63.4456 72.8138 60.2642 78.9508 54.1262C84.9403 48.1382 88.2377 40.1758 88.2377 31.707C88.2377 28.8131 87.843 25.9798 87.0971 23.2628L91.4618 20.7313C91.9647 20.4407 92.1366 19.7966 91.8444 19.2929L91.8453 19.2917ZM22.4241 72.582L9.23811 85.7686C8.74893 86.2561 7.95706 86.2553 7.4703 85.7686L2.47273 80.7702C1.98517 80.2826 1.98517 79.4891 2.47273 79.0024L15.6602 65.8158C16.5586 64.9157 17.7597 64.4209 19.0432 64.4209C20.3008 64.4209 21.4794 64.9004 22.3729 65.7673C22.3907 65.7835 22.4092 65.7988 22.4262 65.8158C23.3262 66.7142 23.821 67.9153 23.821 69.1988C23.8186 70.4799 23.3238 71.6827 22.4238 72.5818L22.4241 72.582ZM25.6304 66.5053C25.2857 65.937 24.8676 65.4051 24.4212 64.8957C24.2686 64.7044 24.1056 64.5203 23.9312 64.3444C23.9256 64.3387 23.9207 64.3314 23.9151 64.3258C23.9094 64.3201 23.903 64.3161 23.8973 64.3105C23.7213 64.1353 23.5357 63.9739 23.3444 63.8205C22.8342 63.3733 22.3014 62.9551 21.734 62.6104L27.0027 57.3418L30.8984 61.2375L25.6304 66.5053ZM77.4618 52.6388C67.7541 62.3465 52.8066 64.132 41.1083 56.9784L40.4012 56.5449L36.709 60.2371C35.6919 61.2526 33.8982 61.2526 32.8827 60.2371L28.0015 55.3559C27.4938 54.8482 27.2137 54.1693 27.2137 53.4428C27.2137 52.7163 27.4938 52.0374 28.0015 51.5289L31.6937 47.8367L31.2602 47.1296C29.9404 44.9712 28.9265 42.7028 28.2097 40.3763C28.1968 40.2746 28.1637 40.1745 28.1201 40.0761C25.0914 29.872 27.7601 18.6157 35.5997 10.7755C41.1914 5.18384 48.6232 2.10603 56.531 2.10603C64.4388 2.10603 71.8713 5.18466 77.4623 10.7755C80.939 14.2522 83.4429 18.4426 84.8403 23.0152C84.8508 23.058 84.8629 23.0992 84.879 23.142C85.7032 25.8842 86.1318 28.7626 86.1318 31.7081C86.1334 39.6149 83.0538 47.0484 77.464 52.6395L77.4618 52.6388Z" fill="#0071FF"/>
</svg>
