<svg width="87" height="87" viewBox="0 0 87 87" fill="none" xmlns="http://www.w3.org/2000/svg">
<path d="M79.7057 47.0988H76.0831V45.2878H72.0438C71.1983 45.2878 70.4651 44.7025 70.2777 43.8783C69.915 42.2904 69.286 40.7749 68.417 39.3969C67.9657 38.6818 68.0701 37.7491 68.6675 37.151L71.5277 34.2907L68.9665 31.7295L66.1062 34.5898L66.1056 34.5892C65.5082 35.1866 64.5766 35.2909 63.8616 34.8415C62.483 33.9693 60.9673 33.3367 59.3784 32.9698C58.5572 32.783 57.9731 32.0552 57.9689 31.2128V27.1735H54.3462V31.2128C54.3462 32.0583 53.7616 32.7915 52.9368 32.9789C51.3484 33.3428 49.8327 33.9724 48.4535 34.8415C47.7384 35.2909 46.8074 35.1866 46.2095 34.5892L43.3492 31.7289L40.788 34.2901L43.6483 37.1504V37.151C44.2457 37.749 44.3494 38.6818 43.8981 39.3969C43.0296 40.7749 42.4007 42.2905 42.0381 43.8783C41.8501 44.7025 41.1174 45.2878 40.2719 45.2878H36.232V47.0994L32.6094 47.0988V43.4762C32.6094 42.4761 33.4203 41.6646 34.421 41.6646H38.8879C39.2057 40.6529 39.6133 39.671 40.107 38.7321L36.946 35.5711C36.2388 34.8639 36.2388 33.7171 36.946 33.0098L42.0684 27.8874C42.7762 27.1802 43.9225 27.1802 44.6303 27.8874L47.7913 31.0484L47.7907 31.0478C48.7302 30.5553 49.7115 30.1477 50.7238 29.8287V25.3618C50.7238 24.3617 51.5347 23.5508 52.5348 23.5508H59.7806C60.261 23.5508 60.7219 23.7412 61.0616 24.0809C61.4012 24.4211 61.5923 24.8814 61.5923 25.3618V29.8287C62.6039 30.1478 63.5852 30.5553 64.5247 31.0478L67.6857 27.8868V27.8874C68.3929 27.1802 69.5397 27.1802 70.247 27.8874L75.3694 33.0099C76.0766 33.717 76.0766 34.8639 75.3694 35.5711L72.2084 38.7321H72.209C72.7021 39.671 73.1103 40.6529 73.4281 41.6646H77.895C78.3754 41.6646 78.8357 41.8556 79.1759 42.1953C79.5156 42.5349 79.706 42.9958 79.706 43.4762L79.7057 47.0988Z" fill="#0071FF"/>
<path d="M63.3973 47.101H59.7747C59.7747 45.8067 59.0839 44.6107 57.9631 43.9636C56.8423 43.3164 55.4613 43.3164 54.3405 43.9636C53.2196 44.6107 52.5289 45.8067 52.5289 47.101H48.9062C48.9062 44.5124 50.2872 42.1204 52.5289 40.8262C54.771 39.5319 57.533 39.5319 59.7747 40.8262C62.0164 42.1204 63.3973 44.5124 63.3973 47.101Z" fill="#0071FF"/>
<path d="M81.5135 86.9427H5.43423C3.9932 86.9427 2.61091 86.3701 1.59145 85.3512C0.572535 84.3317 0 82.9495 0 81.5084V77.8858C0 76.8851 0.810896 76.0742 1.81162 76.0742H85.1355C85.6158 76.0742 86.0767 76.2653 86.4164 76.6049C86.756 76.9445 86.9471 77.4055 86.9471 77.8858V81.5084C86.9471 82.9495 86.3745 84.3318 85.3556 85.3512C84.3361 86.3701 82.9538 86.9427 81.5128 86.9427H81.5135ZM3.6223 79.6968V81.5084C3.6223 81.9888 3.81336 82.4497 4.15299 82.7894C4.49263 83.129 4.95357 83.3201 5.43392 83.3201H81.5131C81.9935 83.3201 82.4544 83.129 82.7941 82.7894C83.1337 82.4497 83.3248 81.9888 83.3248 81.5084V79.6968H3.6223Z" fill="#0071FF"/>
<path d="M34.4219 77.8945H52.5365V81.5171H34.4219V77.8945Z" fill="#0071FF"/>
<path d="M79.7045 79.6996H7.24912C6.2484 79.6996 5.4375 78.8887 5.4375 77.8886V27.1686C5.4375 25.7276 6.01003 24.3453 7.02895 23.3258C8.04848 22.3069 9.43073 21.7344 10.8717 21.7344H21.7402V25.357H10.8717C9.87161 25.357 9.06011 26.1685 9.06011 27.1686V76.0767H77.8947V65.2082H81.5173V77.8883C81.5173 78.3686 81.3263 78.829 80.9867 79.1692C80.647 79.5089 80.1861 79.6993 79.7057 79.6993L79.7045 79.6996Z" fill="#0071FF"/>
<path d="M36.2357 68.8336C35.9979 68.8349 35.762 68.7876 35.5418 68.696C34.8656 68.4158 34.424 67.7553 34.4247 67.0227V61.5885H30.8014C29.3604 61.5885 27.9781 61.0159 26.9593 59.9964C25.9397 58.9775 25.3672 57.5952 25.3672 56.1542V5.43423C25.3672 3.9932 25.9397 2.61091 26.9593 1.59145C27.9782 0.572535 29.3604 0 30.8014 0H81.5214C82.9625 0 84.3447 0.572535 85.3642 1.59145C86.3831 2.61098 86.9557 3.99323 86.9557 5.43423V56.1542C86.9557 57.5953 86.3831 58.9776 85.3642 59.9964C84.3447 61.0159 82.9624 61.5885 81.5214 61.5885H44.2317L37.5166 68.3036L37.5172 68.303C37.1775 68.6427 36.7166 68.8337 36.2363 68.8337L36.2357 68.8336ZM30.8014 3.62288C29.8013 3.62288 28.9904 4.43438 28.9904 5.4345V56.1545C28.9904 56.6349 29.1809 57.0952 29.5205 57.4354C29.8608 57.7751 30.3211 57.9655 30.8015 57.9655H36.2357C36.716 57.9655 37.177 58.1566 37.5166 58.4962C37.8562 58.8358 38.0473 59.2968 38.0473 59.7771V62.6501L42.2006 58.4968V58.4962C42.5402 58.1566 43.0012 57.9661 43.4815 57.9655H81.5212C82.0015 57.9655 82.4624 57.7751 82.8021 57.4354C83.1417 57.0952 83.3328 56.6349 83.3328 56.1545V5.43451C83.3328 4.95416 83.1417 4.49323 82.8021 4.15359C82.4624 3.81395 82.0015 3.6229 81.5212 3.6229L30.8014 3.62288Z" fill="#0071FF"/>
<path d="M27.1719 10.8672H85.1365V14.4898H27.1719V10.8672Z" fill="#0071FF"/>
<path d="M21.7365 72.4559H18.1139C16.6723 72.4559 15.29 71.8834 14.2711 70.8638C13.2522 69.8449 12.6797 68.4627 12.6797 67.0217V63.3984H16.3023V67.0217C16.3023 67.502 16.4934 67.9624 16.833 68.3026C17.1726 68.6422 17.6336 68.8327 18.1139 68.8327H21.7365V72.4559Z" fill="#0071FF"/>
<path d="M25.3672 68.832H28.9898V72.4546H25.3672V68.832Z" fill="#0071FF"/>
</svg>
