<svg width="36" height="24" viewBox="0 0 36 24" fill="none" xmlns="http://www.w3.org/2000/svg">
<g clip-path="url(#clip0_925_9748)">
<path d="M0 0H36V24H0V0Z" fill="white"/>
<path d="M0 0H36V1.84561H0V0ZM0 3.69123H36V5.53684H0V3.69123ZM0 7.38246H36V9.22807H0V7.38246ZM0 11.0737H36V12.9193H0V11.0737ZM0 14.7719H36V16.6175H0V14.7719ZM0 18.4632H36V20.3088H0V18.4632ZM0 22.1544H36V24H0V22.1544Z" fill="#D80027"/>
<path d="M0 0H18V12.9193H0V0Z" fill="#2E52B2"/>
<path d="M3.35417 9.74646L3.07347 8.84821L2.76469 9.74646H1.83838L2.58926 10.2868L2.30855 11.1851L3.07347 10.6307L3.81733 11.1851L3.52961 10.2868L4.29452 9.74646H3.35417ZM7.30505 9.74646L7.01733 8.84821L6.72259 9.74646H5.79627L6.54715 10.2868L6.26645 11.1851L7.01733 10.6307L7.77522 11.1851L7.49452 10.2868L8.2454 9.74646H7.30505ZM11.27 9.74646L10.9682 8.84821L10.6875 9.74646H9.74013L10.5121 10.2868L10.2173 11.1851L10.9682 10.6307L11.7401 11.1851L11.4454 10.2868L12.1963 9.74646H11.27ZM15.2138 9.74646L14.9331 8.84821L14.6384 9.74646H13.705L14.4629 10.2868L14.1822 11.1851L14.9331 10.6307L15.691 11.1851L15.3893 10.2868L16.1612 9.74646H15.2138ZM7.01733 5.2833L6.72259 6.18155H5.79627L6.54715 6.73593L6.26645 7.62014L7.01733 7.07277L7.77522 7.62014L7.49452 6.73593L8.2454 6.18155H7.30505L7.01733 5.2833ZM3.07347 5.2833L2.76469 6.18155H1.83838L2.58926 6.73593L2.30855 7.62014L3.07347 7.07277L3.81733 7.62014L3.52961 6.73593L4.29452 6.18155H3.35417L3.07347 5.2833ZM10.9682 5.2833L10.6875 6.18155H9.74013L10.5121 6.73593L10.2173 7.62014L10.9682 7.07277L11.7401 7.62014L11.4454 6.73593L12.1963 6.18155H11.27L10.9682 5.2833ZM14.9331 5.2833L14.6384 6.18155H13.705L14.4629 6.73593L14.1822 7.62014L14.9331 7.07277L15.691 7.62014L15.3893 6.73593L16.1612 6.18155H15.2138L14.9331 5.2833ZM3.07347 1.73242L2.76469 2.61663H1.83838L2.58926 3.17102L2.30855 4.06225L3.07347 3.50786L3.81733 4.06225L3.52961 3.17102L4.29452 2.61663H3.35417L3.07347 1.73242ZM7.01733 1.73242L6.72259 2.61663H5.79627L6.54715 3.17102L6.26645 4.06225L7.01733 3.50786L7.77522 4.06225L7.49452 3.17102L8.2454 2.61663H7.30505L7.01733 1.73242ZM10.9682 1.73242L10.6875 2.61663H9.74013L10.5121 3.17102L10.2173 4.06225L10.9682 3.50786L11.7401 4.06225L11.4454 3.17102L12.1963 2.61663H11.27L10.9682 1.73242ZM14.9331 1.73242L14.6384 2.61663H13.705L14.4629 3.17102L14.1822 4.06225L14.9331 3.50786L15.691 4.06225L15.3893 3.17102L16.1612 2.61663H15.2138L14.9331 1.73242Z" fill="white"/>
</g>
<defs>
<clipPath id="clip0_925_9748">
<rect width="36" height="24" fill="white"/>
</clipPath>
</defs>
</svg>
