<svg width="36" height="24" viewBox="0 0 36 24" fill="none" xmlns="http://www.w3.org/2000/svg">
<g clip-path="url(#clip0_925_9734)">
<path d="M0 0H36V24H0V0Z" fill="#0043C8"/>
<path d="M17.998 2.66016L18.2974 3.58096H19.2704L18.4867 4.15038L18.7818 5.07216L17.998 4.50273L17.2143 5.07216L17.5137 4.15087L16.73 3.58145H17.6987L17.998 2.66016ZM13.998 3.72682L14.2974 4.64762H15.2704L14.4867 5.21704L14.7818 6.13882L13.998 5.5694L13.2143 6.13882L13.5137 5.21753L12.73 4.64811H13.6987L13.998 3.72682ZM11.0647 6.66016L11.364 7.58096H12.3371L11.5534 8.15038L11.8484 9.07215L11.0647 8.50273L10.281 9.07215L10.5803 8.15087L9.79665 7.58144H10.7654L11.0647 6.66016ZM9.99802 10.6601L10.2974 11.581H11.2704L10.4867 12.1504L10.7818 13.0722L9.99802 12.5027L9.21429 13.0722L9.51367 12.1508L8.72998 11.5814H9.69869L9.99802 10.6601ZM11.0647 14.6602L11.364 15.581H12.3371L11.5534 16.1504L11.8484 17.0722L11.0647 16.5028L10.281 17.0722L10.5803 16.1509L9.79665 15.5814H10.7654L11.0647 14.6602ZM13.998 17.5935L14.2974 18.5143H15.2704L14.4867 19.0837L14.7818 20.0055L13.998 19.4361L13.2143 20.0055L13.5137 19.0842L12.73 18.5148H13.6987L13.998 17.5935ZM21.998 3.72682L22.2974 4.64762H23.2704L22.4867 5.21704L22.7817 6.13882L21.998 5.5694L21.2142 6.13882L21.5137 5.21753L20.73 4.64811H21.6986L21.998 3.72682ZM24.9314 6.66016L25.2307 7.58096H26.2038L25.4201 8.15038L25.715 9.07215L24.9314 8.50273L24.1476 9.07215L24.447 8.15087L23.6633 7.58144H24.632L24.9314 6.66016ZM25.998 10.6602L26.2974 11.581H27.2704L26.4867 12.1504L26.7818 13.0722L25.998 12.5027L25.2143 13.0722L25.5137 12.1508L24.73 11.5814H25.6987L25.998 10.6602ZM24.9314 14.6602L25.2307 15.581H26.2038L25.4201 16.1504L25.7151 17.0722L24.9314 16.5028L24.1476 17.0722L24.447 16.1509L23.6633 15.5814H24.632L24.9314 14.6602ZM17.998 18.6602L18.2974 19.581H19.2704L18.4867 20.1504L18.7818 21.0722L17.998 20.5028L17.2143 21.0722L17.5137 20.1509L16.73 19.5814H17.6987L17.998 18.6602ZM21.998 17.5934L22.2974 18.5143H23.2704L22.4867 19.0837L22.7818 20.0055L21.998 19.4361L21.2143 20.0055L21.5137 19.0842L20.73 18.5148H21.6987L21.998 17.5934Z" fill="#FFCC00"/>
</g>
<defs>
<clipPath id="clip0_925_9734">
<rect width="36" height="24" fill="white"/>
</clipPath>
</defs>
</svg>
