<svg width="99" height="79" viewBox="0 0 99 79" fill="none" xmlns="http://www.w3.org/2000/svg">
<path d="M34.2051 43.4086C34.4076 43.4528 34.5245 43.4683 34.6362 43.5047C35.6702 43.8357 36.7398 44.0432 37.8227 44.1228C38.7303 44.2016 39.6422 44.2181 40.5521 44.1721C41.7693 44.1073 42.9783 43.9334 44.1645 43.6527C46.1527 43.1741 48.0049 42.2467 49.5792 40.9415C50.7002 40.0023 51.6899 38.9165 52.5215 37.7134C53.5337 36.2454 54.4074 34.6866 55.1315 33.0571C56.0872 30.9457 57.0273 28.8266 57.9882 26.7231C58.6244 25.327 59.3822 23.9896 60.2527 22.7263C61.0217 21.5764 61.9796 20.5649 63.086 19.7346C64.5922 18.6221 66.3578 17.9132 68.215 17.6752C69.0102 17.5593 69.814 17.5132 70.6172 17.5376C71.3132 17.5687 72.0066 17.6362 72.6948 17.6778C72.8096 17.6712 72.9225 17.709 73.01 17.7835C73.0976 17.858 73.153 17.9634 73.1649 18.0777C73.3389 18.9321 73.544 19.7787 73.6843 20.6357C73.8276 21.5885 73.9204 22.5481 73.9622 23.5106C74.012 24.5944 73.9799 25.6804 73.8661 26.7594C73.6931 28.682 73.2858 30.5763 72.6533 32.4C71.3346 36.2182 69.0948 39.6523 66.1323 42.3984C64.6334 43.7797 62.97 44.9712 61.1798 45.9459C58.9749 47.1466 56.596 47.9957 54.1291 48.4623C53.1198 48.6764 52.0933 48.799 51.062 48.8285C50.4725 48.8285 49.8856 48.8752 49.2961 48.8908C47.9693 48.902 46.6447 48.7837 45.3409 48.5376C43.0387 48.1471 40.8054 47.4246 38.7108 46.3925C37.5301 45.8131 36.4007 45.1346 35.3348 44.3643C35.0733 44.1773 34.8136 43.9877 34.5557 43.7956C34.4098 43.6962 34.2896 43.5636 34.2051 43.4086Z" fill="white"/>
<path d="M72.6447 16.7553C72.5304 16.6151 72.4058 16.4775 72.2967 16.3294C71.7255 15.5678 71.0904 14.8563 70.3983 14.2025C68.9569 12.7777 67.0997 11.8482 65.0953 11.5484C64.9629 11.5286 64.8292 11.519 64.6954 11.5198C64.1993 11.5198 63.7033 11.5198 63.2073 11.5198C62.3331 11.5274 61.4623 11.6301 60.6103 11.8263C59.3118 12.1016 58.0419 12.4963 56.7694 12.8651C55.3774 13.265 53.988 13.6649 52.5857 14.0259C51.6491 14.2593 50.6927 14.4045 49.729 14.4596C48.9403 14.5087 48.1489 14.4913 47.3632 14.4077C45.8177 14.2555 44.3523 13.6471 43.1535 12.6599C41.8943 11.6489 41.0602 10.2023 40.8162 8.60603C40.6278 7.56554 40.693 6.49497 41.0063 5.48504C41.3196 4.47511 41.8717 3.55558 42.6159 2.80439C43.732 1.65034 45.1489 0.831715 46.7061 0.441143C47.5724 0.205783 48.4612 0.0630154 49.3576 0.0152394C50.7358 -0.0397747 52.1159 0.0542624 53.4738 0.295713C54.8648 0.518733 56.2328 0.866397 57.5615 1.3345C59.2839 1.93657 60.9337 2.72924 62.4801 3.69775C63.7749 4.51324 64.9919 5.44601 66.1159 6.4843C68.0297 8.25038 69.6505 10.3095 70.9177 12.5846C71.5806 13.7807 72.1451 15.0288 72.6057 16.3164C72.6551 16.4489 72.6889 16.5891 72.7304 16.7268L72.6447 16.7553Z" fill="white"/>
<path d="M25.2795 21.6602C25.3593 21.7308 25.4347 21.8063 25.5054 21.8861C26.1466 22.6605 26.8297 23.3992 27.5518 24.0987C29.1026 25.6059 30.9144 26.8185 32.899 27.6773C34.1404 28.2201 35.4155 28.6746 36.6932 29.1213C37.732 29.4874 38.7708 29.8718 39.7966 30.3366C40.8147 30.8005 41.6899 31.5286 42.3312 32.4454C42.9794 33.3255 43.342 34.3833 43.37 35.4761C43.4099 36.0922 43.3715 36.7108 43.2557 37.3173C42.9472 38.6501 42.1977 39.8396 41.1288 40.6934C40.0708 41.5562 38.7565 42.0439 37.3918 42.0802C37.0854 42.1107 36.7777 42.1246 36.4698 42.1217C36.0563 42.0898 35.6451 42.0317 35.2389 41.9477C33.7085 41.6299 32.2894 40.9132 31.1253 39.8701C30.2999 39.1438 29.568 38.3177 28.9464 37.4108C27.4406 35.2338 26.3586 32.7924 25.7573 30.2146C25.4629 29.0039 25.252 27.7743 25.1263 26.5347C25.1263 26.4282 25.1133 26.3217 25.1133 26.2152C25.1133 25.0232 25.1133 23.8286 25.1133 22.6366C25.1251 22.3559 25.1511 22.0759 25.1912 21.7978C25.2042 21.7536 25.2379 21.7251 25.2795 21.6602Z" fill="white"/>
<path d="M38.9756 63.7224C38.9756 63.8808 38.9626 64.0366 38.9626 64.1925C38.9626 67.1149 38.9626 70.0356 38.9626 72.9546C38.9626 74.3362 38.9626 75.7152 38.9626 77.0942C38.9579 77.322 38.9388 77.5492 38.9055 77.7746C38.8795 77.9642 38.8354 77.9902 38.6458 78.0109C38.5783 78.0148 38.5107 78.0148 38.4432 78.0109H36.6747C36.6081 78.0148 36.5413 78.0148 36.4747 78.0109C36.2488 77.9876 36.1917 77.933 36.1709 77.7175C36.1644 77.5972 36.1644 77.4768 36.1709 77.3565C36.1709 71.8769 36.1709 66.3964 36.1709 60.9151C36.1566 60.4301 36.2937 59.9527 36.563 59.5491C37.2408 58.5518 38.9211 58.4168 39.656 59.5231C40.1598 60.2814 40.6403 61.0553 41.1129 61.8344C43.1489 65.1897 45.1815 68.5476 47.2106 71.9081C47.421 72.2509 47.6391 72.5885 47.8547 72.9261C47.9118 73.017 47.9767 73.0975 48.0754 73.2299C48.1054 73.1501 48.1272 73.0674 48.1403 72.9832C48.1403 72.5677 48.1533 72.1522 48.1533 71.7367C48.1533 68.0645 48.1533 64.3933 48.1533 60.7229C48.1533 60.2295 48.1845 59.7334 48.2104 59.2374C48.2234 58.9777 48.2754 58.9206 48.5455 58.8868C48.6394 58.876 48.734 58.8716 48.8285 58.8738H50.3556C50.4492 58.873 50.5428 58.8773 50.636 58.8868C50.8801 58.9206 50.9347 58.9777 50.9555 59.2167C50.9555 59.3101 50.9555 59.4036 50.9555 59.4971C50.9555 65.0373 50.9555 70.5845 50.9555 76.1385C50.9614 76.4267 50.9063 76.7128 50.794 76.9782C50.6817 77.2435 50.5146 77.4822 50.3036 77.6785C49.5245 78.4394 48.0416 78.3408 47.4236 77.3435C46.6445 76.1022 45.8836 74.8608 45.1278 73.6117C43.3325 70.658 41.5423 67.7018 39.7573 64.743C39.5417 64.3898 39.3158 64.047 39.0951 63.7042L38.9756 63.7224Z" fill="white"/>
<path d="M65.2388 78.1779C60.4604 78.2351 55.5262 74.3448 55.5469 68.473C55.5703 62.9259 59.8294 58.7552 65.2492 58.7422C70.9236 58.7422 74.9619 63.17 74.9879 68.4575C74.9917 69.7374 74.7419 71.0055 74.2529 72.1884C73.764 73.3713 73.0456 74.4457 72.1392 75.3495C71.2328 76.2532 70.1563 76.9685 68.9719 77.454C67.7876 77.9394 66.5188 78.1855 65.2388 78.1779ZM65.2596 75.5368C65.6076 75.516 65.9556 75.5056 66.2984 75.4719C67.0845 75.3723 67.8434 75.119 68.5318 74.7266C69.3739 74.2765 70.109 73.6502 70.6873 72.8905C71.6297 71.6548 72.1405 70.144 72.1416 68.5899C72.1651 67.5684 71.9731 66.5535 71.5781 65.6112C71.1489 64.5344 70.4473 63.5876 69.542 62.8636C68.4792 62.0113 67.1841 61.499 65.8258 61.3937C64.4808 61.2627 63.1279 61.546 61.9485 62.2055C60.769 62.8651 59.8194 63.8695 59.2269 65.084C58.6979 66.0694 58.4059 67.1645 58.3739 68.2825C58.3419 69.4004 58.5708 70.5104 59.0425 71.5245C60.1696 74.0981 62.8159 75.6381 65.2596 75.5368Z" fill="white"/>
<path d="M15.084 77.9045C15.1151 77.8006 15.1411 77.6863 15.1801 77.5773C15.9202 75.5958 16.6552 73.6117 17.4005 71.6302C18.3579 69.0852 19.3188 66.5418 20.2831 64.0003C20.7766 62.7018 21.2908 61.4033 21.7712 60.1048C21.8817 59.7505 22.0936 59.4362 22.3806 59.2008C22.6677 58.9655 23.0174 58.8193 23.3865 58.7804C23.7801 58.7163 24.1837 58.7898 24.5295 58.9884C24.8753 59.1871 25.142 59.4988 25.2849 59.8711C25.8043 61.1696 26.3237 62.4862 26.8223 63.8003C27.6983 66.0753 28.564 68.3528 29.4193 70.633C30.2893 72.9391 31.1437 75.2504 32.0163 77.5591C32.0552 77.6682 32.0838 77.785 32.1227 77.9175C32.0506 77.962 31.9716 77.9945 31.889 78.0136C31.1255 78.0136 30.362 78.0136 29.5985 78.0136C29.5108 78.0141 29.4255 77.9848 29.3566 77.9306C29.2877 77.8763 29.2393 77.8003 29.2193 77.7149C28.9934 77.128 28.7622 76.5411 28.5415 75.9516C28.1805 74.9855 27.8273 74.0168 27.469 73.0507C27.3365 72.6975 27.3313 72.6949 26.9496 72.6923L20.7999 72.6456C20.561 72.6456 20.3195 72.682 20.0806 72.7001C20.0212 72.7041 19.9645 72.7261 19.9181 72.7632C19.8717 72.8004 19.8377 72.8509 19.8209 72.9079C19.7066 73.2092 19.5871 73.5078 19.4729 73.8091C19.0184 75.0244 18.5743 76.245 18.1121 77.4604C17.8965 78.0239 17.9692 78.011 17.3044 78.0187C16.714 78.0187 16.1245 78.0187 15.5359 78.0187C15.4568 78.0362 15.3748 78.035 15.2964 78.0151C15.2179 77.9953 15.1452 77.9574 15.084 77.9045ZM23.5631 62.6369C23.4826 62.8316 23.4229 62.9615 23.3735 63.0965C22.8905 64.4184 22.4049 65.7377 21.927 67.0621C21.6232 67.9061 21.3323 68.7527 21.0388 69.602C20.9947 69.737 20.9064 69.8617 20.9843 70.0253C21.1365 70.1134 21.3153 70.1438 21.4881 70.111C22.7 70.111 23.9059 70.111 25.1057 70.111C25.4018 70.111 25.6952 70.111 25.9913 70.098C26.1024 70.0842 26.212 70.0598 26.3185 70.0253C26.2821 69.8772 26.2614 69.7656 26.225 69.6513C25.5524 67.6127 23.8358 63.0576 23.5631 62.6369Z" fill="white"/>
<path d="M0.0725631 72.4607C0.206395 72.427 0.342761 72.4045 0.480288 72.3931C1.09837 72.3931 1.71385 72.3931 2.33193 72.3931C2.63837 72.3931 2.66434 72.4165 2.74225 72.7204C2.84618 73.192 3.01209 73.6479 3.23568 74.076C3.47909 74.549 3.83862 74.9526 4.28058 75.2487C4.72254 75.5449 5.23245 75.724 5.76253 75.7692C6.25244 75.8525 6.7529 75.8525 7.24281 75.7692C8.02393 75.6124 8.73247 75.2048 9.26066 74.6084C9.67956 74.1633 9.91352 73.5756 9.91509 72.9645C9.92746 72.6307 9.9057 72.2966 9.85017 71.9672C9.76968 71.6123 9.61147 71.2795 9.38694 70.993C9.16241 70.7065 8.87714 70.4734 8.55168 70.3104C8.00384 70.0266 7.43309 69.7894 6.84547 69.6014C5.84823 69.2482 4.8432 68.9106 3.85116 68.5444C3.17013 68.2961 2.55025 67.9047 2.03328 67.3966C1.3015 66.6912 0.847185 65.7467 0.752969 64.7347C0.642186 63.7702 0.794753 62.7938 1.19446 61.9092C1.69577 60.7661 2.59442 59.8434 3.72391 59.3122C4.62329 58.8497 5.62403 58.6194 6.63511 58.6422C8.97239 58.7331 10.7124 59.8108 11.8291 61.8624C12.0831 62.3671 12.244 62.9134 12.3043 63.4751C12.3119 63.5537 12.3119 63.6329 12.3043 63.7115C12.1717 63.8106 12.0069 63.8569 11.842 63.8413C11.172 63.8283 10.502 63.8075 9.83199 63.792C9.77231 63.7936 9.71391 63.7745 9.66661 63.7381C9.61931 63.7017 9.586 63.6501 9.57229 63.592C9.55411 63.5141 9.53074 63.4388 9.50737 63.3609C9.36965 62.8168 9.07988 62.3233 8.67196 61.9379C8.26404 61.5525 7.75482 61.2912 7.20385 61.1846C6.72581 61.0666 6.22711 61.0596 5.74593 61.164C5.26475 61.2685 4.81383 61.4816 4.42769 61.7871C4.00602 62.1047 3.69881 62.5506 3.55223 63.0578C3.40566 63.565 3.42763 64.106 3.61484 64.5996C3.83588 65.1708 4.27231 65.6324 4.83022 65.8851C5.22442 66.0847 5.63129 66.2582 6.0482 66.4045C7.02726 66.7681 8.01411 67.1083 8.99317 67.4745C9.38208 67.6215 9.76266 67.7897 10.1332 67.9783C10.7955 68.2945 11.3708 68.7671 11.8097 69.3552C12.2485 69.9434 12.5377 70.6295 12.6523 71.3544C12.8632 72.558 12.6873 73.7975 12.1498 74.8949C11.6123 75.9923 10.7408 76.8912 9.66059 77.4624C8.43209 78.1143 7.03579 78.3813 5.65346 78.2285C4.12815 78.1007 2.69872 77.432 1.62295 76.3431C0.753026 75.4546 0.193695 74.3086 0.028413 73.0761C-0.0210741 72.8714 -0.00564379 72.6563 0.0725631 72.4607Z" fill="white"/>
<path d="M90.4787 58.9892C90.5604 59.5243 90.5882 60.0663 90.5618 60.6071C90.5463 60.807 90.5333 61.007 90.5125 61.207C90.4917 61.4069 90.4502 61.4381 90.2528 61.4511C89.8788 61.4797 89.5049 61.5082 89.1309 61.5108C87.1079 61.5108 85.0848 61.5108 83.0618 61.5108C82.8878 61.5108 82.7164 61.5108 82.5632 61.5238C82.5155 61.5952 82.4825 61.6753 82.466 61.7596C82.4495 61.8438 82.4498 61.9305 82.4671 62.0146C82.4671 63.6611 82.4671 65.3076 82.4671 66.9489C82.4671 67.0839 82.4671 67.2086 82.4671 67.3514C82.4735 67.4171 82.4848 67.4822 82.5008 67.5462C82.6506 67.6131 82.8165 67.6356 82.9787 67.6111H88.4064H89.8918C89.9995 67.6094 90.1071 67.6155 90.2138 67.6293C90.4372 67.6605 90.4735 67.715 90.5099 67.9331C90.58 68.5857 90.58 69.2439 90.5099 69.8964C90.4891 70.1302 90.4476 70.1561 90.2138 70.1873C90.1593 70.1873 90.1048 70.1873 90.0528 70.1873C88.6193 70.2055 87.1962 70.2289 85.7522 70.2418C84.8277 70.2418 83.9032 70.2418 82.9787 70.2418C82.8332 70.2418 82.6904 70.2418 82.5684 70.26C82.5208 70.3236 82.487 70.3964 82.4691 70.4737C82.4512 70.5511 82.4496 70.6313 82.4645 70.7093C82.4645 71.6208 82.4645 72.5272 82.4645 73.4439C82.4645 74.7009 82.4645 75.9595 82.4645 77.2199C82.4645 77.355 82.4645 77.4796 82.4645 77.6224C82.4385 77.8821 82.3814 77.9445 82.1191 77.9704H81.9996H80.109H79.9896C79.748 77.9471 79.6961 77.8977 79.6727 77.6458C79.6727 77.5264 79.6727 77.4043 79.6727 77.2848C79.6727 75.9863 79.6727 74.6879 79.6727 73.3894C79.6727 69.1823 79.6727 64.976 79.6727 60.7707C79.658 60.2902 79.8342 59.8235 80.1627 59.4726C80.4912 59.1217 80.9453 58.9152 81.4257 58.8983C82.0282 58.8645 82.6307 58.8385 83.2436 58.8359C85.1861 58.8359 87.1286 58.8359 89.0712 58.8359C89.4867 58.8359 89.8996 58.8723 90.3151 58.8957C90.3721 58.9225 90.4268 58.9537 90.4787 58.9892Z" fill="white"/>
<path d="M95.5684 68.3936V59.8755C95.5684 59.6729 95.5684 59.473 95.5684 59.2704C95.5684 58.964 95.6385 58.9016 95.9527 58.8809C96.1916 58.8627 96.4331 58.8679 96.6747 58.8679C97.0902 58.8679 97.5057 58.8679 97.9212 58.8679C98.2536 58.8679 98.303 58.925 98.316 59.2366C98.3419 59.7716 98.3705 60.3066 98.3731 60.8416C98.3731 65.9316 98.3731 71.0217 98.3731 76.1118C98.3731 76.6312 98.3393 77.1506 98.316 77.67C98.303 77.9478 98.2614 77.992 97.9732 77.9946C97.3031 77.9946 96.6331 77.9946 95.9631 77.9946C95.6281 77.9946 95.5813 77.9297 95.5684 77.5817C95.5684 77.3947 95.5684 77.2051 95.5684 77.0181V68.3936Z" fill="white"/>
</svg>
