<svg width="93" height="33" viewBox="0 0 93 33" fill="none" xmlns="http://www.w3.org/2000/svg">
<path d="M78.8162 32.505C78.2968 32.4245 77.8007 32.3647 77.3021 32.2608C72.7496 31.3155 69.5995 28.6666 67.9894 24.3349C66.3792 20.0031 66.8311 15.7649 69.3528 11.8694C70.2571 10.4107 71.4789 9.17479 72.9272 8.25391C74.3756 7.33302 76.013 6.75086 77.7176 6.55081C80.6711 6.10718 83.6798 6.85446 86.0825 8.62839L86.4175 8.86731V7.74801C86.4175 7.13513 86.5811 6.96892 87.1966 6.96892H92.1308C92.2665 6.95876 92.4027 6.98047 92.5285 7.03233C92.6543 7.08418 92.7663 7.16474 92.8554 7.26757V31.6791C92.7692 31.7731 92.6639 31.8474 92.5465 31.8971C92.4291 31.9469 92.3024 31.9708 92.175 31.9674H87.1109C86.5915 31.9674 86.4123 31.783 86.4019 31.2584V30.1521H86.3006L85.9345 30.4118C84.6929 31.3525 83.2502 31.9925 81.7196 32.2816C81.2911 32.3647 80.86 32.4193 80.4211 32.4894L78.8162 32.505ZM80.3458 26.1917C81.4238 26.2192 82.4904 25.9649 83.44 25.4538C84.3897 24.9428 85.1895 24.1928 85.7605 23.2779C86.6455 21.9228 87.0292 20.301 86.8452 18.693C86.6612 17.085 85.9211 15.5918 84.7528 14.4716C84.1207 13.8725 83.3701 13.4125 82.5493 13.1213C81.7285 12.8301 80.8557 12.7142 79.9874 12.7809C79.1075 12.8044 78.243 13.0169 77.4526 13.4041C76.6621 13.7912 75.9642 14.344 75.4063 15.0247C74.1494 16.5284 73.7495 18.2969 73.9131 20.2187C74.2065 23.6908 76.9489 26.2333 80.351 26.1917H80.3458Z" fill="white"/>
<path d="M26.2561 21.1823C26.3751 22.4912 26.9048 23.7289 27.7696 24.7187C28.6343 25.7084 29.7898 26.3995 31.0709 26.6931C33.4783 27.2514 35.6493 26.6775 37.6152 25.2414C37.9321 25.0102 38.2229 24.7427 38.5268 24.496C38.8826 24.2078 39.1786 24.2363 39.4591 24.6025C40.3092 25.7192 41.1523 26.8446 41.9885 27.9786C42.2846 28.3785 42.2482 28.607 41.8821 28.9628C40.7909 29.9681 39.5312 30.7734 38.1606 31.3417C36.0169 32.2448 33.6826 32.6017 31.3669 32.3804C28.1233 32.1207 25.277 30.9183 23.0151 28.5161C21.4749 26.8811 20.4287 24.8436 19.9974 22.6392C19.33 19.4034 19.5819 16.2402 21.0362 13.2381C22.8177 9.53486 25.7107 7.20278 29.8087 6.54834C34.4599 5.80042 38.6722 7.67543 41.2614 11.6098C42.506 13.4938 43.2333 15.6719 43.3701 17.9257C43.4169 18.7361 43.4169 19.5486 43.3701 20.359C43.3468 20.8784 43.0351 21.1381 42.5131 21.1667H26.2561V21.1823ZM36.5037 16.0948C36.4178 15.3644 36.1557 14.6659 35.7399 14.0592C35.3242 13.4526 34.7673 12.956 34.1171 12.6123C32.3174 11.5969 30.5203 11.7423 28.8037 12.8252C27.5286 13.6225 26.5236 15.2041 26.6456 16.0948H36.5037Z" fill="white"/>
<path d="M11.2631 6.89496H18.0827C18.5216 6.92613 18.706 7.10792 18.7138 7.5494V11.9928C18.7138 12.5953 18.5424 12.7719 17.9347 12.7719H11.2968C11.2968 12.9615 11.2657 13.0913 11.2657 13.2238V22.2742C11.2783 22.7292 11.3322 23.1821 11.4267 23.6273C11.702 25.1283 12.9329 26.1775 14.5716 26.3645C15.5836 26.4769 16.6066 26.2967 17.5192 25.8451C18.0697 25.5854 18.3736 25.6763 18.7034 26.1957C19.4565 27.3799 20.2045 28.5667 20.9472 29.7561C21.2822 30.2937 21.1913 30.7118 20.6667 31.0754C19.8071 31.6512 18.8322 32.0323 17.81 32.1921C15.3481 32.6284 12.9044 32.5946 10.5203 31.7818C7.36242 30.7066 5.45624 28.5096 4.807 25.2374C4.5938 24.0961 4.49291 22.9366 4.50575 21.7756V12.7641H0.836226C0.179191 12.7641 0 12.5849 0 11.9409V7.7234C0 7.08454 0.186982 6.90016 0.844016 6.89756H4.47978C4.49276 6.6898 4.51354 6.5184 4.51354 6.34441V0.599901C4.50823 0.526403 4.51746 0.45258 4.5407 0.382649C4.56393 0.312718 4.60071 0.24805 4.64895 0.19234C4.69718 0.13663 4.75592 0.0909696 4.82181 0.0579672C4.88769 0.0249647 4.95943 0.0052672 5.03294 0H10.4061C11.0969 0 11.2553 0.158415 11.2553 0.854404V6.28468L11.2631 6.89496Z" fill="white"/>
<path d="M65.657 12.1684C65.657 13.4201 65.67 14.6719 65.657 15.921C65.6692 19.3894 64.5312 22.764 62.4212 25.5168C60.8094 27.629 59.1914 29.7352 57.5675 31.8352C57.5311 31.882 57.4922 31.9287 57.4558 31.9781C57.3447 32.1514 57.1816 32.2852 56.9899 32.3603C56.7982 32.4353 56.5877 32.4479 56.3884 32.3962C56.1744 32.335 55.9847 32.209 55.8452 32.0355C55.7057 31.8621 55.6233 31.6497 55.6094 31.4275C55.6068 31.4129 55.6068 31.398 55.6094 31.3834C55.6267 29.5759 55.644 27.7675 55.6613 25.9583C55.6613 25.3844 55.6613 24.8104 55.6795 24.2391V22.0706C55.7479 20.547 56.0474 19.0427 56.5676 17.609C57.2159 15.7864 58.1832 14.0937 59.4243 12.6099C60.863 10.8257 62.2446 8.99487 63.6522 7.18737C63.7535 7.05493 63.8573 6.92767 63.9664 6.80302C64.0726 6.66351 64.2182 6.55901 64.3844 6.50301C64.5506 6.447 64.7297 6.44205 64.8987 6.48879C65.0903 6.54002 65.262 6.64764 65.3917 6.79767C65.5214 6.94771 65.6029 7.13324 65.6259 7.33021C65.644 7.4801 65.6492 7.63129 65.6415 7.78208L65.657 12.1684Z" fill="white"/>
<path d="M44.9791 12.3274V7.66838C44.9687 7.48788 44.9844 7.3068 45.0259 7.13081C45.0743 6.96258 45.1691 6.81142 45.2996 6.69473C45.4301 6.57803 45.5909 6.50055 45.7634 6.47118C45.9353 6.43587 46.1139 6.45259 46.2762 6.5192C46.4386 6.58581 46.5774 6.69928 46.675 6.84514C47.1944 7.49698 47.693 8.15662 48.202 8.81105C49.3706 10.3086 50.5393 11.8062 51.7079 13.3038C53.1362 15.1659 54.1228 17.3282 54.5931 19.6274C54.8314 20.6722 54.955 21.7398 54.9619 22.8113C54.9619 25.5243 54.9706 28.2381 54.9879 30.9529V31.358C54.9971 31.5833 54.934 31.8056 54.8079 31.9925C54.6817 32.1794 54.4991 32.3211 54.2867 32.3968C53.8608 32.5422 53.4764 32.3968 53.144 31.9761C52.339 30.9373 51.5374 29.8985 50.7392 28.8597C49.8286 27.6755 48.9205 26.4895 48.015 25.3018C46.4932 23.3022 45.6388 21.0194 45.1713 18.5757C45.0208 17.7185 44.9547 16.8487 44.974 15.9787V12.3377L44.9791 12.3274Z" fill="white"/>
</svg>
