<svg width="122" height="40" viewBox="0 0 122 40" fill="none" xmlns="http://www.w3.org/2000/svg">
<path d="M0 29.9539H2.85684C3.408 29.93 3.95933 29.9975 4.4884 30.1539C4.87277 30.2883 5.2213 30.5089 5.50732 30.7987C5.83625 31.147 6.08497 31.563 6.23604 32.0176C6.42569 32.6223 6.51501 33.2541 6.50044 33.8877C6.51009 34.4841 6.41627 35.0775 6.22314 35.6418C6.0744 36.0783 5.83482 36.4783 5.52021 36.8155C5.22922 37.1054 4.8765 37.3259 4.4884 37.4604C3.98917 37.6229 3.46541 37.6971 2.94067 37.6797H0V29.9539ZM1.56707 31.2437V36.4028H2.73431C3.10349 36.4189 3.47301 36.3798 3.83062 36.2867C4.04073 36.2174 4.22949 36.0953 4.37877 35.932C4.55618 35.7169 4.67995 35.4627 4.7399 35.1904C4.84392 34.7533 4.8916 34.3047 4.88178 33.8555C4.89457 33.3973 4.84466 32.9395 4.73345 32.4948C4.65797 32.198 4.50171 31.9279 4.28203 31.7145C4.07656 31.5202 3.81879 31.3902 3.54042 31.3404C3.11372 31.2759 2.68185 31.2522 2.25065 31.2695L1.56707 31.2437Z" fill="white"/>
<path d="M8.95104 33.8047L7.60323 33.566C7.71334 33.0712 8.00281 32.6347 8.41579 32.3408C8.90736 32.061 9.46997 31.931 10.0344 31.9667C10.5258 31.9428 11.0169 32.0173 11.479 32.186C11.7729 32.2994 12.0219 32.5054 12.1884 32.7728C12.363 33.204 12.4358 33.6696 12.4012 34.1335V35.8683C12.3899 36.233 12.4137 36.598 12.4721 36.9581C12.5274 37.222 12.6163 37.4778 12.7365 37.7191H11.2275L11.034 37.0742C10.8088 37.3179 10.5397 37.517 10.2408 37.6611C9.94798 37.7884 9.63147 37.8521 9.31218 37.8481C8.82409 37.8724 8.34488 37.7111 7.97082 37.3967C7.79881 37.2478 7.66255 37.062 7.57212 36.8533C7.48169 36.6445 7.43943 36.4181 7.44846 36.1907C7.44353 35.8994 7.51703 35.612 7.66127 35.3588C7.80585 35.1186 8.01321 34.9224 8.26102 34.7913C8.65331 34.6056 9.07032 34.4775 9.49919 34.4108C9.97077 34.33 10.4346 34.2092 10.8857 34.0497C10.9019 33.8424 10.8755 33.6339 10.8083 33.4371C10.7399 33.3258 10.6351 33.2415 10.5117 33.1985C10.3059 33.1212 10.0862 33.0882 9.86678 33.1017C9.64201 33.0879 9.41805 33.1394 9.22189 33.2501C9.07748 33.4032 8.98302 33.5966 8.95104 33.8047ZM10.8857 35.017C10.5958 35.1092 10.3008 35.1845 10.0022 35.2427C9.68094 35.2855 9.37285 35.3977 9.09937 35.5716C9.03083 35.6277 8.97602 35.6987 8.93914 35.7791C8.90225 35.8596 8.88427 35.9475 8.88655 36.036C8.88403 36.1392 8.90408 36.2417 8.94529 36.3364C8.98651 36.4311 9.04789 36.5156 9.12516 36.5841C9.28545 36.7297 9.49552 36.8082 9.71201 36.8034C9.9397 36.8053 10.1633 36.7427 10.3569 36.6228C10.5389 36.5285 10.6892 36.3827 10.789 36.2036C10.8788 35.9161 10.9117 35.6138 10.8857 35.3137V35.017Z" fill="white"/>
<path d="M18.9466 37.7184H17.4569V34.8228C17.4747 34.4361 17.4465 34.0486 17.373 33.6685C17.3277 33.4891 17.2174 33.3328 17.0635 33.23C16.9089 33.127 16.7269 33.073 16.5411 33.0752C16.3005 33.0728 16.0647 33.1424 15.864 33.2751C15.6649 33.4051 15.515 33.5981 15.4384 33.8233C15.3398 34.2457 15.2986 34.6796 15.3159 35.113V37.6926H13.8262V32.095H15.2062V32.8882C15.4313 32.6007 15.7177 32.3672 16.0446 32.2046C16.3592 32.042 16.7093 31.96 17.0635 31.966C17.4498 31.953 17.832 32.0491 18.1662 32.2433C18.454 32.4047 18.6806 32.6562 18.8111 32.9591C18.9422 33.3759 18.9989 33.8125 18.9788 34.2489L18.9466 37.7184Z" fill="white"/>
<path d="M25.5612 37.7171H24.078V34.8215C24.0923 34.4349 24.0642 34.0478 23.9941 33.6672C23.9439 33.4883 23.832 33.333 23.6781 33.2287C23.5236 33.1257 23.3415 33.0717 23.1558 33.0739C22.9152 33.0715 22.6794 33.1411 22.4787 33.2738C22.2795 33.4038 22.1297 33.5968 22.053 33.822C21.9545 34.2444 21.9132 34.6783 21.9305 35.1117V37.6913H20.4473V32.0937H21.8467V32.8869C22.067 32.5908 22.3514 32.3483 22.6786 32.1775C22.9932 32.0149 23.3433 31.9329 23.6975 31.9389C24.084 31.9245 24.4665 32.0207 24.8002 32.2162C25.0879 32.3776 25.3146 32.6291 25.4451 32.932C25.5795 33.3481 25.6363 33.7852 25.6128 34.2218L25.5612 37.7171Z" fill="white"/>
<path d="M30.3486 35.9352L31.8254 36.1867C31.6698 36.7071 31.3454 37.161 30.9032 37.4765C30.4444 37.7584 29.913 37.8997 29.3748 37.8827C29.0227 37.9072 28.6694 37.8592 28.3366 37.7416C28.0038 37.624 27.6987 37.4394 27.4402 37.1992C27.1624 36.9023 26.9483 36.5518 26.8107 36.1692C26.6732 35.7867 26.6153 35.3801 26.6405 34.9743C26.6192 34.5635 26.6794 34.1525 26.8178 33.7651C26.9561 33.3777 27.1699 33.0216 27.4466 32.7172C27.6739 32.4799 27.9489 32.2935 28.2535 32.1701C28.558 32.0468 28.8852 31.9892 29.2136 32.0014C29.5621 31.9832 29.9105 32.0388 30.236 32.1643C30.5616 32.2899 30.857 32.4827 31.1031 32.7301C31.6721 33.4248 31.9536 34.3108 31.8899 35.2065V35.3741H28.1753C28.1589 35.7536 28.2881 36.125 28.5365 36.4124C28.6481 36.5259 28.7818 36.6153 28.9293 36.6752C29.0768 36.7351 29.235 36.7641 29.3942 36.7606C29.6268 36.7642 29.8527 36.682 30.0287 36.5298C30.2047 36.3776 30.3185 36.1659 30.3486 35.9352ZM30.426 34.4326C30.4407 34.0704 30.3187 33.7159 30.0842 33.4395C29.9873 33.3324 29.8688 33.2471 29.7365 33.1893C29.6042 33.1315 29.4611 33.1025 29.3168 33.1041C29.1672 33.1012 29.0188 33.1309 28.8819 33.191C28.7449 33.2511 28.6226 33.3403 28.5236 33.4524C28.4081 33.5866 28.3202 33.7422 28.2648 33.9104C28.2095 34.0786 28.1879 34.256 28.2011 34.4326H30.426ZM28.4913 31.4081L29.22 29.8281H30.8967L29.4458 31.4081H28.4913Z" fill="white"/>
<path d="M36.0996 37.7191V29.9805H38.4405L39.8464 35.2814L41.2329 29.9805H43.5867V37.7191H42.1293V31.5991L40.5945 37.7191H39.079L37.5571 31.5991V37.7191H36.0996Z" fill="white"/>
<path d="M44.7939 34.8239C44.7852 34.2936 44.9236 33.7712 45.1938 33.3148C45.4395 32.8839 45.8016 32.5308 46.2385 32.2959C46.6875 32.0672 47.1857 31.9521 47.6895 31.9606C48.0864 31.9402 48.4829 32.0077 48.8508 32.1582C49.2186 32.3087 49.5487 32.5385 49.8176 32.8312C50.3237 33.3883 50.6002 34.1164 50.5915 34.869C50.6095 35.4167 50.4827 35.9595 50.2239 36.4425C49.9765 36.8865 49.6102 37.2527 49.1663 37.5001C48.7232 37.7337 48.229 37.8534 47.7282 37.8484C47.3477 37.8612 46.9685 37.7988 46.6122 37.6649C46.2559 37.5311 45.9295 37.3282 45.6516 37.0681C45.3581 36.7759 45.1298 36.4248 44.982 36.038C44.8341 35.6511 44.77 35.2373 44.7939 34.8239ZM46.3159 34.9012C46.2818 35.3672 46.4272 35.8287 46.7221 36.191C46.8451 36.3311 46.9971 36.4428 47.1674 36.5185C47.3377 36.5942 47.5224 36.6321 47.7088 36.6295C47.8909 36.6284 48.0706 36.5887 48.2362 36.5131C48.4018 36.4376 48.5495 36.3278 48.6697 36.191C48.9567 35.8247 49.099 35.3657 49.0695 34.9012C49.1036 34.4352 48.9582 33.9738 48.6632 33.6115C48.5417 33.4731 48.3918 33.3623 48.2239 33.2867C48.0559 33.211 47.8737 33.1723 47.6895 33.1729C47.5063 33.1732 47.3254 33.2124 47.1586 33.288C46.9918 33.3636 46.843 33.4739 46.7221 33.6115C46.4267 33.9761 46.2815 34.4397 46.3159 34.9077V34.9012Z" fill="white"/>
<path d="M56.8587 37.717H55.3819V34.8215C55.3997 34.4347 55.3715 34.0472 55.298 33.6671C55.25 33.4889 55.1403 33.3336 54.9885 33.2286C54.8339 33.1256 54.6519 33.0716 54.4661 33.0738C54.2362 33.0759 54.012 33.1454 53.8213 33.2737C53.6221 33.4037 53.4723 33.5967 53.3956 33.8219C53.2939 34.2438 53.2526 34.6781 53.2731 35.1117V37.6912H51.7383V32.0936H53.1183V32.8868C53.3378 32.5924 53.6197 32.3501 53.9438 32.1774C54.261 32.0156 54.613 31.9336 54.9692 31.9388C55.3535 31.9249 55.7339 32.0211 56.0655 32.2161C56.3567 32.3731 56.5845 32.626 56.7103 32.9319C56.8474 33.3474 56.9065 33.7847 56.8845 34.2217L56.8587 37.717Z" fill="white"/>
<path d="M60.9416 32.0941V33.2807H59.9291V35.5507C59.9131 35.8352 59.9282 36.1206 59.9743 36.4019C60.0044 36.4723 60.0564 36.5311 60.1227 36.5694C60.1889 36.6078 60.2658 36.6237 60.3418 36.6147C60.5461 36.6007 60.7466 36.5527 60.9351 36.4728L61.0641 37.6272C60.6943 37.78 60.2969 37.8546 59.8969 37.8464C59.5789 37.8633 59.2629 37.7871 58.9876 37.6272C58.7592 37.4776 58.5956 37.2473 58.5297 36.9823C58.4522 36.57 58.422 36.1503 58.4394 35.7312V33.2807H57.7559V32.0941H58.4394V30.9526L59.9291 30.082V32.0683L60.9416 32.0941Z" fill="white"/>
<path d="M63.084 33.8047L61.7362 33.566C61.8463 33.0712 62.1358 32.6347 62.5488 32.3408C63.0404 32.061 63.603 31.931 64.1674 31.9667C64.6588 31.9428 65.1499 32.0173 65.612 32.186C65.9059 32.2994 66.1549 32.5054 66.3214 32.7728C66.496 33.204 66.5688 33.6696 66.5342 34.1335V35.8683C66.5229 36.233 66.5467 36.598 66.6051 36.9581C66.6604 37.222 66.7493 37.4778 66.8695 37.7191H65.3992L65.2057 37.0742C64.9719 37.3083 64.6963 37.4964 64.3932 37.6288C64.1003 37.7561 63.7838 37.8199 63.4645 37.8158C62.9764 37.8402 62.4972 37.6789 62.1232 37.3644C61.9512 37.2155 61.8149 37.0298 61.7245 36.821C61.634 36.6123 61.5918 36.3858 61.6008 36.1585C61.6047 35.8759 61.6849 35.5996 61.833 35.3588C61.9775 35.1186 62.1849 34.9224 62.4327 34.7913C62.8225 34.6051 63.2375 34.4769 63.6644 34.4108C64.1382 34.3304 64.6042 34.2096 65.0574 34.0497C65.0735 33.8424 65.0472 33.6339 64.98 33.4371C64.9115 33.3258 64.8068 33.2415 64.6834 33.1985C64.4776 33.1212 64.2578 33.0882 64.0385 33.1017C63.8137 33.0879 63.5897 33.1394 63.3936 33.2501C63.235 33.398 63.1268 33.592 63.084 33.8047ZM65.0574 35.017C64.7675 35.1092 64.4725 35.1845 64.1739 35.2427C63.8526 35.2855 63.5445 35.3977 63.2711 35.5716C63.2025 35.6277 63.1477 35.6987 63.1108 35.7791C63.0739 35.8596 63.056 35.9475 63.0582 36.036C63.057 36.139 63.0776 36.2411 63.1187 36.3356C63.1599 36.4301 63.2206 36.5148 63.2968 36.5841C63.4571 36.7297 63.6672 36.8082 63.8837 36.8034C64.1114 36.8053 64.335 36.7427 64.5286 36.6228C64.7106 36.5285 64.8609 36.3827 64.9607 36.2036C65.057 35.9174 65.0965 35.6151 65.0767 35.3137L65.0574 35.017Z" fill="white"/>
<path d="M67.8604 38.0889L69.5629 38.2952C69.5671 38.3807 69.5908 38.464 69.6321 38.5389C69.6735 38.6138 69.7314 38.6783 69.8015 38.7273C69.9986 38.8341 70.2233 38.8791 70.4464 38.8563C70.7166 38.8642 70.9858 38.8204 71.2396 38.7273C71.3825 38.6632 71.4987 38.5515 71.5685 38.4113C71.6632 38.1627 71.7028 37.8964 71.6846 37.631V36.812C71.4846 37.091 71.2273 37.324 70.93 37.4956C70.6442 37.6473 70.325 37.7249 70.0014 37.7213C69.7043 37.7266 69.4096 37.667 69.1378 37.5467C68.866 37.4264 68.6238 37.2483 68.4279 37.0248C67.9098 36.4333 67.6436 35.6625 67.6863 34.8774C67.6271 34.0899 67.8769 33.3104 68.3828 32.7041C68.5951 32.4691 68.855 32.282 69.1452 32.1553C69.4354 32.0285 69.7492 31.965 70.0659 31.9689C70.3956 31.9656 70.7211 32.0431 71.0139 32.1946C71.3115 32.3689 71.5669 32.6067 71.7619 32.8911V32.0979H73.1549V37.1409C73.1911 37.7382 73.0987 38.3364 72.884 38.895C72.7051 39.2548 72.4096 39.5435 72.0457 39.714C71.5536 39.9252 71.02 40.0222 70.4851 39.9977C69.9825 40.0136 69.481 39.9438 69.0018 39.7914C68.6644 39.6849 68.3689 39.4751 68.157 39.1916C67.9582 38.9259 67.8538 38.6013 67.8604 38.2694V38.0889ZM69.1953 34.8258C69.1626 35.2826 69.2854 35.7372 69.5435 36.1155C69.6443 36.2449 69.7735 36.3495 69.9211 36.421C70.0687 36.4926 70.2308 36.5293 70.3948 36.5283C70.5681 36.5289 70.7394 36.4924 70.8974 36.4212C71.0554 36.35 71.1962 36.2458 71.3105 36.1155C71.5951 35.7488 71.731 35.2882 71.691 34.8258C71.7262 34.3658 71.5958 33.9083 71.3234 33.536C71.2151 33.4094 71.0805 33.3077 70.9291 33.238C70.7778 33.1683 70.6131 33.1322 70.4464 33.1322C70.2797 33.1322 70.115 33.1683 69.9636 33.238C69.8122 33.3077 69.6777 33.4094 69.5693 33.536C69.2947 33.9075 69.162 34.365 69.1953 34.8258Z" fill="white"/>
<path d="M78.3006 37.7171V36.8788C78.0983 37.1814 77.8204 37.426 77.4945 37.5882C77.1701 37.7579 76.8094 37.8464 76.4433 37.8461C76.0973 37.853 75.7553 37.7709 75.4502 37.6075C75.1723 37.4663 74.9465 37.2405 74.8053 36.9626C74.638 36.5541 74.5631 36.1137 74.5861 35.6729V32.0938H76.0758V34.6733C76.0602 35.1431 76.084 35.6133 76.1467 36.0791C76.1823 36.2663 76.2885 36.4325 76.4433 36.5435C76.6086 36.6553 76.805 36.7117 77.0044 36.7047C77.2506 36.7047 77.491 36.6305 77.6944 36.4919C77.8936 36.362 78.0399 36.1653 78.1071 35.9373C78.193 35.45 78.2255 34.9548 78.2039 34.4605V32.0938H79.6936V37.7171H78.3006Z" fill="white"/>
<path d="M84.5048 35.9332L85.9816 36.1848C85.8284 36.7063 85.5034 37.1608 85.0594 37.4745C84.6007 37.7565 84.0693 37.8977 83.5311 37.8808C83.179 37.9053 82.8256 37.8572 82.4928 37.7396C82.1601 37.6221 81.855 37.4375 81.5964 37.1972C81.3187 36.9003 81.1045 36.5499 80.967 36.1673C80.8295 35.7847 80.7716 35.3781 80.7968 34.9724C80.7754 34.5616 80.8357 34.1506 80.974 33.7632C81.1124 33.3758 81.3261 33.0196 81.6029 32.7153C81.8302 32.478 82.1052 32.2916 82.4097 32.1682C82.7143 32.0448 83.0415 31.9873 83.3698 31.9994C83.7183 31.9813 84.0667 32.0368 84.3923 32.1624C84.7178 32.288 85.0133 32.4807 85.2594 32.7282C85.8283 33.4228 86.1098 34.3089 86.0461 35.2045V35.3722H82.3251C82.3087 35.7517 82.4379 36.1231 82.6863 36.4105C82.7968 36.5263 82.93 36.6181 83.0776 36.6802C83.2251 36.7423 83.3839 36.7734 83.544 36.7716C83.7797 36.7764 84.0088 36.6931 84.1864 36.5381C84.3641 36.3831 84.4776 36.1675 84.5048 35.9332ZM84.5822 34.4307C84.5969 34.0685 84.4749 33.714 84.2404 33.4375C84.1436 33.3305 84.0251 33.2452 83.8928 33.1874C83.7605 33.1296 83.6174 33.1005 83.473 33.1022C83.3235 33.0993 83.1751 33.1289 83.0381 33.189C82.9011 33.2492 82.7789 33.3384 82.6798 33.4504C82.5643 33.5846 82.4764 33.7403 82.4211 33.9085C82.3657 34.0767 82.3441 34.2541 82.3574 34.4307H84.5822Z" fill="white"/>
<path d="M86.8281 35.6436V34.1797H89.743V35.6629L86.8281 35.6436Z" fill="white"/>
<path d="M90.8906 37.7191V29.9805H92.4577V33.4177L95.6241 29.9805H97.7329L94.8115 32.9985L97.8812 37.7449H95.8562L93.7217 34.0948L92.4319 35.3846V37.732L90.8906 37.7191Z" fill="white"/>
<path d="M98.6797 31.3371V29.957H100.169V31.3371H98.6797ZM98.6797 37.7214V32.098H100.169V37.7214H98.6797Z" fill="white"/>
<path d="M106.798 37.717H105.308V34.8215C105.326 34.4347 105.298 34.0472 105.225 33.6671C105.175 33.4899 105.065 33.3351 104.915 33.2286C104.76 33.1256 104.578 33.0716 104.393 33.0738C104.152 33.0694 103.915 33.1392 103.716 33.2737C103.516 33.4037 103.367 33.5967 103.29 33.8219C103.188 34.2438 103.147 34.6781 103.167 35.1117V37.6912H101.678V32.0936H103.058V32.8868C103.277 32.5924 103.559 32.3501 103.883 32.1774C104.2 32.0156 104.552 31.9336 104.909 31.9388C105.293 31.9249 105.673 32.0211 106.005 32.2161C106.294 32.3763 106.52 32.6282 106.65 32.9319C106.781 33.3487 106.838 33.7853 106.817 34.2217L106.798 37.717Z" fill="white"/>
<path d="M108.174 38.0889L109.877 38.2953C109.881 38.3807 109.905 38.4641 109.946 38.539C109.987 38.6138 110.045 38.6783 110.115 38.7273C110.312 38.8345 110.537 38.8795 110.76 38.8563C111.033 38.8648 111.304 38.821 111.56 38.7273C111.703 38.6632 111.819 38.5516 111.889 38.4114C111.984 38.1627 112.023 37.8965 112.005 37.631V36.812C111.805 37.091 111.548 37.324 111.25 37.4956C110.964 37.6456 110.645 37.7231 110.322 37.7213C110.024 37.7262 109.728 37.6665 109.455 37.5463C109.183 37.4261 108.939 37.2482 108.742 37.0249C108.228 36.4309 107.965 35.6613 108.007 34.8774C107.947 34.09 108.197 33.3105 108.703 32.7041C108.915 32.4688 109.175 32.2815 109.465 32.1548C109.756 32.028 110.069 31.9646 110.386 31.969C110.716 31.9656 111.041 32.0431 111.334 32.1947C111.629 32.3696 111.883 32.6074 112.076 32.8911V32.0979H113.469V37.1409C113.505 37.7383 113.413 38.3364 113.198 38.895C113.019 39.2548 112.723 39.5435 112.36 39.714C111.865 39.9257 111.33 40.0227 110.792 39.9978C110.292 40.0133 109.793 39.9435 109.316 39.7914C108.978 39.6849 108.683 39.4751 108.471 39.1917C108.272 38.9259 108.168 38.6013 108.174 38.2695V38.0889ZM109.503 34.8258C109.469 35.2837 109.594 35.7394 109.857 36.1156C109.958 36.245 110.087 36.3495 110.235 36.4211C110.383 36.4926 110.545 36.5293 110.709 36.5283C110.882 36.5281 111.054 36.4906 111.212 36.4183C111.37 36.346 111.511 36.2405 111.624 36.1091C111.909 35.7424 112.045 35.2818 112.005 34.8193C112.04 34.3594 111.91 33.9019 111.637 33.5296C111.529 33.3985 111.393 33.2929 111.239 33.2205C111.085 33.148 110.917 33.1104 110.747 33.1104C110.577 33.1104 110.409 33.148 110.255 33.2205C110.102 33.2929 109.966 33.3985 109.857 33.5296C109.588 33.9054 109.462 34.3652 109.503 34.8258Z" fill="white"/>
<path d="M0 27.0852V0H121.883V27.0852H0ZM37.9192 22.4807C39.0851 22.4959 40.2495 22.3943 41.3951 22.1776C42.2954 22.0146 43.1654 21.7145 43.9747 21.2876C44.723 20.8744 45.3913 20.3306 45.948 19.6819C46.5939 18.9196 47.0944 18.0452 47.4248 17.1023C47.8249 15.9588 48.0213 14.754 48.0052 13.5426C48.0318 12.0915 47.7413 10.6522 47.154 9.32503C46.5869 8.09819 45.6948 7.04999 44.5744 6.29408C43.6199 5.64465 42.5385 5.20506 41.4016 5.00431C40.1216 4.80809 38.8269 4.72394 37.5323 4.7528H30.1032V22.4871L37.9192 22.4807ZM32.9859 6.86157H37.5C38.7429 6.81033 39.9868 6.93407 41.1952 7.22916C42.2902 7.58565 43.2404 8.28698 43.9037 9.2283C44.6776 10.2214 45.0645 11.6445 45.0645 13.4974C45.0957 14.6625 44.9031 15.8228 44.497 16.9153C44.1702 17.7858 43.6264 18.5583 42.9171 19.1595C42.3433 19.5967 41.6842 19.9086 40.9824 20.0753C39.8829 20.3252 38.7562 20.4357 37.629 20.4042H32.9859V6.86157ZM54.267 22.5V7.39683L60.5418 22.5H63.1213L69.4412 7.66768V22.5H72.2142V4.7657H68.3449L63.1213 17.1088C62.5925 18.3599 62.212 19.3078 61.9605 19.9527C61.7477 19.3723 61.3995 18.4953 60.9287 17.3281L55.7696 4.7657H51.5134V22.5H54.267ZM78.8823 22.5V16.3478L82.4678 13.5426L90.1678 22.5H93.9403L84.4412 11.9497L93.5147 4.7657H89.6454L78.8887 13.5426V4.7657H76.019V22.5H78.8823Z" fill="white"/>
<path d="M118.279 30.1994C119.006 30.1943 119.718 30.4053 120.325 30.8056C120.932 31.206 121.406 31.7777 121.688 32.4481C121.969 33.1185 122.045 33.8574 121.906 34.5711C121.767 35.2847 121.419 35.9409 120.906 36.4564C120.393 36.9719 119.739 37.3235 119.026 37.4664C118.313 37.6094 117.574 37.5373 116.902 37.2594C116.23 36.9814 115.656 36.5102 115.252 35.9053C114.849 35.3005 114.634 34.5894 114.635 33.8623C114.628 33.381 114.718 32.9032 114.898 32.4569C115.078 32.0107 115.346 31.605 115.686 31.2637C116.025 30.9225 116.429 30.6525 116.875 30.4697C117.32 30.2869 117.797 30.195 118.279 30.1994ZM118.279 30.7669C117.491 30.8177 116.751 31.1666 116.211 31.7428C115.671 32.3189 115.371 33.079 115.371 33.8688C115.371 34.6585 115.671 35.4186 116.211 35.9948C116.751 36.5709 117.491 36.9198 118.279 36.9707C119.067 36.9198 119.806 36.5709 120.346 35.9948C120.886 35.4186 121.187 34.6585 121.187 33.8688C121.187 33.079 120.886 32.3189 120.346 31.7428C119.806 31.1666 119.067 30.8177 118.279 30.7669ZM117.595 35.9904H116.95V31.9083C117.332 31.8441 117.718 31.8117 118.105 31.8116C118.556 31.7756 119.008 31.884 119.394 32.1211C119.523 32.2192 119.624 32.348 119.69 32.4956C119.755 32.6433 119.782 32.805 119.768 32.9659C119.769 33.198 119.69 33.4234 119.545 33.6042C119.399 33.785 119.196 33.9103 118.969 33.959V33.9913C119.33 34.0558 119.575 34.3782 119.652 34.9844C119.686 35.3317 119.776 35.6713 119.917 35.9904H119.227C119.068 35.6657 118.973 35.313 118.949 34.9522C118.943 34.8452 118.915 34.7407 118.866 34.6454C118.818 34.55 118.75 34.4659 118.666 34.3985C118.583 34.3311 118.487 34.2818 118.383 34.2539C118.28 34.2259 118.172 34.22 118.066 34.2363H117.615L117.595 35.9904ZM117.595 33.7269H118.066C118.601 33.7269 119.059 33.5334 119.059 33.0304C119.059 32.6693 118.801 32.3146 118.066 32.3146C117.909 32.3011 117.752 32.3011 117.595 32.3146V33.7269Z" fill="white"/>
</svg>
