<svg width="129" height="32" viewBox="0 0 129 32" fill="none" xmlns="http://www.w3.org/2000/svg">
<path d="M34.6854 0H0V5.32807H32.9539V5.33218C33.9068 5.33218 34.6732 6.10251 34.6732 7.0503V24.9516L34.666 24.9639C34.6578 25.9117 33.8885 26.673 32.9437 26.673H7.04824C6.09944 26.673 5.32602 25.9057 5.32602 24.9516V17.7166C5.32602 16.7667 6.09944 15.9985 7.04824 15.9985H29.3308V10.6723H5.31281C2.37721 10.6723 0 13.0467 0 15.9811V26.6862C0 29.6196 2.37734 32 5.31281 32H34.6854C37.6229 32 39.9982 29.6196 39.9982 26.6862V5.31281C39.9982 2.37837 37.6229 0 34.6854 0Z" fill="white"/>
<path d="M59.8197 0.0117188L63.9856 12.4748C64.4845 13.9939 64.8314 14.347 65.7029 14.347H66.5527V16.5397H57.4536V14.347H58.1975C58.9473 14.347 59.5738 14.246 59.5738 13.9726C59.5738 13.7215 59.5452 13.4481 59.4483 13.0757L58.9248 11.279H53.8365L53.5396 12.2758C53.2632 13.1482 53.1653 13.5216 53.1653 13.8706C53.1653 14.2735 54.0366 14.348 54.713 14.348H55.4314V16.5407H48.1055V14.347H48.9514C49.8238 14.347 50.1715 13.994 50.6736 12.4748L54.8365 0.0117188H59.8197ZM54.5539 9.08729H58.175L56.3793 3.72355H56.3323L54.5539 9.08729ZM67.9964 3.07767C67.9964 2.37777 67.8219 2.00633 67.0985 2.00633H65.9538V0.0117188H72.1368V6.21816C73.0562 5.16927 74.2294 4.49799 75.3498 4.49799C79.0893 4.49799 80.4819 7.41703 80.4819 10.7044C80.4819 13.994 79.0893 16.9079 75.3498 16.9079C73.7806 16.9079 72.3848 16.3631 71.5094 14.9908L70.788 16.5397H67.9954V3.07767M72.1369 10.7044C72.1369 13.2472 72.7082 14.7694 74.1041 14.7694C75.5028 14.7694 76.0743 13.2472 76.0743 10.7044C76.0743 8.16183 75.5028 6.64464 74.1041 6.64464C72.7081 6.64464 72.1369 8.16183 72.1369 10.7044ZM81.9828 3.07767C81.9828 2.37777 81.8054 2.00633 81.087 2.00633H79.9392V0.0117188H86.1233V6.21816C87.0445 5.16927 88.217 4.49799 89.3382 4.49799C93.0757 4.49799 94.4734 7.41703 94.4734 10.7044C94.4734 13.994 93.0756 16.9079 89.3382 16.9079C87.7649 16.9079 86.3722 16.3631 85.4958 14.9908L84.7744 16.5397H81.9828V3.07767ZM86.1224 10.7046C86.1224 13.2473 86.6968 14.7695 88.0896 14.7695C89.4873 14.7695 90.0598 13.2473 90.0598 10.7046C90.0598 8.16196 89.4873 6.64477 88.0896 6.64477C86.6978 6.64477 86.1224 8.16196 86.1224 10.7046ZM108.533 10.7046C108.533 14.6929 105.815 16.908 102.101 16.908C98.3844 16.908 95.6662 14.6929 95.6662 10.7046C95.6662 6.71508 98.3843 4.49799 102.101 4.49799C105.815 4.49799 108.533 6.71508 108.533 10.7044M100.081 10.7044C100.081 13.644 100.603 14.9164 102.101 14.9164C103.597 14.9164 104.12 13.644 104.12 10.7044C104.12 7.76294 103.597 6.4926 102.101 6.4926C100.603 6.4926 100.081 7.76294 100.081 10.7044ZM126.308 10.9055V12.8512C126.308 13.993 126.06 14.6704 125.111 14.6704C124.537 14.6704 124.264 14.245 124.264 13.7205V6.86404H127.328V4.87341H124.264V0.23625H121.796C121.594 2.30451 120.948 4.87353 118.457 4.87353H114.567V0.23625H112.1C111.897 2.30451 111.251 4.87353 108.759 4.87353V6.86417H110.431V13.1237C110.431 15.6663 111.85 16.908 114.416 16.908C117.411 16.908 118.604 15.5664 118.604 13.1237V10.9045H116.615V12.8502C116.615 13.992 116.363 14.6695 115.415 14.6695C114.841 14.6695 114.569 14.2439 114.569 13.7194V6.86314H120.13V13.1227C120.13 15.6653 121.547 16.907 124.114 16.907C127.108 16.907 128.305 15.5653 128.305 13.1227V10.9034H126.308" fill="white"/>
</svg>
