<svg width="149" height="56" viewBox="0 0 149 56" fill="none" xmlns="http://www.w3.org/2000/svg">
<path d="M75.4217 0.000775026C84.0817 -0.0858247 91.3382 7.09598 91.2486 15.9889C91.2168 19.1121 90.2616 22.156 88.5032 24.7374C86.7449 27.3188 84.2621 29.3223 81.3675 30.4955C78.4729 31.6687 75.2958 31.9592 72.2364 31.3304C69.177 30.7017 66.372 29.1817 64.1747 26.962C61.9774 24.7423 60.486 21.9221 59.8882 18.8565C59.2905 15.7908 59.6132 12.6169 60.8157 9.73429C62.0182 6.8517 64.0467 4.38934 66.6458 2.65729C69.2449 0.925239 72.2984 0.000937146 75.4217 0.000775026ZM61.3388 15.8007C61.3857 19.5057 62.8886 23.0435 65.5228 25.6493C68.157 28.2551 71.7108 29.7196 75.4161 29.7263C79.1214 29.7329 82.6805 28.2812 85.3241 25.6849C87.9676 23.0886 89.4833 19.5563 89.5435 15.8515C89.5435 8.0874 83.2038 1.70589 75.4874 1.70291C67.4396 1.69693 61.2672 8.29942 61.3388 15.8007Z" fill="white"/>
<path d="M87.5639 55.1092V55.5393C86.2918 55.5631 85.1212 55.3242 84.1357 54.4702C83.1546 53.5769 82.3388 52.5175 81.7259 51.3407C81.4273 50.8002 81.1286 50.2477 80.8838 49.6833C80.8449 49.5594 80.7639 49.4531 80.6548 49.3827C80.5457 49.3123 80.4154 49.2824 80.2865 49.2981C79.6206 49.2981 79.6146 49.2772 79.6236 49.9521C79.6385 51.0719 79.6535 52.1947 79.6893 53.3145C79.7192 54.1417 79.9043 54.3418 80.7225 54.5867C80.8211 54.6165 80.8868 54.7599 80.9674 54.8494C80.8629 54.9092 80.7494 55.0376 80.6538 55.0256C79.4462 54.8733 78.2243 54.8733 77.0166 55.0256C76.9291 55.0302 76.8414 55.0302 76.7539 55.0256C76.6464 54.7778 76.6882 54.6165 76.9629 54.5359C77.2385 54.4619 77.4793 54.2933 77.6431 54.0597C77.8069 53.826 77.8832 53.5421 77.8588 53.2578C77.8886 50.4707 77.9105 47.6836 77.9245 44.8965C77.9191 44.6957 77.8961 44.4959 77.8558 44.2992C77.7692 43.8543 77.5333 43.6721 76.7867 43.4601L76.8136 43.0719L77.151 43.048C78.4381 42.9883 79.7221 42.9136 81.0092 42.8748C81.9593 42.8048 82.9055 43.055 83.6968 43.5855C85.5333 44.8845 85.378 47.4974 83.3982 48.7277C83.1652 48.8711 82.9174 48.9846 82.6217 49.1398C82.7979 49.4982 82.9502 49.8685 83.1533 50.2119C83.8252 51.3466 84.4702 52.5053 85.2138 53.5923C85.477 53.996 85.8223 54.3397 86.2272 54.6011C86.6321 54.8625 87.0876 55.0356 87.5639 55.1092ZM79.7699 46.6822H79.6953C79.6953 47.2167 79.7132 47.7542 79.6953 48.2888C79.6803 48.5874 79.8087 48.68 80.0536 48.6859C80.4105 48.7113 80.7688 48.7113 81.1257 48.6859C82.2933 48.5486 82.8666 48.0887 83.0756 47.0823C83.1556 46.7108 83.1837 46.3299 83.1593 45.9506C83.0637 44.6725 82.4127 43.472 80.9614 43.3347C80.1522 43.257 79.8058 43.4929 79.7819 44.2992C79.758 45.1055 79.7699 45.8849 79.7699 46.6822Z" fill="white"/>
<path d="M6.74904 49.5892C6.74904 49.3712 6.65945 49.1442 7.0178 49.1353C8.28096 49.0964 9.54412 49.0427 10.8073 48.9979C10.8613 48.9994 10.9152 49.0043 10.9685 49.0128C11.0223 49.2696 11.0372 49.4727 10.7356 49.6101C10.6582 49.6621 10.5919 49.729 10.5406 49.807C10.4893 49.8849 10.4541 49.9723 10.437 50.064C10.2186 51.1905 10.2105 52.3477 10.4131 53.4772C10.4724 53.717 10.5585 53.9495 10.6699 54.17C10.7386 54.3283 10.7505 54.4686 10.5564 54.5044C8.44221 54.9703 6.31007 55.3645 4.16001 54.7762C1.88751 54.1521 0.627337 52.5395 0.16149 50.2969C-0.26255 48.2633 0.128642 46.3581 1.57098 44.8023C2.24581 44.0446 3.10111 43.4697 4.05751 43.1309C5.0139 42.7921 6.04038 42.7004 7.04169 42.8643C7.57104 42.9412 8.09476 43.053 8.60944 43.1987C8.73529 43.2548 8.87708 43.264 9.00911 43.2245C9.14114 43.1851 9.25467 43.0997 9.32911 42.9837C9.39182 42.8971 9.53218 42.8643 9.62774 42.8075C9.68127 42.9014 9.72242 43.0017 9.75017 43.1061C9.8308 43.8855 9.90246 44.6679 9.97413 45.4533C9.9801 45.5697 9.9801 45.6863 9.97413 45.8027C9.70836 45.9281 9.67551 45.722 9.58891 45.5697C9.38566 45.0834 9.07518 44.6493 8.68065 44.2997C8.28612 43.9502 7.81773 43.6943 7.31044 43.5511C5.42914 43.0374 3.57471 43.7721 2.69976 45.51C2.11599 46.5867 1.83416 47.8013 1.8841 49.025C1.93404 50.2488 2.31389 51.4363 2.98345 52.4619C3.90917 53.9729 5.33956 54.591 7.11634 54.3402C8.057 54.2058 8.52881 53.6982 8.57062 52.7366C8.60048 52.0826 8.59451 51.4257 8.57062 50.7687C8.54673 50.1118 8.22721 49.7444 7.5583 49.6459C7.30746 49.6399 7.0387 49.619 6.74904 49.5892Z" fill="white"/>
<path d="M110.529 54.8997C109.899 54.8997 109.269 54.8997 108.642 54.8997C108.26 54.8997 107.877 54.9176 107.498 54.9504C107.286 54.9683 107.179 54.9146 107.182 54.6936C107.203 54.6757 107.218 54.6488 107.235 54.6488C107.946 54.5831 108.146 54.1262 108.158 53.4932C108.2 51.361 108.266 49.2289 108.296 47.0967C108.296 46.4726 107.997 46.1501 107.418 45.9888C107.334 45.735 107.418 45.6126 107.695 45.6216C108.651 45.6484 109.604 45.6634 110.556 45.6962C110.628 45.6962 110.693 45.7828 110.762 45.8276C110.705 45.8993 110.649 46.0307 110.586 46.0366C109.798 46.0904 109.735 46.6339 109.711 47.249C109.678 48.0224 109.624 48.7929 109.604 49.5693C109.604 49.6589 109.744 49.8321 109.821 49.8351C111.315 49.856 112.826 49.856 114.328 49.859C114.407 49.8502 114.486 49.8363 114.564 49.8172C114.564 49.0915 114.564 48.3539 114.564 47.6193C114.564 47.3595 114.519 47.0997 114.504 46.8369C114.501 46.638 114.43 46.4462 114.302 46.2938C114.174 46.1415 113.998 46.0379 113.802 46.0008C113.704 45.9739 113.635 45.8485 113.554 45.7709C113.645 45.7102 113.746 45.6667 113.853 45.6424C114.829 45.6424 115.803 45.6424 116.896 45.6424C116.779 45.7977 116.729 45.9411 116.642 45.968C116.167 46.1083 116.027 46.4517 116.012 46.8967C115.988 47.6462 115.937 48.3898 115.934 49.1453C115.934 50.6384 115.934 52.1494 115.934 53.6484C115.934 54.1382 116.093 54.5443 116.654 54.6548C116.729 54.6548 116.776 54.8161 116.857 54.9325H113.536C113.623 54.8161 113.674 54.6757 113.751 54.6578C114.283 54.5413 114.459 54.171 114.477 53.6873C114.516 52.7466 114.531 51.806 114.573 50.8653C114.587 50.5876 114.471 50.5279 114.22 50.5249C112.826 50.5249 111.428 50.501 110.039 50.4681C109.705 50.4681 109.574 50.5518 109.589 50.9071C109.624 51.8239 109.648 52.7406 109.639 53.6574C109.62 53.8667 109.677 54.0758 109.799 54.2468C109.922 54.4177 110.101 54.5392 110.305 54.5891C110.422 54.6556 110.529 54.7391 110.622 54.837L110.529 54.8997Z" fill="white"/>
<path d="M24.5956 45.7811C25.6049 45.7244 26.6023 45.6438 27.5997 45.6199C28.3233 45.5792 29.0491 45.6062 29.7676 45.7005C30.7423 45.8564 31.6354 46.3381 32.3009 47.0671C32.9664 47.7961 33.365 48.7292 33.4317 49.714C33.6915 52.5419 31.8849 54.7278 29.0539 54.898C27.5608 54.9876 26.0678 54.9129 24.5478 54.9129C24.4552 54.6949 24.4761 54.5516 24.7001 54.5217C25.2973 54.4501 25.4168 54.0738 25.4257 53.5871C25.4496 51.9327 25.4526 50.2754 25.4466 48.621C25.4466 48.0596 25.3929 47.5012 25.363 46.9428C25.3757 46.7678 25.3237 46.5942 25.2169 46.4549C25.1101 46.3157 24.956 46.2204 24.7837 46.1873C24.509 46.1305 24.5478 45.9842 24.5956 45.7811ZM26.7187 50.2037H26.8173C26.8173 51.1563 26.8173 52.1089 26.8173 53.0615C26.8173 54.1574 26.8173 54.1634 27.9102 54.3963C28.4506 54.5379 29.021 54.5139 29.5475 54.3276C30.0741 54.1412 30.5326 53.8011 30.8636 53.3512C32.1357 51.7655 32.2014 49.0301 30.998 47.3788C30.5809 46.7992 29.9852 46.3726 29.3022 46.1644C28.6193 45.9562 27.8869 45.9778 27.2174 46.2261C27.0323 46.2978 26.8919 46.3724 26.883 46.6203C26.8501 47.8237 26.7874 49.0122 26.7187 50.2037Z" fill="white"/>
<path d="M140.377 45.9075C140.476 45.8389 140.572 45.7134 140.676 45.7105C141.784 45.6716 142.889 45.6328 143.997 45.6328C144.366 45.643 144.732 45.7012 145.087 45.806C145.471 45.8799 145.825 46.0637 146.106 46.3351C146.388 46.6066 146.585 46.9539 146.672 47.3349C146.795 47.7685 146.792 48.228 146.665 48.6602C146.538 49.0924 146.291 49.4798 145.953 49.7777C145.639 50.0274 145.31 50.2568 144.967 50.4645C145.588 51.7963 146.186 53.1521 147.261 54.239C147.614 54.6146 148.063 54.8871 148.56 55.0274C148.655 55.0513 148.724 55.1857 148.805 55.2663C148.7 55.3141 148.598 55.4036 148.506 55.4007C147.92 55.3843 147.345 55.2426 146.819 54.985C146.293 54.7275 145.829 54.36 145.457 53.9076C144.76 53.1089 144.199 52.2009 143.797 51.22C143.582 50.7093 143.319 50.4137 142.698 50.5899C142.677 50.784 142.638 51.0169 142.632 51.2498C142.632 51.9904 142.593 52.7429 142.632 53.4686C142.617 53.7406 142.696 54.0094 142.855 54.2304C143.015 54.4515 143.244 54.6115 143.507 54.684C143.603 54.7138 143.662 54.8542 143.782 54.9826H140.36C140.291 54.8124 140.36 54.6989 140.578 54.6332C140.749 54.5928 140.902 54.4973 141.014 54.3613C141.125 54.2254 141.189 54.0565 141.196 53.8807C141.285 52.6116 141.384 51.3424 141.42 50.0703C141.444 49.1894 141.366 48.3055 141.345 47.4245C141.345 46.7586 141.288 46.1226 140.374 46.036L140.377 45.9075ZM142.74 48.7205H142.671C142.671 48.8758 142.671 49.0192 142.671 49.1834C142.701 50.13 142.456 50.0793 143.567 50.0793C143.824 50.0939 144.08 50.052 144.319 49.9565C144.558 49.8611 144.773 49.7144 144.949 49.5268C145.869 48.4966 145.266 46.4242 143.934 46.036C143.762 45.9878 143.584 45.9647 143.405 45.9673C143.316 45.9559 143.225 45.965 143.14 45.9938C143.054 46.0226 142.976 46.0704 142.912 46.1337C142.847 46.1969 142.798 46.2739 142.768 46.3588C142.738 46.4438 142.727 46.5345 142.737 46.6242C142.731 47.314 142.74 48.0188 142.74 48.7205Z" fill="white"/>
<path d="M59.7865 47.7303C59.7594 47.8524 59.7405 47.9761 59.7298 48.1006C59.7029 49.6982 59.676 51.2958 59.6581 52.8935C59.6571 53.1202 59.6801 53.3464 59.7268 53.5683C59.8552 54.1805 60.324 54.4433 60.8675 54.5538C61.1243 54.6075 61.1661 54.715 61.1153 54.939H57.953C58.0694 54.7957 58.1232 54.6613 58.2157 54.6225C58.7473 54.4075 58.9444 54.1626 58.9563 53.5743C58.9882 52.1807 59.0131 50.7872 59.031 49.3936C59.031 48.7516 59.0579 48.1036 59.031 47.4616C59.0041 46.8195 58.7861 46.2999 58.1053 46.073C58.0007 46.0371 57.947 45.849 57.8066 45.6549C58.5353 45.6549 59.1385 45.6549 59.7417 45.6549C59.8402 45.6549 59.9448 45.7983 60.0403 45.8908C61.9634 47.9792 63.8845 50.0695 65.8037 52.1618C65.8485 52.2096 65.9112 52.2454 66.0456 52.353C66.0456 51.9976 66.0456 51.7169 66.0456 51.4392C66.0306 50.0685 66.0456 48.6979 65.9858 47.3302C65.9261 46.2581 65.8096 46.1894 64.6659 45.8669C64.8272 45.7535 64.9257 45.6221 65.0213 45.625C65.8335 45.64 66.6428 45.6728 67.4521 45.7176C67.5387 45.7176 67.6193 45.8281 67.7059 45.9505C66.9623 45.9953 66.81 46.4791 66.81 47.0316C66.7563 49.5937 66.7145 52.1559 66.6697 54.718V55.163C66.4935 55.0823 66.3322 55.0614 66.2546 54.9719C65.4991 54.0521 64.7914 53.0905 64 52.2036C62.7369 50.7912 61.4199 49.4235 60.118 48.0409C60.0314 47.9423 59.9328 47.8677 59.7865 47.7303Z" fill="white"/>
<path d="M55.2514 50.3371C55.2445 51.4661 54.8525 52.559 54.14 53.4348C53.4276 54.3107 52.4375 54.9172 51.3335 55.1538C49.8763 55.4524 48.646 54.9687 47.6098 53.9086C45.818 52.0691 45.7673 48.8052 47.4993 46.9597C48.0259 46.358 48.7114 45.9169 49.4773 45.6871C50.2432 45.4574 51.0584 45.4482 51.8292 45.6607C53.4836 46.0579 54.4631 47.2195 54.9618 48.7992C55.0904 49.3053 55.1872 49.8189 55.2514 50.3371ZM47.7411 49.6503C47.78 51.0568 48.0875 52.3886 48.9535 53.5323C49.5508 54.3386 50.363 54.8014 51.3992 54.6253C52.4354 54.4491 53.0864 53.7951 53.4478 52.8335C53.7374 52.0222 53.8094 51.1491 53.6568 50.3013C53.4567 49.0052 53.0297 47.8018 52.104 46.8403C50.802 45.4905 48.9476 45.816 48.1503 47.5241C47.8565 48.1933 47.7167 48.9199 47.7411 49.6503Z" fill="white"/>
<path d="M137.659 52.8521C137.468 53.521 137.289 54.1929 137.077 54.8558C137.053 54.9275 136.844 54.9782 136.722 54.9782C135.229 54.9603 133.715 54.9185 132.213 54.9096C131.642 54.9096 131.072 54.9633 130.504 54.9932L130.424 54.8886C130.516 54.7901 130.591 54.6348 130.702 54.605C130.885 54.5685 131.049 54.4666 131.163 54.3184C131.278 54.1701 131.334 53.9855 131.323 53.7987C131.347 51.7979 131.376 49.7942 131.394 47.7934C131.394 47.4142 131.356 47.032 131.341 46.6527C131.346 46.4902 131.293 46.3312 131.191 46.2046C131.089 46.0779 130.945 45.9922 130.785 45.9629C130.699 45.939 130.633 45.8285 130.558 45.7569C130.642 45.7071 130.734 45.6718 130.83 45.6523C132.287 45.6523 133.744 45.6523 135.202 45.6523H136.993C137.067 46.2363 137.008 46.8295 136.82 47.3873C136.799 47.453 136.659 47.4799 136.575 47.5217C136.543 47.4441 136.48 47.3634 136.483 47.2888C136.528 46.5721 136.357 46.3392 135.647 46.1899C134.796 46.0553 133.927 46.0796 133.085 46.2615C133.004 46.2615 132.887 46.4377 132.881 46.5363C132.84 47.5834 132.812 48.6316 132.798 49.6807C132.814 49.735 132.843 49.7844 132.883 49.8241C132.924 49.8638 132.973 49.8926 133.028 49.9077C133.816 49.9077 134.602 49.8868 135.387 49.8748C135.552 49.8798 135.713 49.8202 135.835 49.7087C135.957 49.5972 136.031 49.4426 136.041 49.2776C136.049 49.2061 136.07 49.1365 136.101 49.0715C136.145 49.0145 136.197 48.9642 136.256 48.9222C136.307 48.9849 136.399 49.0477 136.402 49.1163C136.42 49.5672 136.417 50.0122 136.42 50.475C136.42 50.8095 136.42 51.144 136.42 51.4754C136.42 51.559 136.325 51.6337 136.274 51.7143C136.22 51.6516 136.13 51.5949 136.116 51.5262C135.877 50.3675 135.772 50.493 134.688 50.4064C134.157 50.3646 133.619 50.4303 133.082 50.4392C132.861 50.4392 132.804 50.5616 132.807 50.7617C132.831 51.773 132.851 52.7864 132.867 53.8017C132.867 54.1212 132.983 54.3093 133.344 54.3123C134.103 54.3123 134.867 54.4079 135.617 54.3392C135.984 54.3053 136.333 54.166 136.622 53.9382C136.911 53.7104 137.128 53.4037 137.247 53.0551C137.31 52.9431 137.384 52.838 137.468 52.7416L137.659 52.8521Z" fill="white"/>
<path d="M14.2852 54.8693C14.3807 54.7768 14.4643 54.6305 14.5838 54.6006C14.7653 54.5606 14.9269 54.4578 15.04 54.3103C15.1532 54.1628 15.2105 53.98 15.2019 53.7943C15.3781 51.475 15.396 49.1463 15.2557 46.8245C15.2348 46.4094 15.1153 46.0481 14.6286 45.9496C14.5688 45.9496 14.5241 45.851 14.4733 45.7973C14.53 45.7495 14.5808 45.6808 14.6435 45.6599C14.7258 45.6414 14.8105 45.6364 14.8943 45.645L20.6577 45.6211C20.7174 45.6211 20.7742 45.6211 20.8697 45.6211C20.9434 46.2102 20.8832 46.8084 20.6935 47.371C20.6696 47.4457 20.5144 47.4785 20.3591 47.5651C20.3591 47.4039 20.3591 47.3471 20.3591 47.2904C20.4307 46.5707 20.2366 46.3109 19.505 46.1646C18.6666 46.0345 17.8114 46.0588 16.9817 46.2362C16.9321 46.257 16.8885 46.2896 16.8546 46.3313C16.8207 46.373 16.7977 46.4224 16.7876 46.4751C16.7398 47.5442 16.701 48.6162 16.6771 49.6883C16.6936 49.7375 16.7227 49.7816 16.7614 49.8162C16.8002 49.8507 16.8473 49.8746 16.8981 49.8854C17.7432 49.8854 18.5913 49.8675 19.4334 49.8227C19.8305 49.8048 19.8843 49.4464 19.9559 49.1478C20.0037 48.9507 20.0664 48.8492 20.3113 48.9567C20.3113 49.8048 20.3113 50.6618 20.3113 51.5188C20.3113 51.5815 20.2128 51.6413 20.159 51.704C20.1023 51.6443 20.0097 51.5905 19.9978 51.5218C19.7589 50.3453 19.6036 50.4826 18.5703 50.396C17.9731 50.3453 17.3759 50.396 16.7368 50.396C16.6167 51.5884 16.6328 52.7907 16.7846 53.9795C16.8174 54.1736 16.8891 54.2781 17.0832 54.2781C17.8781 54.337 18.6755 54.3539 19.4722 54.3288C19.8475 54.3002 20.2058 54.1606 20.5015 53.9276C20.7972 53.6947 21.0168 53.3791 21.1325 53.0209C21.1683 52.9194 21.2758 52.8417 21.3505 52.7551L21.5058 52.8328C21.3923 53.3135 21.2848 53.7943 21.1654 54.2721C21.1325 54.4095 21.0608 54.5409 21.031 54.6782C20.9772 54.938 20.8279 55.0007 20.5711 54.9918C19.078 54.953 17.5849 54.9231 16.0918 54.9141C15.5214 54.9141 14.9511 54.9649 14.3807 54.9948L14.2852 54.8693Z" fill="white"/>
<path d="M36.2754 54.8824C36.356 54.7899 36.4217 54.6465 36.5203 54.6197C36.7108 54.5698 36.8796 54.4585 37.0005 54.303C37.1214 54.1476 37.1877 53.9566 37.1892 53.7596C37.443 51.7499 37.3325 49.7372 37.2489 47.7245C37.2489 47.3931 37.2071 47.0586 37.1981 46.7271C37.205 46.565 37.1564 46.4053 37.0603 46.2744C36.9642 46.1436 36.8264 46.0494 36.6696 46.0075C36.5651 45.9716 36.4874 45.8581 36.3978 45.7775C36.5095 45.716 36.6306 45.6737 36.7562 45.6521C38.3179 45.6521 39.8797 45.676 41.4445 45.679C41.9044 45.679 42.3672 45.6342 42.8181 45.6133C43.0481 46.536 42.854 47.3423 42.3822 47.4767C42.3672 47.4498 42.3374 47.4229 42.3344 47.3931C42.2956 46.53 41.9581 46.1299 41.1041 46.109C40.3912 46.114 39.6793 46.1609 38.9719 46.2493C38.9127 46.2716 38.86 46.3084 38.8187 46.3565C38.7775 46.4045 38.7491 46.4621 38.736 46.5241C38.6882 47.5603 38.6643 48.5965 38.6285 49.6327C38.6285 49.8328 38.7062 49.9134 38.9003 49.9134C39.6259 49.9134 40.3516 49.9433 41.0772 49.9134C41.6386 49.8925 41.7521 49.7551 41.9133 49.2057C41.9432 49.1012 42.0477 49.0205 42.1164 48.928C42.1751 49.0257 42.2165 49.1327 42.2388 49.2445C42.2388 49.9731 42.2388 50.6988 42.2388 51.4274C42.219 51.5343 42.1773 51.636 42.1164 51.726C42.0461 51.6469 41.9841 51.5609 41.9312 51.4692C41.9052 51.39 41.8901 51.3076 41.8865 51.2243C41.8749 51.0063 41.779 50.8012 41.6191 50.6524C41.4592 50.5037 41.2478 50.4229 41.0294 50.427C40.3277 50.427 39.6259 50.4479 38.9212 50.4599C38.7241 50.4599 38.6494 50.5674 38.6524 50.7585C38.6793 51.8305 38.7032 52.9026 38.73 53.9746C38.73 54.1777 38.8256 54.2733 39.0496 54.318C39.8539 54.4999 40.6867 54.5182 41.4983 54.3718C41.8455 54.3025 42.1705 54.1493 42.4448 53.9255C42.7191 53.7016 42.9345 53.414 43.072 53.0877C43.1462 52.969 43.2333 52.8588 43.3318 52.7592L43.4811 52.8369C43.3676 53.3147 43.2721 53.7984 43.1317 54.2703C42.9137 55.0019 42.9018 54.9959 42.1313 54.984C40.6741 54.9631 39.2198 54.9392 37.7655 54.9332C37.2907 54.9332 36.8189 54.981 36.3471 55.0079L36.2754 54.8824Z" fill="white"/>
<path d="M127.395 47.3074C127.291 46.6534 127.24 46.5429 126.667 46.4742C126.019 46.3936 125.362 46.4026 124.708 46.3757C124.481 46.3757 124.475 46.519 124.469 46.6743C124.448 47.5702 124.412 48.466 124.403 49.3619C124.388 50.6967 124.385 52.0495 124.385 53.3694C124.385 54.2264 124.564 54.4325 125.412 54.5639C125.744 54.6176 125.75 54.6236 125.675 54.8864C125.138 54.8864 124.612 54.8655 124.093 54.8864C123.367 54.9222 122.638 54.97 121.919 55.0626C121.62 55.0984 121.548 55.0267 121.557 54.749C121.79 54.6714 122.02 54.5818 122.259 54.5221C122.461 54.4876 122.642 54.3783 122.766 54.2161C122.891 54.0539 122.95 53.8507 122.931 53.6471C122.946 52.8856 123.006 52.1212 123.003 51.3597C123.003 49.8934 122.961 48.4272 122.931 46.961C122.931 46.3638 122.904 46.3638 122.334 46.3638C121.871 46.3638 121.405 46.3638 120.939 46.3638C120.342 46.3787 119.789 46.5101 119.583 47.2059L119.303 47.1163C119.455 46.6206 119.601 46.1398 119.757 45.671C119.786 45.5844 119.957 45.4619 120.016 45.4828C120.814 45.7814 121.644 45.6769 122.462 45.6919C123.976 45.7128 125.493 45.6919 127.007 45.674C127.245 45.6684 127.483 45.6464 127.718 45.6083C127.945 45.5784 128.034 45.6441 127.969 45.883C127.867 46.2622 127.795 46.6475 127.67 47.0207C127.634 47.1432 127.491 47.2178 127.395 47.3074Z" fill="white"/>
<path d="M104.24 45.9693C104.279 46.4083 103.977 47.761 103.798 47.8715C103.78 47.8447 103.741 47.8178 103.741 47.7909C103.741 46.6711 102.923 46.3187 102.057 46.1067C100.37 45.6946 99.1008 46.4501 98.5783 48.1791C98.1598 49.5223 98.1754 50.9633 98.623 52.2971C99.0083 53.4468 99.7847 54.25 101.012 54.4919C102.35 54.7577 103.401 54.1634 103.962 52.9152C104.079 52.6494 104.079 52.6494 104.374 52.6793C104.237 53.2945 104.103 53.9066 103.959 54.5158C103.942 54.5523 103.917 54.5848 103.887 54.6115C103.857 54.6382 103.822 54.6585 103.783 54.6711C102.478 54.9996 101.155 55.2683 99.8384 54.7995C98.1273 54.2023 97.1508 52.9391 96.8731 51.1743C96.6305 49.9672 96.8433 48.7131 97.4704 47.6535C98.2498 46.3904 99.4293 45.7424 100.881 45.5632C101.748 45.4471 102.63 45.5635 103.437 45.9006C103.7 45.9591 103.97 45.9822 104.24 45.9693Z" fill="white"/>
<path d="M89.797 46.0006L89.8239 45.6602H93.7955V46.0543C93.5865 46.0812 93.3775 46.1051 93.1714 46.135C93.038 46.1417 92.9121 46.1988 92.819 46.2946C92.7259 46.3905 92.6726 46.518 92.6697 46.6516C92.5981 47.5773 92.4906 48.503 92.4786 49.4287C92.4577 50.7875 92.5055 52.1462 92.5204 53.5049C92.5204 54.3112 92.6488 54.4485 93.4491 54.559L93.6761 54.5829C93.7507 54.771 93.7507 54.9084 93.4909 54.9084H89.7433C89.6447 54.6785 89.6955 54.562 89.9195 54.5351C89.9672 54.5351 90.012 54.5142 90.0598 54.5083C90.7914 54.3948 91.0184 54.1917 91.0453 53.4392C91.096 51.8207 91.1169 50.1992 91.1319 48.5777C91.1319 48.0551 91.096 47.5295 91.0602 47.0069C91.0034 46.2514 90.8063 46.0633 90.0419 46.0155L89.797 46.0006Z" fill="white"/>
<path d="M75.4635 3.50786C77.9089 3.51447 80.2969 4.24933 82.323 5.6187C84.349 6.98808 85.9213 8.92991 86.8392 11.1965C87.7572 13.4631 87.9791 15.9518 87.4769 18.3451C86.9746 20.7384 85.7708 22.9278 84.0191 24.6342C82.2674 26.3405 80.0472 27.4864 77.6415 27.9258C75.2359 28.3651 72.7539 28.0779 70.5121 27.1008C68.2704 26.1238 66.3705 24.5011 65.0547 22.4398C63.7389 20.3785 63.067 17.9721 63.1245 15.5273C63.2003 12.308 64.5346 9.2466 66.8413 6.99965C69.1479 4.7527 72.2433 3.49915 75.4635 3.50786ZM74.7557 16.9069L74.5586 17.2235C73.9527 18.1685 73.7285 19.3086 73.9315 20.4127C74.0255 21.0099 74.2368 21.5825 74.5533 22.0975C74.8699 22.6125 75.2853 23.0596 75.7757 23.4131C76.2661 23.7666 76.8216 24.0194 77.4103 24.1568C77.9989 24.2943 78.609 24.3138 79.2052 24.2142C81.415 23.9006 83.2336 21.9715 83.1589 19.3138C83.1589 19.1137 83.0693 19.0391 82.8752 19.0391C81.5732 19.0391 80.2742 19.0391 78.9722 19.0391C78.7453 19.0391 78.6915 19.1466 78.6945 19.3377C78.6945 19.7169 78.7154 20.1022 78.6945 20.4814C78.6766 20.78 78.7961 20.8487 79.0678 20.8397C79.6352 20.8218 80.2026 20.8397 80.8117 20.8397C80.7746 20.9315 80.7307 21.0203 80.6804 21.1055C80.408 21.5243 80.0184 21.8538 79.5602 22.0529C79.102 22.252 78.5953 22.312 78.1033 22.2253C77.6138 22.1674 77.153 21.964 76.7803 21.6414C76.4077 21.3188 76.1403 20.8918 76.0129 20.4157C75.848 19.9438 75.8288 19.4333 75.9576 18.9503C76.0865 18.4673 76.3575 18.0342 76.7356 17.7072C77.2216 17.2509 77.8642 16.9984 78.5309 17.0017C79.1976 17.0051 79.8376 17.264 80.319 17.7251C80.4026 17.7998 80.6176 17.8834 80.6565 17.8416C81.1343 17.4713 81.5882 17.0742 82.0839 16.6471C80.4026 14.9062 78.5004 14.5568 76.3384 15.5004L75.3171 14.07C75.5023 13.9476 75.6576 13.858 75.8009 13.7505C76.2175 13.4656 76.5538 13.0784 76.7776 12.626C77.0014 12.1737 77.1052 11.6714 77.079 11.1675C77.0463 10.3619 76.6977 9.60156 76.1087 9.05107C75.5196 8.50058 74.7375 8.20419 73.9315 8.22605C72.4146 8.22605 70.8976 8.22605 69.3836 8.22605C69.0431 8.22605 68.9386 8.31564 68.9416 8.66204C68.9416 11.478 68.9416 14.294 68.9416 17.107C68.928 17.1891 68.928 17.2728 68.9416 17.3549C68.9715 17.4295 69.0491 17.531 69.1059 17.534C69.721 17.534 70.3392 17.534 70.9812 17.534V14.3597C71.5784 14.3597 72.1757 14.3597 72.755 14.3597C72.7952 14.3648 72.8339 14.378 72.8688 14.3986C72.9037 14.4191 72.9341 14.4465 72.9581 14.4791C73.5702 15.2884 74.1615 16.0977 74.7557 16.9069Z" fill="white"/>
<path d="M71.0176 10.0511C72.012 10.0511 72.9855 10.0152 73.959 10.0511C74.2507 10.0879 74.5192 10.2292 74.7146 10.4489C74.9101 10.6685 75.0193 10.9516 75.0221 11.2456C75.037 11.8189 74.6428 12.44 74.0934 12.4759C73.0781 12.5416 72.0568 12.4938 71.0176 12.4938V10.0511Z" fill="white"/>
</svg>
