<svg width="137" height="40" viewBox="0 0 137 40" fill="none" xmlns="http://www.w3.org/2000/svg">
<path d="M0 40V0H27.9121V40H0ZM23.8731 35.9705V4.02921H4.01928V35.9705H23.8731Z" fill="#FFD520"/>
<path d="M46.4591 17.9977H44.7322C42.469 14.7977 40.2151 11.6172 37.9713 8.01732V17.9977H36.0204V4.07577H37.747C40.0105 7.25624 42.2641 10.4172 44.4884 13.9978V4.07577H46.4396V17.9977H46.4591ZM50.986 12.4953C51.5421 10.671 52.0982 8.97334 52.5957 6.82717C53.1518 8.97348 53.6495 10.671 54.1665 12.4953H50.986ZM51.903 4.08558L47.0834 17.9977H49.1518L50.3615 14.2026H54.5566L55.6492 17.9977H58.3126L53.9126 4.07577H51.9616L51.903 4.08558ZM60.5761 17.9977V5.94901H56.9175V4.08558H66.5957V5.94901H62.9372V17.9977H60.547H60.5761ZM67.4055 17.9977V4.07577H69.7761V17.9977H67.4055ZM77.1225 16.2221C74.6347 16.2221 73.7566 13.4806 73.7566 10.8172C73.7566 8.15372 74.7322 5.80254 77.1225 5.80254C79.5128 5.80254 80.4787 8.25146 80.4787 10.8172C80.4787 13.3832 79.6103 16.2221 77.1225 16.2221ZM77.1225 18.1733C80.7614 18.1733 83.0248 14.9345 83.0248 10.7782C83.0248 6.8759 80.5175 3.77344 77.1225 3.77344C73.7275 3.77344 71.22 6.8759 71.22 10.7782C71.22 14.9927 73.4837 18.2417 77.1225 18.2417V18.1733ZM94.8884 17.9977H93.1614C90.8982 14.7977 88.6444 11.6172 86.4006 8.01732V17.9977H84.4495V4.07577H86.1762C88.4396 7.25624 90.6933 10.4172 92.9175 13.9978V4.07577H94.8687V17.9977H94.8884ZM99.4444 12.4953C100.001 10.671 100.557 8.97334 101.054 6.82717C101.61 8.97348 102.108 10.671 102.625 12.4953H99.4053H99.4444ZM100.361 4.08558L95.5517 18.0075H97.62L98.8298 14.2123H103.025L104.117 18.0075H106.781L102.342 4.08558H100.391H100.361ZM107.474 4.07577H109.844V16.1245H114.557V17.9977H107.474V4.07577ZM44.9858 29.6466V35.3928C43.7305 35.9228 42.3872 36.214 41.0251 36.2514C36.9274 36.2514 34.3418 33.0709 34.3418 28.9735C34.3418 25.1781 36.9274 21.8516 41.1029 21.8516C42.311 21.8583 43.4884 22.2326 44.4786 22.9247L43.7079 24.5735C42.9371 24.1126 42.0596 23.8605 41.1617 23.8419C38.6152 23.8419 36.8883 25.8517 36.8883 29.0125C36.8883 32.1734 38.8394 34.2613 40.9275 34.2613C41.5032 34.2862 42.0761 34.1688 42.5956 33.9198V29.6466H44.9858ZM53.5226 23.9586H49.5421V27.7734H53.4445V29.6466H49.5421V34.1441H54.2348V36.0172H47.152V22.0759H53.5131V23.949L53.5226 23.9586ZM60.8786 34.2612C58.3909 34.2612 57.5225 31.5196 57.5225 28.8564C57.5225 26.193 58.4982 23.8416 60.8786 23.8416C63.2592 23.8416 64.2446 26.2904 64.2446 28.8564C64.2445 31.4221 63.3665 34.2612 60.8786 34.2612ZM60.8786 36.2124C64.5175 36.2124 66.7811 32.9733 66.7811 28.8173C66.7811 24.915 64.2737 21.8125 60.8786 21.8125C57.4837 21.8125 54.9764 24.915 54.9764 28.8173C54.9764 33.0124 57.2397 36.2514 60.8786 36.2514V36.2124ZM78.2444 29.6466V35.3928C76.989 35.9228 75.6456 36.214 74.2834 36.2514C70.1859 36.2514 67.6004 33.0709 67.6004 28.9735C67.6004 25.1781 70.1859 21.8516 74.3615 21.8516C75.5696 21.8583 76.7469 22.2326 77.7371 22.9247L76.9665 24.5735C76.1955 24.1126 75.3179 23.8605 74.4199 23.8419C71.8737 23.8419 70.1468 25.8517 70.1468 29.0125C70.1468 32.1734 72.098 34.2613 74.1858 34.2613C74.7615 34.2862 75.3344 34.1688 75.8542 33.9198V29.6466H78.2444ZM82.8199 23.9586H83.8737C84.9835 23.8487 85.9723 24.6594 86.0823 25.7695C86.0966 25.9136 86.0954 26.0588 86.0786 26.2026C86.2542 27.5437 85.3092 28.7731 83.9683 28.9486C83.9175 28.9551 83.8664 28.9603 83.8151 28.9637L82.8395 29.0222V23.9489L82.8199 23.9586ZM88.8688 36.0077L86.1078 30.2418C86.8445 29.8328 87.4571 29.2327 87.8813 28.5047C88.3054 27.7767 88.5252 26.9477 88.5176 26.1052C88.5176 23.4026 86.8687 22.0857 84.2054 22.0857H80.4883V36.0077H82.8786V30.7586H83.9518L86.1954 36.0077H88.9177H88.8688Z" fill="white"/>
<path d="M92.8009 30.5052C93.357 28.6808 93.913 26.9832 94.4107 24.8367C94.9668 26.9832 95.4642 28.6709 95.9812 30.5052H92.762H92.8009ZM93.7178 22.076L88.9082 35.9978H90.9863L92.1961 32.2024H96.391L97.4836 35.9978H100.147L95.7081 22.076H93.757H93.7178ZM104.645 22.076H100.928V35.9978H103.318V30.7587H104.391C106.902 30.7755 108.951 28.7538 108.968 26.2429C108.968 26.1969 108.968 26.1509 108.967 26.105C108.928 23.4025 107.279 22.076 104.645 22.076ZM104.303 28.9538L103.328 29.0123V23.9491H104.401C105.512 23.8501 106.493 24.6704 106.592 25.7812C106.604 25.9184 106.602 26.0563 106.586 26.1928C106.766 27.5389 105.82 28.7754 104.474 28.955C104.408 28.9638 104.341 28.97 104.274 28.9735L104.303 28.9538ZM119.991 36.0077H117.601V29.3052H112.645V36.0077H110.274V22.076H112.645V27.4221H117.601V22.1148H119.991V35.9978V36.0077ZM122.274 36.0077V22.076H124.645V35.9978H122.274V36.0077ZM135.376 24.6125C134.641 24.1474 133.797 23.8818 132.928 23.8419C130.498 23.8419 128.732 25.8514 128.732 29.0123C128.732 32.1732 130.684 34.2612 132.986 34.2612C133.832 34.2591 134.661 34.0191 135.377 33.5686L136.03 35.2955C135.093 35.9036 134.006 36.2412 132.889 36.271C128.791 36.271 126.206 33.0905 126.206 28.9928C126.206 25.1979 128.772 21.8711 132.928 21.8711C134.077 21.9068 135.19 22.2801 136.128 22.9443L135.376 24.6125Z" fill="white"/>
</svg>
