<svg width="123" height="22" viewBox="0 0 123 22" fill="none" xmlns="http://www.w3.org/2000/svg">
<path d="M122.058 21.2924C122.058 19.9546 121.31 19.4899 120.064 19.4899H110.687C106.285 19.4899 104.733 16.6779 104.531 14.7406H117.549C121.347 14.7406 122.467 11.9188 122.467 10.1022C122.467 8.16349 121.249 5.46525 117.549 5.46525H110.517C104.116 5.46525 102.009 9.96184 102.009 13.6091C102.009 17.6157 104.407 21.7529 110.5 21.7529H122.058V21.2924ZM110.703 7.72829H117.228C119.478 7.72829 120.02 9.17427 120.02 10.1022C120.02 10.9333 119.527 12.4762 117.228 12.4762H104.531C104.685 10.8617 105.998 7.72829 110.703 7.72829ZM84.1591 20.7239C83.4869 21.6701 83.0256 22 82.4378 22C81.6213 22 81.3083 21.5451 80.7273 20.7253C79.3121 18.7374 69.8972 5.46525 69.8972 5.46525H71.3545C72.9248 5.46525 73.3752 6.03803 74.0284 6.97581C74.3128 7.38855 82.5004 19.2947 82.5004 19.2947C82.5004 19.2947 90.677 7.404 91.0145 6.91405C91.6146 6.03382 92.0813 5.46525 93.6598 5.46525H94.9389C94.9389 5.46525 85.3048 19.1038 84.1591 20.7239ZM22.4196 21.7529C21.433 21.7529 20.8139 21.2503 20.6207 20.1637L20.2968 18.3949C19.7661 19.4141 17.7862 21.7529 13.5067 21.7529H8.58627C1.88871 21.7529 0 17.071 0 13.6091C0 9.71055 2.26972 5.46525 8.58627 5.46525H13.5067C18.2965 5.46525 20.9649 8.34459 21.6045 11.8528C22.1406 14.7827 23.3979 21.7529 23.3979 21.7529H22.4196ZM12.9651 7.72829H8.75909C4.0346 7.72829 2.4262 10.8294 2.4262 13.6091C2.4262 16.4182 4.0346 19.4899 8.75909 19.4899H12.9651C17.8992 19.4899 19.3375 16.2582 19.3375 13.6091C19.3375 11.2464 18.0529 7.72829 12.9651 7.72829ZM98.0972 3.59811C98.7966 3.59811 99.3382 3.15168 99.3382 2.30234V1.76606C99.3382 0.908302 98.7898 0.470295 98.0972 0.470295C97.4086 0.470295 96.8534 0.901283 96.8534 1.76606V2.30234C96.8534 3.1573 97.395 3.59811 98.0972 3.59811ZM96.882 5.46385H97.4603C98.587 5.46385 99.3096 5.98609 99.3096 7.56544V21.7529H98.7054C97.4699 21.7529 96.882 21.0636 96.882 19.6934V5.46385ZM27.1005 7.58088C28.1456 6.56027 29.9962 5.46525 32.9313 5.46525H37.8504C44.5466 5.46525 46.4394 10.1472 46.4394 13.6091C46.4394 17.5062 44.1683 21.7529 37.8504 21.7529H32.9313C28.1374 21.7529 24.6743 18.5577 24.6743 13.6105V0H25.4254C26.4977 0 27.1005 0.567162 27.1005 1.60743V7.58088ZM33.4742 19.4899H37.6776C42.4034 19.4899 44.0118 16.3873 44.0118 13.6091C44.0118 10.7999 42.4034 7.72829 37.6776 7.72829H33.4742C28.5375 7.72829 27.1005 10.9572 27.1005 13.6091C27.1005 15.9718 28.3823 19.4899 33.4742 19.4899ZM51.3217 7.58088C52.3695 6.56027 54.2146 5.46525 57.1511 5.46525H62.0729C68.7678 5.46525 70.6619 10.1472 70.6619 13.6091C70.6619 17.5062 68.3881 21.7529 62.0729 21.7529H57.1511C52.3599 21.7529 48.8955 18.5577 48.8955 13.6105V0H49.6466C50.7175 0 51.3217 0.567162 51.3217 1.60743V7.58088ZM57.6927 19.4899H61.9001C66.6219 19.4899 68.2316 16.3873 68.2316 13.6091C68.2316 10.7999 66.6246 7.72829 61.9001 7.72829H57.6927C52.7586 7.72829 51.3217 10.9572 51.3217 13.6091C51.3217 15.9718 52.6049 19.4899 57.6927 19.4899Z" fill="white"/>
</svg>
