<svg width="109" height="45" viewBox="0 0 109 45" fill="none" xmlns="http://www.w3.org/2000/svg">
<path d="M54.0684 44.3978C54.193 43.907 54.3151 43.4136 54.4475 42.9254C56.6653 34.8176 58.8849 26.7099 61.1062 18.6021C61.504 16.9952 62.0925 15.4415 62.8591 13.9743C63.659 12.5356 64.677 11.2994 66.1417 10.484C67.513 9.74079 69.0732 9.41916 70.6267 9.55944C71.3909 9.58715 72.1425 9.76357 72.8393 10.0788C73.8781 10.5852 74.5922 11.3773 74.8 12.5486C75.0597 14.034 74.1352 15.5195 72.7354 15.8207C72.3469 15.9267 71.9376 15.9305 71.5472 15.8318C71.1569 15.733 70.7986 15.5351 70.5072 15.2572C70.2548 15.0309 70.0732 14.7364 69.9842 14.4093C69.8953 14.0822 69.9029 13.7363 70.006 13.4134C70.0943 13.0939 70.2319 12.7901 70.3384 12.4758C70.5981 11.7175 70.3384 11.3721 69.5593 11.3098C68.6841 11.2423 68.0323 11.6292 67.4999 12.2733C66.938 12.969 66.5244 13.7724 66.2845 14.6339C65.7651 16.3687 65.3055 18.1165 64.8224 19.859C64.8126 19.9035 64.8065 19.9486 64.8042 19.9941H72.9795C72.9613 20.0928 72.9562 20.1603 72.9406 20.2226C71.8637 24.1614 70.7868 28.1001 69.7099 32.0388C69.7064 32.0712 69.6965 32.1024 69.6806 32.1308C69.6647 32.1591 69.6433 32.184 69.6176 32.2039C69.5919 32.2238 69.5624 32.2383 69.531 32.2465C69.4996 32.2547 69.4668 32.2565 69.4347 32.2518C68.24 32.2518 67.0428 32.2518 65.8482 32.2518C65.7807 32.2518 65.7106 32.2518 65.6041 32.2336C66.5312 28.8394 67.4532 25.4815 68.3829 22.0743C68.2764 22.0743 68.1959 22.0535 68.1232 22.0535C66.9208 22.0535 65.7184 22.0535 64.5186 22.0535C64.2874 22.0535 64.2043 22.1262 64.1446 22.3417C62.7907 27.3089 61.4334 32.2769 60.0726 37.2458L58.117 44.3978H54.0684Z" fill="white"/>
<path d="M108.509 22.3024C108.454 22.492 108.412 22.6842 108.342 22.8686C108.208 23.2784 107.95 23.6363 107.603 23.8927C107.257 24.1491 106.839 24.2913 106.408 24.2995C106.162 24.3092 105.919 24.258 105.698 24.1506C105.477 24.0432 105.287 23.883 105.143 23.684C104.94 23.4062 104.772 23.1023 104.592 22.8037C104.239 22.2167 103.925 22.1492 103.372 22.5647C102.785 23.045 102.299 23.6374 101.943 24.3073C101.368 25.3553 100.939 26.4772 100.668 27.6418C100.276 29.1065 99.8684 30.5712 99.4711 32.0359C99.4347 32.1683 99.3958 32.2618 99.2244 32.2618C97.9934 32.2618 96.7624 32.2618 95.5341 32.2618C95.4826 32.2571 95.4314 32.2493 95.3809 32.2385C95.3964 32.1657 95.4016 32.0982 95.4198 32.0359C96.495 28.1041 97.5692 24.1731 98.6427 20.243C98.6457 20.2071 98.6562 20.1722 98.6735 20.1406C98.6908 20.1089 98.7145 20.0812 98.7431 20.0592C98.7717 20.0372 98.8045 20.0214 98.8395 20.0128C98.8746 20.0043 98.911 20.0031 98.9465 20.0093C100.128 20.0093 101.307 20.0093 102.489 20.0093C102.564 20.0093 102.639 20.0093 102.748 20.0249C102.541 20.804 102.338 21.5389 102.136 22.2843L102.177 22.3024C102.271 22.183 102.362 22.0583 102.458 21.9389C103.069 21.1087 103.896 20.462 104.849 20.069C105.494 19.8026 106.205 19.7357 106.888 19.8769C107.269 19.9472 107.621 20.1292 107.898 20.3997C108.175 20.6702 108.366 21.017 108.446 21.3961C108.462 21.4584 108.48 21.5182 108.498 21.5779L108.509 22.3024Z" fill="white"/>
<path d="M19.9539 20.0107C19.4969 19.9588 19.0424 19.8861 18.5853 19.8549C17.1492 19.7562 15.7105 19.6497 14.2692 19.5952C13.1914 19.5537 12.1059 19.5614 11.0255 19.5952C9.03679 19.6143 7.06173 19.9267 5.16416 20.5223C4.55647 20.7249 3.97215 20.9924 3.32551 21.2495C3.47613 21.4261 3.58521 21.5507 3.68389 21.6676C4.73395 22.7792 5.92377 23.7499 7.22357 24.5554C9.8457 26.1929 12.6383 27.54 15.5521 28.5729C19.1293 29.8891 22.8181 30.8791 26.5736 31.5309C28.4587 31.8682 30.3608 32.1023 32.2714 32.2321C32.396 32.2321 32.5311 32.2606 32.6661 32.2788C32.6453 32.3671 32.6324 32.4346 32.6142 32.4996C31.9494 34.9338 31.2854 37.3672 30.6223 39.7997C30.5756 39.9737 30.5028 40.0204 30.3314 39.9996C28.7473 39.7997 27.1553 39.6438 25.579 39.4049C22.5043 38.9294 19.4708 38.2184 16.5051 37.278C13.3024 36.3103 10.2071 35.0172 7.26771 33.4189C5.37712 32.3671 3.58001 31.1777 2.07377 29.6117C1.24612 28.8122 0.610394 27.8355 0.214333 26.7551C-0.047268 26.0191 -0.0699879 25.2194 0.149409 24.4697C0.764892 22.3324 1.33363 20.1847 1.91795 18.0396C2.24586 16.7042 2.97011 15.4992 3.99553 14.5831C4.95602 13.7744 6.06857 13.166 7.26771 12.7937C8.57588 12.379 9.92582 12.1099 11.293 11.9913C12.7068 11.8451 14.1289 11.7947 15.5495 11.8406C17.0245 11.89 18.4996 11.9861 19.9643 12.077C20.6058 12.1159 21.2446 12.1912 21.8835 12.251C21.9454 12.2582 22.007 12.2686 22.0679 12.2821C21.3589 14.8791 20.6551 17.4397 19.9487 20.0133L19.9539 20.0107Z" fill="white"/>
<path d="M19.9493 20.0154L21.5335 20.1426C22.406 20.2101 23.2786 20.301 24.1538 20.3322C25.4809 20.3841 26.8131 20.4309 28.1402 20.4153C30.1002 20.4256 32.0538 20.1892 33.9548 19.7115C34.7616 19.5033 35.5448 19.2127 36.2921 18.8441C36.3726 18.8026 36.4505 18.7558 36.5673 18.6909C36.357 18.4572 36.1726 18.2364 35.9726 18.0339C35.0282 17.0883 33.9832 16.2488 32.8563 15.5304C30.7818 14.2008 28.5863 13.0704 26.2989 12.1543C22.6904 10.682 18.9517 9.5517 15.1319 8.77827C13.0555 8.35045 10.9576 8.03489 8.84725 7.83297C8.41615 7.79142 7.98765 7.76804 7.54876 7.73428C7.46566 7.73428 7.38515 7.71091 7.28906 7.69533C7.29694 7.62197 7.30908 7.54913 7.32542 7.47718C7.98678 5.05334 8.64988 2.6295 9.3147 0.205657C9.35366 0.0680171 9.39781 -0.0176828 9.5744 0.00309301C11.0599 0.187478 12.5531 0.327715 14.0334 0.551055C17.1727 1.0294 20.2712 1.74563 23.302 2.69356C26.1788 3.5664 28.9735 4.69 31.6539 6.05144C33.4963 6.97034 35.2254 8.10071 36.8063 9.41972C37.9022 10.3624 38.8838 11.4012 39.5019 12.7335C39.8131 13.3728 39.9587 14.08 39.9252 14.7903C39.8877 15.0904 39.8207 15.3862 39.7253 15.6732C39.1383 17.8313 38.541 19.9868 37.9567 22.1475C37.3984 24.2251 36.0843 25.6378 34.2067 26.5857C32.8656 27.2292 31.432 27.6585 29.958 27.8582C28.3089 28.1133 26.64 28.2185 24.9719 28.1725C23.1903 28.1283 21.414 28.0063 19.6351 27.9128C19.1157 27.8842 18.5963 27.8219 18.0951 27.7751C18.0198 27.7751 17.9444 27.7492 17.8613 27.7336C17.8625 27.6795 17.8686 27.6256 17.8795 27.5726C18.572 25.0587 19.2646 22.5483 19.9571 20.0413V20.0206L19.9493 20.0154Z" fill="white"/>
<path d="M42.125 32.2428L42.4626 31.004C43.9844 25.443 45.5054 19.8846 47.0255 14.3288C47.1424 13.8977 47.0696 13.9523 47.5137 13.9523C49.5619 13.9523 51.6117 13.9523 53.6634 13.9523C54.7567 13.9195 55.8418 14.1511 56.8265 14.6275C57.6944 15.0667 58.4062 15.7623 58.8652 16.6199C59.3243 17.4776 59.5083 18.4557 59.3923 19.4215C59.1092 22.1457 57.1693 24.5999 53.8685 25.2621C53.1833 25.3917 52.4882 25.4621 51.7909 25.4724C50.682 25.5062 49.5731 25.488 48.4616 25.4724C48.2668 25.4724 48.1811 25.5244 48.1292 25.7321C47.5683 27.8097 46.9943 29.8873 46.4334 31.9649C46.4294 32.0106 46.4159 32.055 46.3939 32.0953C46.3718 32.1356 46.3417 32.1709 46.3053 32.199C46.269 32.227 46.2272 32.2473 46.1826 32.2584C46.1381 32.2695 46.0917 32.2712 46.0464 32.2635C44.8466 32.2635 43.6442 32.2635 42.4418 32.2635C42.3457 32.2739 42.2574 32.2505 42.125 32.2428ZM48.807 23.3014C48.9083 23.3014 48.9836 23.3014 49.0667 23.3014H50.2535C51.1048 23.3044 51.9456 23.1144 52.7129 22.7456C54.5463 21.8782 55.4085 20.2473 55.0501 18.3437C54.9628 17.7612 54.68 17.2257 54.2483 16.8251C53.8165 16.4244 53.2613 16.1825 52.6739 16.1389C52.1545 16.087 51.6014 16.1389 51.0638 16.1052C51.0205 16.0958 50.9757 16.0957 50.9324 16.105C50.8891 16.1143 50.8483 16.1327 50.8127 16.159C50.777 16.1853 50.7474 16.2188 50.7258 16.2575C50.7042 16.2961 50.691 16.3389 50.6872 16.383C50.0865 18.606 49.4805 20.8265 48.8693 23.0443C48.8408 23.1274 48.8278 23.2027 48.807 23.3014Z" fill="white"/>
<path d="M93.7851 29.2577C93.8059 29.3045 93.837 29.359 93.8604 29.4162C94.0604 29.907 94.2499 30.403 94.4603 30.8886C94.4789 30.9176 94.491 30.9503 94.4957 30.9844C94.5003 31.0185 94.4975 31.0532 94.4874 31.0861C94.4772 31.119 94.46 31.1493 94.4369 31.1748C94.4139 31.2004 94.3855 31.2206 94.3538 31.234C93.5337 31.7803 92.6114 32.1549 91.6426 32.3351C90.3767 32.6335 89.0577 32.6238 87.7965 32.3066C85.589 31.6859 84.3061 30.1875 83.888 27.9644C83.5167 25.983 84.1477 24.2196 85.2592 22.6095C86.1364 21.2779 87.4625 20.3056 88.9963 19.8697C90.2096 19.5284 91.497 19.5565 92.6943 19.9502C94.385 20.4878 95.3121 21.7031 95.6393 23.4042C95.8172 24.3165 95.7888 25.257 95.5562 26.157C95.5043 26.3647 95.4082 26.4296 95.1926 26.4296C92.7671 26.4296 90.3415 26.4296 87.9211 26.4296C87.6926 26.4296 87.6173 26.4894 87.6069 26.7179C87.5601 27.697 87.6926 28.6241 88.3392 29.411C88.5591 29.6808 88.8331 29.9016 89.1435 30.059C89.4539 30.2165 89.7939 30.3071 90.1415 30.3251C91.3662 30.4038 92.5814 30.064 93.5877 29.3616C93.6371 29.3305 93.6812 29.2993 93.7305 29.2707C93.7799 29.2422 93.7617 29.2577 93.7851 29.2577ZM87.9107 24.5338C88.0328 24.5338 88.1081 24.5338 88.1834 24.5338H91.0401C91.3933 24.5338 91.7491 24.5338 92.1022 24.5338C92.1646 24.5338 92.2736 24.4663 92.2814 24.4222C92.4056 23.7423 92.3053 23.0404 91.9958 22.4225C91.8971 22.2377 91.7577 22.0779 91.5881 21.955C91.4184 21.8322 91.223 21.7496 91.0167 21.7135C90.7567 21.6538 90.487 21.6495 90.2253 21.7009C89.9635 21.7524 89.7155 21.8584 89.4975 22.0122C88.6405 22.6277 88.2405 23.5314 87.9107 24.5338Z" fill="white"/>
<path d="M71.0078 32.2465C73.6957 28.8341 76.3472 25.4736 79.0325 22.069H73.9528C73.9616 21.993 73.9746 21.9176 73.9917 21.843C74.1294 21.3236 74.2826 20.8224 74.4047 20.3082C74.4075 20.2623 74.4202 20.2175 74.4417 20.1768C74.4632 20.1361 74.4931 20.1004 74.5295 20.0722C74.5658 20.0439 74.6077 20.0238 74.6525 20.013C74.6972 20.0022 74.7438 20.001 74.789 20.0096C77.8084 20.0096 80.8287 20.0096 83.8498 20.0096H85.1353L85.1665 20.0641L77.1834 30.1923H82.9201C82.8968 30.2962 82.8864 30.3637 82.8708 30.4286C82.7228 30.9662 82.5669 31.5038 82.4319 32.0439C82.3877 32.2205 82.3021 32.2621 82.1358 32.2621C80.8633 32.2621 79.5908 32.2621 78.3183 32.2621H71.3584C71.2623 32.2751 71.1662 32.2543 71.0078 32.2465Z" fill="white"/>
</svg>
