<svg width="153" height="25" viewBox="0 0 153 25" fill="none" xmlns="http://www.w3.org/2000/svg">
<path d="M15.2679 11.201L15.2059 11.3612C16.2396 11.816 18.5603 13.6199 18.5603 17.2533C18.5603 20.6749 15.6762 24.1224 11.1434 24.1224C5.50452 24.1224 3.56114 20.8248 3.56114 17.796C3.56114 13.9145 6.27463 11.3302 6.27463 7.79489C6.25985 6.54454 5.82138 5.33619 5.03089 4.36732C4.2404 3.39845 3.14464 2.72638 1.9227 2.46094L1.82967 2.62116C2.2728 3.05114 2.62441 3.56629 2.86334 4.13563C3.10227 4.70498 3.22359 5.31677 3.22001 5.93421C3.22001 9.75377 0 12.4673 0 16.8502C0 20.8868 2.82203 25.001 10.9935 25.001C18.276 25.001 22.1163 21.4347 22.1163 17.641C22.1111 14.3848 19.7801 11.63 15.2679 11.201Z" fill="white"/>
<path d="M47.2632 24.3491L37.5825 11.867V23.1189L39.5569 23.5893V24.1062H35.055V23.5893L36.6676 23.1189V10.8592C36.2751 10.4933 35.8026 10.2243 35.2876 10.0735C35.0912 10.0322 34.8277 9.98565 34.8277 9.98565V9.4688H38.6472L46.9169 20.2194V10.4663L44.9425 9.99084V9.47399H49.4443V9.99084L47.8317 10.4663V21.6252C47.8317 22.6589 47.9041 24.163 47.9196 24.3542L47.2632 24.3491ZM67.5033 16.3998C67.5033 21.5684 63.8853 24.5661 59.9313 24.5661C55.9774 24.5661 52.3439 21.527 52.3439 16.803C52.3439 12.0789 55.9619 9.00881 59.8951 9.00881C60.8852 8.97613 61.8717 9.14351 62.7956 9.50094C63.7195 9.85836 64.5618 10.3985 65.272 11.089C65.9823 11.7795 66.546 12.6062 66.9294 13.5196C67.3128 14.433 67.508 15.4144 67.5033 16.405V16.3998ZM64.9862 17.1751C64.9862 13.3762 62.712 9.69104 59.6212 9.69104C56.334 9.69104 54.8506 12.8697 54.8506 16.2706C54.8506 19.6716 56.7268 23.889 60.2569 23.889C63.5751 23.889 64.9862 20.5295 64.9862 17.1751ZM70.6303 10.456L69.0796 9.98046V9.46361H75.0183V9.98046L73.1576 10.456L77.2563 21.6304L81.355 10.456L79.4943 9.98046V9.46361H83.8876V9.98046L82.337 10.456L77.2046 24.3853H75.8918L70.6303 10.456ZM105.725 16.6324H104.784V10.2337C107.885 10.2337 109.73 10.947 109.73 13.4796C109.715 15.3609 108.102 16.6324 105.725 16.6324ZM132.296 23.5893L134.364 23.1189V10.4612L132.296 9.98565V9.4688H138.741V9.98565L136.674 10.4612V23.1189L138.741 23.5893V24.1062H132.296V23.5893ZM142.69 20.085H143.099L144.468 23.2378C145.283 23.6468 146.178 23.8693 147.089 23.889C148.867 23.889 150.49 22.8553 150.49 21.005C150.49 19.5991 149.58 18.7618 148.107 17.9917L146.649 17.2371C144.908 16.3326 143.166 15.0508 143.166 12.9886C143.166 10.7454 144.716 9.01394 148.035 9.01394C149.201 9.02578 150.358 9.21577 151.466 9.57732L151.813 12.9679H151.373L150.107 10.2492C149.452 9.88312 148.713 9.69096 147.962 9.69104C146.282 9.69104 145.14 10.7247 145.14 12.1565C145.14 13.4537 146.003 14.2704 147.482 15.0354L149.208 15.9346C151.565 17.1544 152.681 18.2863 152.681 20.3796C152.681 22.9639 150.257 24.5713 147.244 24.5713C145.825 24.5929 144.413 24.3817 143.062 23.946L142.69 20.085ZM82.9418 23.5893L84.6008 23.1189L89.7229 9.45842L91.4337 9.01913L96.7211 23.1138L98.3802 23.5893V24.1062H92.1056V23.5893L94.2299 23.1138L92.731 19.0617H87.0973L85.6087 23.1138L87.733 23.5841V24.101H82.9418V23.5893ZM87.4901 17.9814H92.364L89.9452 11.4484L87.4901 17.9814ZM108.681 16.9477C109.198 16.8185 112.098 16.0794 112.098 13.3297C112.098 11.1227 110.407 9.41194 106.242 9.41194C103.657 9.41194 101.073 9.4688 100.747 9.47912V9.99597L102.448 10.4715V23.1138L100.747 23.5893V24.1062H106.764V23.5893L104.789 23.1138V17.3974H106.49L110.836 24.1165H114.687V23.5996L112.738 23.0828L108.681 16.9477ZM121.385 10.2286V23.119L119.318 23.5892V24.1062H125.763V23.5893L123.696 23.1189V10.2338H127.174L128.322 12.7044H128.766L128.435 9.48437H116.646L116.315 12.7044H116.76L117.897 10.2597L121.385 10.2286ZM11.0937 19.5319L13.161 0H8.87109L10.9385 19.5319H11.0937Z" fill="white"/>
</svg>
