<svg width="200" height="36" viewBox="0 0 200 36" fill="none" xmlns="http://www.w3.org/2000/svg">
<path fill-rule="evenodd" clip-rule="evenodd" d="M72.278 13.0353C72.278 12.7085 72.5011 12.5337 72.7813 12.5337C73.2554 12.5337 73.9712 13.0353 74.3749 14.0384C74.2301 14.0384 74.0124 14.0821 73.8663 14.0821C73.0031 14.0821 72.278 13.6732 72.278 13.0353ZM20.0529 13.0353C20.0529 12.7085 20.2667 12.5337 20.5588 12.5337C21.021 12.5337 21.7076 13.0353 22.106 14.0384C20.7726 14.0384 20.0529 13.7513 20.0529 13.0353ZM30.1258 7.85159C30.1258 2.48529 31.1749 1.66084 31.5003 1.66084C32.0793 1.66084 32.1484 2.02076 32.1484 4.07866C32.1484 6.19341 31.244 8.96062 30.1258 10.4799V7.85159ZM66.7933 13.1426C66.1718 14.0054 65.6685 15.2309 65.6685 16.8097C65.6685 19.8336 67.3989 22.7199 70.7614 22.7199C74.0124 22.7199 76.2899 20.1605 76.2899 16.5913C76.2899 15.5551 76.2501 15.4122 76.1823 14.9821C76.938 14.6539 77.59 14.1523 78.0973 13.7513C78.5289 13.4271 78.8516 13.2458 79.1092 13.2458C79.4333 13.2458 79.5754 13.4986 79.5754 13.9657V21.0273C79.5754 22.1773 79.9406 22.7199 80.8397 22.7199C81.6683 22.7199 82.2513 22.1403 82.574 21.4574C83.7692 18.9734 85.4996 15.6623 86.2552 14.4051C86.4372 14.1166 86.5846 13.8956 86.6882 13.8956C86.8329 13.8956 86.9073 14.0054 86.9073 14.4712V20.093C86.9073 21.6744 87.6324 22.7199 89.2154 22.7199C90.8807 22.7199 91.7067 21.1305 93.1622 18.6836C93.2312 18.5367 93.2618 18.4322 93.2618 18.3276C93.2618 18.0034 92.9802 17.8194 92.6894 17.8194C92.3614 17.8194 92.1808 18.1463 91.0998 19.3307C90.8807 19.5557 90.6682 19.868 90.2671 19.868C90.1237 19.868 90.0135 19.6946 90.0135 19.475V13.173C90.0135 11.4804 89.2539 10.7975 88.2791 10.7975C87.4864 10.7975 86.8329 11.1217 86.1477 12.1301C84.9193 13.9339 83.655 16.492 82.971 17.781C82.8941 17.9319 82.7905 18.1462 82.7201 18.1462C82.6444 18.1462 82.6125 18.035 82.6125 17.781V13.173C82.6125 11.8443 82.2513 10.7975 80.8397 10.7975C79.3576 10.7975 78.6006 11.8072 77.5169 12.5616C76.8304 13.0711 76.2182 13.427 75.7507 13.6428C75.0243 11.8072 73.6896 10.8769 72.5701 10.9047C71.4467 10.943 70.6525 11.6312 70.6525 12.7839C70.6525 13.9657 71.3789 14.7888 72.3497 15.1554C72.8889 15.3711 73.3962 15.4121 74.1226 15.4121C74.3404 15.4121 74.5555 15.4121 74.6949 15.3711C74.772 15.7298 74.7374 16.2406 74.7374 16.6349C74.7374 18.4017 73.6896 20.1604 71.7415 20.1604C69.7136 20.1604 68.5264 18.2164 68.5264 15.9865C68.5264 14.2925 69.0297 12.8911 69.8544 11.9224C70.1877 11.5598 70.436 11.3401 70.436 11.0079C70.436 10.8398 70.1877 10.7975 69.9686 10.7975C68.5928 10.7975 67.0802 11.4116 66.035 11.9489C64.6552 12.6701 63.0337 13.8624 61.6951 15.0495C61.0457 13.6057 60.2516 12.3459 59.8518 11.3705C59.7084 10.9748 59.6035 10.5156 59.314 10.5156C59.0577 10.5156 58.9461 10.767 58.7695 11.2633C58.1215 13.173 54.6514 18.7576 53.8931 19.5133C53.8214 19.6165 53.7165 19.7304 53.6819 19.7304C53.6036 19.7304 53.5624 19.6946 53.5624 19.4749V13.173C53.5624 11.4804 52.8772 10.7975 51.9449 10.7975C51.1468 10.7975 50.4629 11.1217 49.8135 12.1301C48.6235 13.9339 47.1721 16.5621 46.4881 17.8551C46.3779 18.0774 46.269 18.1462 46.2318 18.1462C46.196 18.1462 46.1667 18.0033 46.1667 17.781V13.173C46.1667 11.4804 45.4775 10.7975 44.5373 10.7975C43.7405 10.7975 42.9862 11.0926 42.3687 12.1301C40.8547 14.6895 38.3275 18.6134 37.8574 19.2566C37.7844 19.3677 37.7114 19.4405 37.6396 19.4749C37.5679 19.4749 37.5268 19.4047 37.5268 19.2261V13.173C37.5268 11.4804 36.8415 10.7975 35.9079 10.7975C34.6052 10.7975 33.8867 11.9912 33.4126 12.7429C32.7592 13.787 31.896 15.1938 31.2121 16.492C30.7407 17.3602 30.3409 18.1462 30.1948 18.1462C30.1258 18.1462 30.1258 17.8194 30.1258 17.2093V12.3869C32.398 9.86188 33.8083 6.76908 33.8083 3.38519C33.8083 1.43722 32.9452 0.362626 31.6118 0.362626C29.1139 0.362626 27.2042 4.25206 27.2042 8.85606V12.5999C26.0462 13.3212 24.9612 13.6732 23.6226 13.9339C22.9386 11.9223 21.4911 10.8769 20.3397 10.9047C19.2229 10.943 18.4247 11.6312 18.4247 12.7839C18.4247 14.6895 20.3039 15.4809 21.9612 15.4809H22.4313C22.5017 15.8435 22.5017 16.2406 22.5017 16.6349C22.5017 18.4016 21.4552 20.1604 19.5097 20.1604C17.4885 20.1604 16.2933 18.2164 16.2933 15.9865C16.2933 14.2925 16.794 12.8911 17.6253 11.9223C17.9533 11.5598 18.2083 11.2355 18.2083 11.0079C18.2083 10.8398 17.9533 10.7975 17.7342 10.7975C16.3624 10.7975 13.3319 12.641 9.71703 16.2406C9.39695 13.3596 9.03311 10.5487 9.03311 7.81194C9.03311 4.75363 9.63997 2.1558 9.78474 1.40674C9.85778 0.942255 9.90295 0.649809 9.90295 0.438018C9.90295 0.148228 9.74887 0 9.35978 0C6.43018 0 0 4.64636 0 11.5941C0 16.5212 1.81005 18.8992 4.9468 21.9589C3.04248 25.0199 1.51528 28.6539 1.51528 31.8949C1.51528 34.2306 2.06237 36 3.79149 36C7.40496 36 10.1114 28.5162 10.1114 22.9686C10.1114 21.3144 10.045 19.6562 9.90295 18.0033C11.2349 16.5913 13.2946 14.6895 13.7967 14.5096C13.5815 15.2665 13.4367 16.0605 13.4367 16.8096C13.4367 19.8335 15.1738 22.7198 18.5297 22.7198C21.677 22.7198 24.0568 20.1604 24.0568 16.5913C24.0568 16.1307 24.0196 15.7298 23.9877 15.2997C25.1378 15.0839 26.1962 14.7889 27.2042 14.1867V21.4216C27.2042 22.3533 27.8496 22.7198 28.4645 22.7198C29.2997 22.7198 29.7327 22.1402 30.3409 20.8155C30.8522 19.7303 32.22 17.249 33.05 15.7681C33.7048 14.6128 34.066 13.8624 34.3568 13.8624C34.4245 13.8624 34.5016 14.0384 34.5016 14.4712V20.6289C34.5016 22.2858 35.3688 22.7198 36.1191 22.7198C36.8415 22.7198 37.3143 22.3241 37.7844 21.6744C39.6648 19.0078 41.6542 15.8435 42.443 14.4712C42.5891 14.2251 42.7684 14.0384 42.9145 14.0384C43.0553 14.0384 43.1282 14.1165 43.1282 14.5784V21.0272C43.1282 22.1772 43.4895 22.7198 44.3965 22.7198C45.2225 22.7198 45.763 22.1402 46.0857 21.4573C47.2862 18.9733 49.0512 15.6953 49.8135 14.405C49.9901 14.1165 50.172 13.8624 50.2796 13.8624C50.4296 13.8624 50.4628 14.0384 50.4628 14.5095V20.6289C50.4628 22.2857 51.33 22.7198 52.0936 22.7198C53.0963 22.7198 53.7537 21.996 54.4031 21.1714C55.5876 19.6165 57.3233 16.8559 58.3725 15.0839C58.7363 15.6622 59.1294 16.3477 59.4601 17.1021C58.5915 18.1462 57.7231 19.3306 57.7231 20.5892C57.7231 21.9231 58.662 22.7198 59.638 22.7198C61.2967 22.7198 62.812 21.1304 62.812 18.9389C62.812 18.0773 62.5636 17.1748 62.2409 16.3133C63.7137 14.8695 65.4866 13.4654 66.7933 13.1424V13.1426ZM7.29343 20.9902C7.58554 22.8958 7.83922 24.7724 7.83922 26.2453C7.83922 29.6954 6.68653 33.7291 4.6985 33.696C3.93088 33.696 3.28549 32.9311 3.2536 31.6064C3.18056 27.2908 5.23896 23.6171 7.29343 20.9902ZM60.0325 18.5366C60.2516 19.156 60.3618 19.6562 60.3618 20.1604C60.3618 20.7374 60.144 21.3144 59.7443 21.3144C59.4601 21.3144 59.1706 20.9902 59.1706 20.4846C59.1706 19.9434 59.638 19.0792 60.0325 18.5367V18.5366ZM8.59749 1.36839C8.59749 1.58805 8.09154 2.59252 7.44349 4.39497C6.75685 6.26359 6.10221 8.92488 6.10221 12.1301C6.10221 14.0385 6.57626 16.5621 6.97597 19.1162L5.8193 20.6699C3.97469 18.4321 2.82069 15.9163 2.82069 11.5941C2.82069 5.47618 6.54045 1.23205 8.45141 1.23205C8.5656 1.23205 8.59749 1.26383 8.59749 1.36839ZM178.219 13.0353C178.219 12.7085 178.43 12.5337 178.722 12.5337C179.188 12.5337 179.912 13.0353 180.308 14.0384C180.167 14.0384 179.95 14.0821 179.799 14.0821C178.94 14.0821 178.219 13.6732 178.219 13.0353ZM125.983 13.0353C125.983 12.7085 126.203 12.5337 126.489 12.5337C126.959 12.5337 127.652 13.0353 128.041 14.0384C126.705 14.0384 125.983 13.7513 125.983 13.0353ZM136.063 7.85159C136.063 2.48529 137.105 1.66084 137.434 1.66084C138.011 1.66084 138.084 2.02076 138.084 4.07866C138.084 6.19341 137.178 8.96062 136.063 10.4799V7.85159ZM113.237 20.9902C113.517 22.8958 113.78 24.7724 113.78 26.2453C113.78 29.6954 112.626 33.7291 110.634 33.696C109.877 33.696 109.226 32.9311 109.19 31.6064C109.116 27.2908 111.178 23.6171 113.237 20.9902H113.237ZM165.975 18.5366C166.194 19.156 166.297 19.6562 166.297 20.1604C166.297 20.7374 166.081 21.3144 165.684 21.3144C165.398 21.3144 165.101 20.9902 165.101 20.4846C165.101 19.9434 165.575 19.0792 165.975 18.5367L165.975 18.5366ZM114.53 1.36839C114.53 1.58805 114.03 2.59252 113.375 4.39497C112.694 6.26359 112.039 8.92488 112.039 12.1301C112.039 14.0385 112.521 16.5621 112.916 19.1162L111.756 20.6699C109.917 18.4321 108.755 15.9163 108.755 11.5941C108.755 5.47618 112.483 1.23205 114.394 1.23205C114.499 1.23205 114.53 1.26383 114.53 1.36839H114.53ZM108.508 19.3677C109.153 20.2319 109.95 21.059 110.889 21.9589C108.973 25.0199 107.457 28.6539 107.457 31.8949C107.457 34.2306 108.003 36 109.738 36C113.346 36 116.052 28.5162 116.052 22.9686C116.052 21.3144 115.982 19.6562 115.837 18.0033C117.176 16.5913 119.228 14.6895 119.74 14.5096C119.522 15.2665 119.372 16.0605 119.372 16.8096C119.372 19.8335 121.108 22.7198 124.47 22.7198C127.61 22.7198 129.994 20.1604 129.994 16.5913C129.994 16.1307 129.96 15.7298 129.921 15.2997C131.079 15.0839 132.133 14.7889 133.138 14.1867V21.4216C133.138 22.3533 133.785 22.7198 134.395 22.7198C135.237 22.7198 135.67 22.1402 136.28 20.8155C136.784 19.7303 138.16 17.249 138.992 15.7681C139.64 14.6128 140.001 13.8624 140.298 13.8624C140.365 13.8624 140.433 14.0384 140.433 14.4712V20.6289C140.433 22.2858 141.298 22.7198 142.057 22.7198C142.782 22.7198 143.247 22.3241 143.727 21.6744C145.599 19.0078 147.588 15.8435 148.381 14.4712C148.526 14.2251 148.709 14.0384 148.849 14.0384C148.989 14.0384 149.069 14.1165 149.069 14.5784V21.0272C149.069 22.1772 149.426 22.7198 150.328 22.7198C151.159 22.7198 151.701 22.1402 152.029 21.4573C153.222 18.9733 154.991 15.6953 155.746 14.405C155.931 14.1165 156.11 13.8624 156.223 13.8624C156.364 13.8624 156.404 14.0384 156.404 14.5095V20.6289C156.404 22.2857 157.263 22.7198 158.02 22.7198C159.038 22.7198 159.689 21.996 160.335 21.1714C161.526 19.6165 163.264 16.8559 164.311 15.0839C164.668 15.6622 165.07 16.3477 165.398 17.1021C164.522 18.1462 163.664 19.3306 163.664 20.5892C163.664 21.9231 164.592 22.7198 165.575 22.7198C167.234 22.7198 168.749 21.1304 168.749 18.9389C168.749 18.0773 168.498 17.1748 168.172 16.3133C169.652 14.8695 171.423 13.4654 172.724 13.1424C172.11 14.0053 171.604 15.2308 171.604 16.8096C171.604 19.8335 173.34 22.7198 176.7 22.7198C179.951 22.7198 182.22 20.1604 182.22 16.5912C182.22 15.555 182.187 15.4121 182.119 14.982C182.87 14.6538 183.524 14.1522 184.035 13.7512C184.459 13.427 184.791 13.2457 185.039 13.2457C185.366 13.2457 185.519 13.4985 185.519 13.9656V21.0272C185.519 22.1772 185.875 22.7198 186.778 22.7198C187.605 22.7198 188.187 22.1402 188.514 21.4573C189.698 18.9733 191.435 15.6622 192.191 14.405C192.371 14.1165 192.519 13.8955 192.628 13.8955C192.775 13.8955 192.846 14.0053 192.846 14.4711V20.0929C192.846 21.6743 193.561 22.7198 195.155 22.7198C196.822 22.7198 197.65 21.1304 199.098 18.6835C199.165 18.5366 199.2 18.4321 199.2 18.3275C199.2 18.0033 198.91 17.8193 198.624 17.8193C198.301 17.8193 198.116 18.1462 197.035 19.3306C196.822 19.5556 196.601 19.8679 196.205 19.8679C196.057 19.8679 195.954 19.6945 195.954 19.4749V13.173C195.954 11.4804 195.187 10.7975 194.212 10.7975C193.422 10.7975 192.775 11.1217 192.086 12.1301C190.855 13.9339 189.595 16.492 188.913 17.781C188.835 17.9319 188.73 18.1462 188.653 18.1462C188.576 18.1462 188.548 18.035 188.548 17.781V13.173C188.548 11.8443 188.187 10.7975 186.778 10.7975C185.293 10.7975 184.539 11.8072 183.456 12.5616C182.763 13.0711 182.154 13.427 181.68 13.6428C180.964 11.8072 179.623 10.8769 178.508 10.9047C177.382 10.943 176.595 11.6312 176.595 12.7839C176.595 13.9657 177.317 14.7888 178.284 15.1554C178.827 15.3711 179.333 15.4121 180.065 15.4121C180.276 15.4121 180.486 15.4121 180.64 15.3711C180.71 15.7298 180.673 16.2406 180.673 16.6349C180.673 18.4017 179.623 20.1604 177.67 20.1604C175.649 20.1604 174.462 18.2164 174.462 15.9865C174.462 14.2925 174.964 12.8911 175.791 11.9224C176.121 11.5598 176.376 11.3401 176.376 11.0079C176.376 10.8398 176.121 10.7975 175.904 10.7975C174.538 10.7975 173.016 11.4116 171.968 11.9489C170.594 12.6701 168.968 13.8624 167.636 15.0495C166.984 13.6057 166.194 12.3459 165.791 11.3705C165.643 10.9748 165.544 10.5156 165.244 10.5156C164.995 10.5156 164.884 10.767 164.706 11.2633C164.054 13.173 160.59 18.7576 159.831 19.5133C159.758 19.6165 159.651 19.7304 159.612 19.7304C159.544 19.7304 159.505 19.6946 159.505 19.4749V13.173C159.505 11.4804 158.823 10.7975 157.875 10.7975C157.08 10.7975 156.404 11.1217 155.746 12.1301C154.552 13.9339 153.112 16.5621 152.425 17.8551C152.319 18.0774 152.213 18.1462 152.178 18.1462C152.137 18.1462 152.1 18.0033 152.1 17.781V13.173C152.1 11.4804 151.418 10.7975 150.478 10.7975C149.681 10.7975 148.918 11.0926 148.31 12.1301C146.788 14.6895 144.263 18.6134 143.79 19.2566C143.727 19.3677 143.65 19.4405 143.572 19.4749C143.509 19.4749 143.466 19.4047 143.466 19.2261V13.173C143.466 11.4804 142.782 10.7975 141.839 10.7975C140.535 10.7975 139.818 11.9912 139.345 12.7429C138.696 13.787 137.834 15.1938 137.145 16.492C136.679 17.3602 136.28 18.1462 136.136 18.1462C136.063 18.1462 136.063 17.8194 136.063 17.2093V12.3869C138.341 9.86188 139.745 6.76908 139.745 3.38519C139.745 1.43722 138.881 0.362626 137.539 0.362626C135.051 0.362626 133.138 4.25206 133.138 8.85606V12.5999C131.979 13.3212 130.895 13.6732 129.557 13.9339C128.875 11.9223 127.429 10.8769 126.281 10.9047C125.153 10.943 124.362 11.6312 124.362 12.7839C124.362 14.6895 126.234 15.4809 127.899 15.4809H128.372C128.439 15.8435 128.439 16.2406 128.439 16.6349C128.439 18.4016 127.395 20.1604 125.443 20.1604C123.419 20.1604 122.233 18.2164 122.233 15.9865C122.233 14.2925 122.737 12.8911 123.562 11.9223C123.886 11.5598 124.141 11.2355 124.141 11.0079C124.141 10.8398 123.886 10.7975 123.672 10.7975C122.298 10.7975 119.266 12.641 115.65 16.2406C115.332 13.3596 114.967 10.5487 114.967 7.81194C114.967 4.75363 115.581 2.1558 115.726 1.40674C115.797 0.942255 115.837 0.649809 115.837 0.438018C115.837 0.148228 115.69 0 115.299 0C112.372 0 105.942 4.64636 105.942 11.5941C105.942 14.4341 106.556 16.455 107.639 18.2164C107.236 18.1462 106.918 18.1462 106.622 18.1462C105.471 18.1462 104.383 18.4321 103.708 18.579V17.8551C103.708 16.3133 103.342 14.1867 102.69 13.4654C102.613 13.3913 102.505 13.3596 102.404 13.3596C102.107 13.3596 101.751 13.4985 101.355 13.7169C100.917 13.9339 100.484 14.1523 100.484 14.2925C100.484 14.3614 100.484 14.4341 100.593 14.6128C100.848 14.982 101.536 15.6953 101.784 17.3919C100.553 16.1665 99.1508 15.6225 97.3155 15.6225C95.1442 15.6225 94.4908 16.5913 94.4908 17.5693C94.4908 19.4405 96.9835 20.3761 100.131 20.3761C100.707 20.3761 101.355 20.2676 102.002 20.1207C102.002 20.6977 102.075 21.2085 102.075 21.6373C102.075 22.25 102.18 22.7198 102.582 22.7198C103.195 22.7198 103.558 21.4904 103.627 19.7303C104.747 19.4405 105.905 19.1917 106.884 19.1917C107.351 19.1917 107.936 19.2566 108.508 19.3677ZM101.392 19.0078C100.784 19.0792 100.414 19.0792 99.7696 19.0792C98.3566 19.0792 97.3155 18.5366 97.3155 17.7518C97.3155 17.249 97.5651 16.9565 98.2876 16.9565C99.4455 16.9565 100.379 17.7519 101.392 19.0077V19.0078Z" fill="white"/>
</svg>
