<svg width="158" height="46" viewBox="0 0 158 46" fill="none" xmlns="http://www.w3.org/2000/svg">
<path d="M74.7631 11.8289H81.8891V34.8274H76.6083V19.361L69.853 34.8268L62.7433 19.3416V34.8268H57.8164V11.8283H64.8594L69.9375 23.7322L74.7631 11.8289ZM84.515 11.8289V34.8274H97.7852V30.9285H89.6593V25.077H97.449V21.1415H89.6593V15.8651H97.7852V11.8289H84.515ZM117.577 23.3322C117.577 31.8929 126.512 38.7437 135.926 34.1614V29.2342C128.682 34.3089 122.376 29.2226 122.479 23.5287C122.55 19.7445 125.093 16.1455 130.012 15.8651C132.431 15.7277 134.07 16.329 135.926 18.1057V12.9817C129.123 8.95098 117.577 13.3875 117.577 23.3322ZM138.097 34.8271H142.988V12.0501H138.097V34.8271ZM149.126 22.4943L156.517 12.1003H150.805L143.482 22.4749L151.983 34.8271H157.593L149.126 22.4943Z" fill="white"/>
<path d="M100.072 11.5V34.4985H105.235V22.1428L113.768 34.4985H119.271L112.515 24.8419C115.646 23.658 116.662 21.0327 116.662 18.4086C116.662 15.787 114.461 11.5003 109.129 11.5003L100.072 11.5ZM105.235 15.3275H107.488C111.298 15.3275 111.501 17.8178 111.501 18.7479C111.501 20.5246 109.993 22.0378 108.048 22.0378H105.235V15.3275Z" fill="white"/>
<path d="M11.4993 11.5001C11.4993 5.1484 16.6488 0 22.9994 0C29.3523 0 34.4999 5.1484 34.4999 11.5001H11.4993ZM11.4993 34.4999C11.4993 28.149 16.6488 22.9994 22.9994 22.9994C16.6488 22.9994 11.4993 17.8522 11.4993 11.5001C5.1484 11.5001 0 16.6488 0 22.9994C0 29.3523 5.1484 34.4999 11.4993 34.4999ZM11.4993 34.4999C11.4993 40.8528 16.6488 46 22.9994 46C29.3523 46 34.4999 40.8528 34.4999 34.4999H11.4993ZM22.9994 22.9994C29.3523 22.9994 34.4999 28.149 34.4999 34.4999C40.8516 34.4999 46.0012 29.3526 46.0012 22.9994C46.0012 16.6488 40.8516 11.5001 34.4999 11.5001C34.4999 17.8522 29.3526 22.9994 22.9994 22.9994Z" fill="white"/>
</svg>
