<svg width="111" height="60" viewBox="0 0 111 60" fill="none" xmlns="http://www.w3.org/2000/svg">
<path d="M75.9648 35.0252C76.6017 34.5702 77.2923 34.0408 77.9354 33.5342C82.89 29.5699 86.6742 25.2251 87.4248 22.8221C87.4476 22.7435 87.5137 22.5202 87.5137 22.3444C87.5137 22.0962 87.3959 21.9225 87.1705 21.9225C84.8958 21.9225 77.5984 29.1894 75.8324 35.0727V35.0934L75.9648 35.0252ZM57.6725 34.1897C64.5709 28.9784 71.8187 21.3911 72.5921 18.2767C72.6148 18.1754 72.6376 18.0761 72.6355 17.981C72.6252 17.7742 72.5135 17.5922 72.253 17.5922C70.0693 17.5922 59.9596 26.9167 57.6725 34.1897ZM15.3166 38.7702C13.4948 37.5067 10.6784 36.4024 8.16184 36.4024C5.72177 36.4024 4.15847 37.362 4.15847 38.5717C4.15847 39.9593 6.05262 40.5673 8.17424 40.5673C10.7467 40.5673 13.0813 39.8725 15.3166 38.7702ZM36.448 22.423C41.3943 20.8368 46.0842 17.5219 49.5851 14.0601C52.8172 10.8568 55.4061 7.05384 55.4061 5.16992C55.4061 4.73978 55.1001 4.48129 54.7072 4.48129C53.2121 4.48129 50.3709 6.4686 46.5474 10.2964C43.5718 13.2805 40.104 17.3544 36.448 22.423ZM110.064 34.38C105.816 38.6069 92.5821 50.2247 89.0791 60L84.7408 58.8812C86.1593 54.8321 90.4294 48.5352 95.1876 43.6775C94.1743 44.058 93.1197 44.2007 92.2719 44.2007C90.9857 44.2007 89.9869 43.812 89.3852 43.084C88.955 42.5588 88.7359 41.8743 88.7359 41.0595C88.7359 40.8816 88.7483 40.7038 88.7731 40.5032C84.5939 43.0489 81.2337 44.1987 77.9416 44.1987C75.3796 44.1987 73.2228 43.082 72.224 41.1236C68.0759 43.1812 64.0973 44.1987 60.7722 44.1987C57.6767 44.1987 55.1807 42.9724 54.0352 40.739C49.8415 43.0964 46.2724 44.1987 43.4333 44.1987C41.7996 44.1987 40.5031 43.7458 39.6718 42.8876C39.0597 42.2548 38.7372 41.4048 38.6896 40.4226C36.0014 42.1948 32.0725 44.1987 28.0463 44.1987C23.9272 44.1987 21.1645 42.7842 19.0201 41.3821C15.5999 43.2763 11.8364 44.1987 7.85786 44.1987C4.8512 44.1987 7.9367e-06 42.9475 7.9367e-06 38.6358C-0.00619563 35.1554 3.62496 32.798 8.48442 32.798C12.616 32.798 16.5966 34.5392 19.0946 36.3466C21.4644 34.4585 23.952 31.8177 26.8863 28.0851C26.2411 28.1223 25.6104 28.1388 24.99 28.1388C19.3717 28.1388 14.6797 26.4824 12.1176 23.5831C10.7342 22.0156 10.0787 20.1772 10.0787 18.1981C10.0787 10.3812 19.9528 4.31585 28.5902 3.42249C29.1609 4.71703 29.6696 5.71379 30.1969 6.89874C21.6649 7.89136 14.5577 12.9413 14.5577 17.8776C14.5577 21.1222 18.2033 24.3813 25.9433 24.3813C27.2688 24.3813 28.6005 24.2531 29.9115 24.0732C36.7437 14.6433 47.2112 0 56.2209 0C58.8863 0 60.2801 1.62129 60.2801 3.78852C60.2801 8.24705 56.4442 13.0468 53.9462 15.5511C50.0214 19.4947 42.9204 25.3636 33.0051 27.3075C29.1485 32.6739 25.9785 36.2329 22.8064 38.8033C24.7274 39.8394 26.5306 40.4763 28.6791 40.4763C34.0162 40.4763 39.1942 35.5918 43.2368 31.4496L43.3795 31.3111L46.5309 33.7761L46.3862 33.9498C44.5995 35.9992 42.9514 38.1664 42.9514 39.3803C42.9514 40.3005 43.731 40.4825 44.3989 40.4825C46.442 40.4825 49.5934 39.159 53.3011 36.8801V36.8491C53.7105 27.688 66.2128 13.6775 73.8018 13.6775C75.9441 13.6775 77.1745 14.7446 77.1745 16.614C77.1745 21.207 69.2525 31.0526 57.7283 38.5883V38.5945C58.3239 39.8766 59.6969 40.4949 62.0274 40.4949C63.8451 40.4949 67.4018 39.6843 71.6285 37.4757C72.1165 32.7297 74.8068 27.6322 78.2187 23.9988C81.641 20.3612 85.4769 17.9975 88.7938 17.9975C90.8389 17.9975 92.0465 19.1225 92.0465 20.8906C92.0465 24.8963 87.3959 31.7454 76.1922 38.9171C76.6885 39.8766 77.6501 40.4825 79.1472 40.4825C82.4847 40.4825 88.3636 36.9215 92.9419 32.5436L96.2298 35.0955C94.8257 36.7995 93.4051 38.671 93.4506 39.7484C93.463 40.0979 93.6987 40.3336 94.2508 40.3336C97.6256 40.3336 102.938 35.8772 106.921 31.9439L110.064 34.38ZM48.9772 25.192C50.4681 25.192 51.6716 26.4017 51.6716 27.8907C51.6716 29.3817 50.4681 30.5894 48.9772 30.5894C47.48 30.5894 46.2724 29.3817 46.2724 27.8907C46.2745 26.4017 47.4821 25.192 48.9772 25.192Z" fill="white"/>
</svg>
