<svg width="51" height="62" viewBox="0 0 51 62" fill="none" xmlns="http://www.w3.org/2000/svg">
<path fill-rule="evenodd" clip-rule="evenodd" d="M32.7415 13.5051V3.98237C32.7415 3.47312 32.6932 3.32841 31.491 3.32841H10.7011C9.25238 3.32841 8.31364 3.70409 8.31364 3.98237V12.2891C8.31364 12.5089 8.27519 12.712 8.16146 12.8985L5.00952 18.03L10.5138 15.7843C10.6466 15.7286 10.7936 15.6702 10.9381 15.6702H31.491C32.2353 15.6702 32.7415 14.4346 32.7415 13.5051ZM31.491 0.910156C33.8005 0.910156 34.8759 1.99545 34.8759 3.98237V13.5051C34.8759 15.7425 33.6704 18.0912 31.491 18.0912H11.1563L2.60241 21.553C2.46495 21.6087 2.32041 21.6198 2.17804 21.6198C1.84613 21.6198 1.51967 21.4723 1.29658 21.1996C0.98103 20.8128 0.885302 20.2618 1.14876 19.836L5.94226 11.9523V3.98237C5.94226 2.10676 7.80773 0.910156 10.7011 0.910156H31.491ZM14.6573 10.4254C14.6573 11.6577 13.675 12.6643 12.4714 12.6643C11.2656 12.6643 10.2857 11.6577 10.2857 10.4254C10.2857 9.19034 11.2656 8.18652 12.4714 8.18652C13.675 8.18652 14.6573 9.19034 14.6573 10.4254ZM22.3076 10.4254C22.3076 11.6577 21.3253 12.6643 20.1218 12.6643C18.9161 12.6643 17.936 11.6577 17.936 10.4254C17.936 9.19034 18.9161 8.18652 20.1218 8.18652C21.3253 8.18652 22.3076 9.19034 22.3076 10.4254ZM30.5043 10.4254C30.5043 11.6577 29.5223 12.6643 28.3186 12.6643C27.1123 12.6643 26.1327 11.6577 26.1327 10.4254C26.1327 9.19034 27.1123 8.18652 28.3186 8.18652C29.5223 8.18652 30.5043 9.19034 30.5043 10.4254ZM49.875 25.5378C49.7659 25.5378 49.6551 25.5098 49.5468 25.476L41.1918 22.9031H20.4481C19.8156 22.9031 19.3021 22.3301 19.3021 21.6813C19.3021 21.0324 19.8156 20.4623 20.4481 20.4623H41.3602C41.4712 20.4623 41.5817 20.5353 41.6881 20.569L46.9112 22.1981L43.6415 17.6225C43.4962 17.4231 43.4565 17.1928 43.4565 16.94V7.88423C43.4565 7.59491 43.3789 7.2719 41.5973 7.2719H38.0282C37.3957 7.2719 36.8822 6.69889 36.8822 6.05005C36.8822 5.4012 37.3957 4.8282 38.0282 4.8282H41.5973C42.6052 4.8282 45.6018 4.91527 45.6018 7.88423V16.5551L50.763 23.6643C51.0553 24.0716 51.0799 24.625 50.7959 25.0379C50.5774 25.3581 50.2415 25.5378 49.875 25.5378ZM14.6039 41.8013C14.48 41.7628 14.2319 41.6734 13.7622 41.5003L13.7287 41.488L13.696 41.4737C10.8835 40.2448 9.01888 37.3816 9.01888 34.1651C9.01888 29.791 12.436 26.2375 16.6606 26.2375C20.8852 26.2375 24.3022 29.791 24.3022 34.1651C24.3022 35.6352 24.3741 36.3418 24.5621 37.1192C24.6043 37.2939 24.7912 38.0026 24.8332 38.1692C25.4237 40.5139 27.0798 41.9022 29.5009 41.6623C31.2899 41.4852 33.2755 39.6502 33.5762 37.6974C33.6864 36.9823 33.6831 36.2637 33.5959 34.9867C33.5901 34.9023 33.5853 34.8327 33.5747 34.6824C33.5276 34.0107 33.5092 33.7131 33.4953 33.3298L33.4469 31.9067L33.4462 31.8629C33.4462 28.7603 35.8722 26.2375 38.8742 26.2375C41.8761 26.2375 44.3021 28.7603 44.3021 31.8629C44.3021 33.4924 43.5402 35.0588 41.861 36.9035L41.5669 37.2238L41.2007 37.6278C39.3646 39.6687 38.5635 41.0162 38.4165 42.7351L38.4021 42.9183C38.2915 44.4731 38.4864 45.5495 39.5485 49.4139C39.8697 50.5827 40.0273 51.4683 40.0273 52.4232C40.0273 57.5864 35.9951 61.7797 31.0116 61.7797C26.0282 61.7797 21.9959 57.5864 21.9959 52.4183L21.9992 51.5569C22.002 51.2325 22.0064 50.9642 22.0131 50.7682C22.1168 47.7238 21.5467 45.9989 19.9565 44.5608C19.1205 43.8045 16.2955 42.3562 14.6039 41.8013ZM15.1306 39.3259C15.2297 39.3614 15.3017 39.3862 15.2932 39.3838L15.3409 39.3983C17.3284 40.0478 20.4515 41.6482 21.5841 42.6728C23.7874 44.6653 24.5979 47.1177 24.4706 50.856C24.4649 51.025 24.4607 51.2748 24.4582 51.5729L24.4549 52.4232C24.4549 56.2039 27.3947 59.261 31.0116 59.261C34.6286 59.261 37.5683 56.2039 37.5683 52.4232C37.5683 51.7443 37.4469 51.0624 37.1815 50.0964C36.0442 45.9582 35.8117 44.6743 35.9503 42.7259L35.9661 42.5243C36.174 40.0933 37.2168 38.3393 39.3955 35.9176L39.7702 35.5042L40.0661 35.1819C41.3546 33.7664 41.8431 32.7621 41.8431 31.8629C41.8431 30.1429 40.5096 28.7562 38.8742 28.7562C37.245 28.7562 35.9156 30.1321 35.9053 31.8428L35.9527 33.2391C35.9651 33.5805 35.9823 33.8592 36.0274 34.5019C36.0381 34.6538 36.043 34.7245 36.0489 34.811C36.1483 36.267 36.1523 37.135 36.0052 38.09C35.5264 41.1995 32.6217 43.8838 29.7376 44.1693C26.027 44.537 23.3275 42.274 22.4521 38.7983C22.4162 38.6558 22.225 37.9308 22.1751 37.7247C21.9353 36.7329 21.8432 35.8269 21.8432 34.1651C21.8432 31.1736 19.5187 28.7562 16.6606 28.7562C13.8025 28.7562 11.4779 31.1736 11.4779 34.1651C11.4779 36.3561 12.7368 38.301 14.6298 39.1433C14.8425 39.2216 15.0097 39.2825 15.1306 39.3259ZM11.5465 61.4188C8.33871 61.4172 6.05185 58.9464 6.05074 55.5503C6.04963 52.1942 8.37001 49.6968 11.5468 49.6968C11.5583 49.6968 11.5583 49.6968 11.5754 49.6968C14.6534 49.7111 17.0552 52.2811 17.065 55.5166C17.0746 58.855 14.7031 61.4204 11.5465 61.4188ZM7.28025 55.5499L6.05074 55.5503L7.28025 55.5499ZM8.50975 55.5494L7.28025 55.5499L8.50975 55.5494C8.51042 57.5844 9.72731 58.8991 11.5477 58.9001C13.3134 58.901 14.6117 57.4966 14.606 55.5243C14.6003 53.6493 13.2678 52.2234 11.5698 52.2155H11.5468C9.7562 52.2155 8.50909 53.5578 8.50975 55.5494Z" fill="white"/>
</svg>
