<svg width="138" height="40" viewBox="0 0 138 40" fill="none" xmlns="http://www.w3.org/2000/svg">
<path d="M122.258 39.3744H115.992V0.324219H122.24V14.5627C122.676 14.2198 123.13 13.9001 123.599 13.6047C127.375 11.5371 134.137 11.7007 136.817 17.6002C137.74 19.6232 137.975 21.8009 137.987 23.9906C138.016 28.8666 137.987 33.7427 137.987 38.6187C137.987 38.7467 137.969 38.8776 137.957 39.0531H131.65V38.0803C131.65 32.6984 131.679 27.3166 131.605 21.9348C131.563 18.9776 129.665 17.6002 126.786 18.2517C123.974 18.8884 122.383 20.8459 122.284 23.8537C122.237 25.3174 122.255 26.7811 122.252 28.2478C122.252 31.6314 122.252 35.015 122.252 38.3986L122.258 39.3744Z" fill="#FEFEFE"/>
<path d="M32.2187 7.97587L28.2411 11.9237C26.944 10.9569 25.7183 9.84122 24.3081 9.02904C17.418 5.12878 7.82648 8.22578 6.27352 17.7786C5.67851 21.4884 6.15452 25.0674 8.31736 28.2566C11.1793 32.4693 16.0138 34.2067 21.0862 32.9988C23.6527 32.3962 25.9775 31.0326 27.7562 29.0867L31.942 33.1029C27.8127 37.6785 22.6967 39.7491 16.5939 39.3148C7.98713 38.7198 1.53728 32.1747 0.272893 23.6275C-0.527389 18.2129 0.37702 13.0929 3.72392 8.63931C7.3475 3.82274 12.2414 1.56172 18.3015 1.6718C24.2932 1.7789 28.9313 4.44749 32.2187 7.97587Z" fill="#FEFEFE"/>
<path d="M47.0167 12.9727H53.2315V13.9425C53.2315 18.4705 53.2315 22.9995 53.2315 27.5295C53.232 28.0879 53.2608 28.6459 53.3178 29.2014C53.6629 32.6673 55.9239 34.259 59.3333 33.4765C62.7426 32.6941 64.3313 30.558 64.3432 26.8006C64.3581 22.5374 64.3432 18.2742 64.3432 14.008V12.9905H70.5699V39.3611H64.3521V37.3857C63.3049 37.8885 62.3618 38.5222 61.3236 38.8078C57.0574 39.9799 53.0768 39.6259 49.8251 36.2225C47.8437 34.14 47.0434 31.5576 46.9899 28.7849C46.8947 23.6203 46.9542 18.4497 46.9512 13.2821C46.9651 13.1774 46.987 13.074 47.0167 12.9727Z" fill="#FEFEFE"/>
<path d="M112.824 16.8345L108.451 20.9103C106.493 18.5303 103.917 17.8341 100.998 18.2566C99.2298 18.4744 97.6176 19.3783 96.509 20.7734C94.1023 23.808 94.4652 28.7822 97.2766 31.4359C100.088 34.0897 104.94 34.2116 108.37 30.7844L112.684 35.0774C105.916 41.4528 97.3748 40.0308 92.9093 35.6932C87.7535 30.6832 87.6048 21.9158 92.2667 16.7691C96.8452 11.7234 105.752 10.2924 112.824 16.8345Z" fill="#FEFEFE"/>
<path d="M83.065 18.9225V39.3728H76.7669V18.982H72.1348V12.9546H76.7074V3.375H83.068V12.9278H87.712V18.9225H83.065Z" fill="#FEFEFE"/>
<path d="M42.1428 39.3458C42.0316 39.3751 41.9181 39.395 41.8036 39.4053H35.9785V0.316406H42.1428V39.3458Z" fill="#FEFEFE"/>
<path d="M106.446 25.9187C106.457 26.4849 106.356 27.0478 106.147 27.574C105.937 28.1003 105.625 28.5793 105.228 28.9828C104.83 29.3863 104.356 29.7061 103.833 29.9233C103.31 30.1405 102.749 30.2507 102.182 30.2474C99.7458 30.2474 97.8745 28.5992 97.7912 25.9574C97.7138 23.5774 99.7696 21.5692 102.194 21.5782C103.328 21.6083 104.405 22.078 105.198 22.888C105.992 23.6981 106.439 24.7849 106.446 25.9187Z" fill="#FEFEFE"/>
</svg>
